<svg width="85" height="15" viewBox="0 0 85 15" fill="none" xmlns="http://www.w3.org/2000/svg">
<g clip-path="url(#clip0_429_4340)">
<mask id="path-1-outside-1_429_4340" maskUnits="userSpaceOnUse" x="0" y="4" width="85" height="8" fill="black">
<rect fill="white" y="4" width="85" height="8"/>
<path d="M3.66751 11.0946C2.69571 11.0946 1.89591 10.785 1.26811 10.1744C0.640306 9.5552 0.330706 8.7726 0.330706 7.8266C0.330706 6.872 0.657506 6.0808 1.30251 5.4616C1.94751 4.8424 2.75591 4.5328 3.71051 4.5328C4.73391 4.5328 5.66271 4.937 6.24751 5.5218L5.33591 6.5538C4.87151 6.1152 4.32971 5.9002 3.70191 5.9002C3.14291 5.9002 2.68711 6.0808 2.32591 6.4506C1.96471 6.8118 1.78411 7.2676 1.78411 7.8094C1.78411 8.3512 1.96471 8.807 2.31731 9.1768C2.66991 9.5466 3.13431 9.7358 3.69331 9.7358C4.31251 9.7358 4.92311 9.4778 5.27571 9.1338V8.4028H3.65891V7.1816H6.56571V9.8562C5.74011 10.6818 4.77691 11.0946 3.66751 11.0946ZM7.27601 7.8352C7.27601 6.915 7.59421 6.1324 8.23061 5.496C8.87561 4.851 9.65821 4.5328 10.5956 4.5328C11.533 4.5328 12.3156 4.851 12.952 5.496C13.597 6.1324 13.9152 6.9064 13.9152 7.8266C13.9152 8.7468 13.597 9.5208 12.9606 10.1572C12.3242 10.785 11.533 11.1032 10.587 11.1032C9.64101 11.1032 8.84981 10.785 8.22201 10.1572C7.59421 9.5294 7.27601 8.7554 7.27601 7.8352ZM10.5956 9.7014C11.1202 9.7014 11.5588 9.5208 11.9114 9.1682C12.264 8.807 12.4446 8.3598 12.436 7.8266C12.4274 7.2848 12.2468 6.829 11.8942 6.4764C11.5416 6.1152 11.103 5.9346 10.5956 5.9346C10.0796 5.9346 9.64101 6.1152 9.28841 6.4764C8.93581 6.8376 8.75521 7.2848 8.75521 7.8266C8.75521 8.3598 8.93581 8.807 9.28841 9.1682C9.64101 9.5208 10.0796 9.7014 10.5956 9.7014ZM16.7953 11.1118C15.7891 11.1118 14.8861 10.7076 14.3013 9.9594L15.0753 8.9446C15.5483 9.5036 16.1245 9.7874 16.8039 9.7874C17.2855 9.7874 17.6381 9.5638 17.6381 9.2112C17.6381 8.979 17.4575 8.7812 17.0877 8.6178L16.5201 8.4114C16.1589 8.2738 15.8837 8.1534 15.7031 8.0588C15.0237 7.689 14.6797 7.1472 14.6797 6.4506C14.6797 5.9002 14.8861 5.4444 15.3075 5.0832C15.7289 4.722 16.2793 4.5414 16.9415 4.5414C17.7843 4.5414 18.5067 4.8252 19.1001 5.3842L18.3949 6.442C18.0251 6.0894 17.4317 5.8744 16.9587 5.8744C16.4771 5.8744 16.2019 6.0894 16.2019 6.399C16.2019 6.614 16.3739 6.8032 16.7179 6.958L17.3371 7.2074C17.6639 7.3364 17.9047 7.431 18.0681 7.5084C18.8335 7.8524 19.2119 8.3942 19.2119 9.1252C19.2119 9.7014 18.9883 10.183 18.5411 10.5528C18.1025 10.9226 17.5177 11.1118 16.7953 11.1118ZM20.1759 11V4.6446H21.6035V11H20.1759ZM24.3492 11H22.9474V4.6446H23.945L26.3444 8.1018L28.7266 4.6446H29.7414V11H28.3224V7.6374L26.5938 10.1056H26.0778L24.3492 7.6374V11ZM34.6293 11H33.2103V4.6446H34.6293V7.13H37.1061V4.6446H38.5337V11H37.1061V8.4974H34.6293V11ZM45.202 11H43.7228L43.3014 9.7186H41.1686L40.73 11H39.2508L41.633 4.6446H42.8714L45.202 11ZM42.923 8.4716L42.2436 6.4592L41.5556 8.4716H42.923ZM50.0705 8.3598V4.6446H51.4637V11H50.4403L47.3357 7.3192V11H45.9339V4.6446H46.8971L50.0705 8.3598ZM55.7966 11.0946C54.8248 11.0946 54.025 10.785 53.3972 10.1744C52.7694 9.5552 52.4598 8.7726 52.4598 7.8266C52.4598 6.872 52.7866 6.0808 53.4316 5.4616C54.0766 4.8424 54.885 4.5328 55.8396 4.5328C56.863 4.5328 57.7918 4.937 58.3766 5.5218L57.465 6.5538C57.0006 6.1152 56.4588 5.9002 55.831 5.9002C55.272 5.9002 54.8162 6.0808 54.455 6.4506C54.0938 6.8118 53.9132 7.2676 53.9132 7.8094C53.9132 8.3512 54.0938 8.807 54.4464 9.1768C54.799 9.5466 55.2634 9.7358 55.8224 9.7358C56.4416 9.7358 57.0522 9.4778 57.4048 9.1338V8.4028H55.788V7.1816H58.6948V9.8562C57.8692 10.6818 56.906 11.0946 55.7966 11.0946ZM64.4365 11H59.3797V9.9594L62.4155 5.9518H59.5001V4.6446H64.3419V5.7368L61.3749 9.6928H64.4365V11ZM66.8541 11H65.4351V4.6446H66.8541V7.13H69.3309V4.6446H70.7585V11H69.3309V8.4974H66.8541V11ZM71.7508 7.8352C71.7508 6.915 72.069 6.1324 72.7054 5.496C73.3504 4.851 74.133 4.5328 75.0704 4.5328C76.0078 4.5328 76.7904 4.851 77.4268 5.496C78.0718 6.1324 78.39 6.9064 78.39 7.8266C78.39 8.7468 78.0718 9.5208 77.4354 10.1572C76.799 10.785 76.0078 11.1032 75.0618 11.1032C74.1158 11.1032 73.3246 10.785 72.6968 10.1572C72.069 9.5294 71.7508 8.7554 71.7508 7.8352ZM75.0704 9.7014C75.595 9.7014 76.0336 9.5208 76.3862 9.1682C76.7388 8.807 76.9194 8.3598 76.9108 7.8266C76.9022 7.2848 76.7216 6.829 76.369 6.4764C76.0164 6.1152 75.5778 5.9346 75.0704 5.9346C74.5544 5.9346 74.1158 6.1152 73.7632 6.4764C73.4106 6.8376 73.23 7.2848 73.23 7.8266C73.23 8.3598 73.4106 8.807 73.7632 9.1682C74.1158 9.5208 74.5544 9.7014 75.0704 9.7014ZM81.8533 11.1118C81.1309 11.1118 80.5289 10.9054 80.0387 10.484C79.5485 10.0626 79.3077 9.4434 79.3077 8.6092V4.6446H80.7353V8.549C80.7353 9.3402 81.1739 9.7358 81.8533 9.7358C82.5155 9.7358 82.9627 9.3316 82.9627 8.549V4.6446H84.3903V8.6092C84.3903 9.4434 84.1495 10.0626 83.6679 10.484C83.1863 10.9054 82.5843 11.1118 81.8533 11.1118Z"/>
</mask>
<path d="M3.66751 11.0946C2.69571 11.0946 1.89591 10.785 1.26811 10.1744C0.640306 9.5552 0.330706 8.7726 0.330706 7.8266C0.330706 6.872 0.657506 6.0808 1.30251 5.4616C1.94751 4.8424 2.75591 4.5328 3.71051 4.5328C4.73391 4.5328 5.66271 4.937 6.24751 5.5218L5.33591 6.5538C4.87151 6.1152 4.32971 5.9002 3.70191 5.9002C3.14291 5.9002 2.68711 6.0808 2.32591 6.4506C1.96471 6.8118 1.78411 7.2676 1.78411 7.8094C1.78411 8.3512 1.96471 8.807 2.31731 9.1768C2.66991 9.5466 3.13431 9.7358 3.69331 9.7358C4.31251 9.7358 4.92311 9.4778 5.27571 9.1338V8.4028H3.65891V7.1816H6.56571V9.8562C5.74011 10.6818 4.77691 11.0946 3.66751 11.0946ZM7.27601 7.8352C7.27601 6.915 7.59421 6.1324 8.23061 5.496C8.87561 4.851 9.65821 4.5328 10.5956 4.5328C11.533 4.5328 12.3156 4.851 12.952 5.496C13.597 6.1324 13.9152 6.9064 13.9152 7.8266C13.9152 8.7468 13.597 9.5208 12.9606 10.1572C12.3242 10.785 11.533 11.1032 10.587 11.1032C9.64101 11.1032 8.84981 10.785 8.22201 10.1572C7.59421 9.5294 7.27601 8.7554 7.27601 7.8352ZM10.5956 9.7014C11.1202 9.7014 11.5588 9.5208 11.9114 9.1682C12.264 8.807 12.4446 8.3598 12.436 7.8266C12.4274 7.2848 12.2468 6.829 11.8942 6.4764C11.5416 6.1152 11.103 5.9346 10.5956 5.9346C10.0796 5.9346 9.64101 6.1152 9.28841 6.4764C8.93581 6.8376 8.75521 7.2848 8.75521 7.8266C8.75521 8.3598 8.93581 8.807 9.28841 9.1682C9.64101 9.5208 10.0796 9.7014 10.5956 9.7014ZM16.7953 11.1118C15.7891 11.1118 14.8861 10.7076 14.3013 9.9594L15.0753 8.9446C15.5483 9.5036 16.1245 9.7874 16.8039 9.7874C17.2855 9.7874 17.6381 9.5638 17.6381 9.2112C17.6381 8.979 17.4575 8.7812 17.0877 8.6178L16.5201 8.4114C16.1589 8.2738 15.8837 8.1534 15.7031 8.0588C15.0237 7.689 14.6797 7.1472 14.6797 6.4506C14.6797 5.9002 14.8861 5.4444 15.3075 5.0832C15.7289 4.722 16.2793 4.5414 16.9415 4.5414C17.7843 4.5414 18.5067 4.8252 19.1001 5.3842L18.3949 6.442C18.0251 6.0894 17.4317 5.8744 16.9587 5.8744C16.4771 5.8744 16.2019 6.0894 16.2019 6.399C16.2019 6.614 16.3739 6.8032 16.7179 6.958L17.3371 7.2074C17.6639 7.3364 17.9047 7.431 18.0681 7.5084C18.8335 7.8524 19.2119 8.3942 19.2119 9.1252C19.2119 9.7014 18.9883 10.183 18.5411 10.5528C18.1025 10.9226 17.5177 11.1118 16.7953 11.1118ZM20.1759 11V4.6446H21.6035V11H20.1759ZM24.3492 11H22.9474V4.6446H23.945L26.3444 8.1018L28.7266 4.6446H29.7414V11H28.3224V7.6374L26.5938 10.1056H26.0778L24.3492 7.6374V11ZM34.6293 11H33.2103V4.6446H34.6293V7.13H37.1061V4.6446H38.5337V11H37.1061V8.4974H34.6293V11ZM45.202 11H43.7228L43.3014 9.7186H41.1686L40.73 11H39.2508L41.633 4.6446H42.8714L45.202 11ZM42.923 8.4716L42.2436 6.4592L41.5556 8.4716H42.923ZM50.0705 8.3598V4.6446H51.4637V11H50.4403L47.3357 7.3192V11H45.9339V4.6446H46.8971L50.0705 8.3598ZM55.7966 11.0946C54.8248 11.0946 54.025 10.785 53.3972 10.1744C52.7694 9.5552 52.4598 8.7726 52.4598 7.8266C52.4598 6.872 52.7866 6.0808 53.4316 5.4616C54.0766 4.8424 54.885 4.5328 55.8396 4.5328C56.863 4.5328 57.7918 4.937 58.3766 5.5218L57.465 6.5538C57.0006 6.1152 56.4588 5.9002 55.831 5.9002C55.272 5.9002 54.8162 6.0808 54.455 6.4506C54.0938 6.8118 53.9132 7.2676 53.9132 7.8094C53.9132 8.3512 54.0938 8.807 54.4464 9.1768C54.799 9.5466 55.2634 9.7358 55.8224 9.7358C56.4416 9.7358 57.0522 9.4778 57.4048 9.1338V8.4028H55.788V7.1816H58.6948V9.8562C57.8692 10.6818 56.906 11.0946 55.7966 11.0946ZM64.4365 11H59.3797V9.9594L62.4155 5.9518H59.5001V4.6446H64.3419V5.7368L61.3749 9.6928H64.4365V11ZM66.8541 11H65.4351V4.6446H66.8541V7.13H69.3309V4.6446H70.7585V11H69.3309V8.4974H66.8541V11ZM71.7508 7.8352C71.7508 6.915 72.069 6.1324 72.7054 5.496C73.3504 4.851 74.133 4.5328 75.0704 4.5328C76.0078 4.5328 76.7904 4.851 77.4268 5.496C78.0718 6.1324 78.39 6.9064 78.39 7.8266C78.39 8.7468 78.0718 9.5208 77.4354 10.1572C76.799 10.785 76.0078 11.1032 75.0618 11.1032C74.1158 11.1032 73.3246 10.785 72.6968 10.1572C72.069 9.5294 71.7508 8.7554 71.7508 7.8352ZM75.0704 9.7014C75.595 9.7014 76.0336 9.5208 76.3862 9.1682C76.7388 8.807 76.9194 8.3598 76.9108 7.8266C76.9022 7.2848 76.7216 6.829 76.369 6.4764C76.0164 6.1152 75.5778 5.9346 75.0704 5.9346C74.5544 5.9346 74.1158 6.1152 73.7632 6.4764C73.4106 6.8376 73.23 7.2848 73.23 7.8266C73.23 8.3598 73.4106 8.807 73.7632 9.1682C74.1158 9.5208 74.5544 9.7014 75.0704 9.7014ZM81.8533 11.1118C81.1309 11.1118 80.5289 10.9054 80.0387 10.484C79.5485 10.0626 79.3077 9.4434 79.3077 8.6092V4.6446H80.7353V8.549C80.7353 9.3402 81.1739 9.7358 81.8533 9.7358C82.5155 9.7358 82.9627 9.3316 82.9627 8.549V4.6446H84.3903V8.6092C84.3903 9.4434 84.1495 10.0626 83.6679 10.484C83.1863 10.9054 82.5843 11.1118 81.8533 11.1118Z" fill="#749FA5"/>
<path d="M1.26811 10.1744L1.19788 10.2456L1.19838 10.2461L1.26811 10.1744ZM1.30251 5.4616L1.23325 5.38946L1.23325 5.38946L1.30251 5.4616ZM6.24751 5.5218L6.32245 5.588L6.38468 5.51755L6.31822 5.45109L6.24751 5.5218ZM5.33591 6.5538L5.26724 6.6265L5.34241 6.69749L5.41085 6.62L5.33591 6.5538ZM2.32591 6.4506L2.39662 6.52131L2.39744 6.52047L2.32591 6.4506ZM2.31731 9.1768L2.38968 9.10779L2.38968 9.10779L2.31731 9.1768ZM5.27571 9.1338L5.34554 9.20538L5.37571 9.17595V9.1338H5.27571ZM5.27571 8.4028H5.37571V8.3028H5.27571V8.4028ZM3.65891 8.4028H3.55891V8.5028H3.65891V8.4028ZM3.65891 7.1816V7.0816H3.55891V7.1816H3.65891ZM6.56571 7.1816H6.66571V7.0816H6.56571V7.1816ZM6.56571 9.8562L6.63642 9.92691L6.66571 9.89762V9.8562H6.56571ZM3.66751 11.0946V10.9946C2.71899 10.9946 1.94507 10.6933 1.33783 10.1027L1.26811 10.1744L1.19838 10.2461C1.84674 10.8767 2.67243 11.1946 3.66751 11.1946V11.0946ZM1.26811 10.1744L1.33833 10.1032C0.7313 9.50449 0.430706 8.74836 0.430706 7.8266H0.330706H0.230706C0.230706 8.79684 0.549312 9.60591 1.19788 10.2456L1.26811 10.1744ZM0.330706 7.8266H0.430706C0.430706 6.89738 0.747697 6.13284 1.37176 5.53374L1.30251 5.4616L1.23325 5.38946C0.567315 6.02876 0.230706 6.84662 0.230706 7.8266H0.330706ZM1.30251 5.4616L1.37176 5.53374C1.99661 4.93388 2.77953 4.6328 3.71051 4.6328V4.5328V4.4328C2.73228 4.4328 1.8984 4.75092 1.23325 5.38946L1.30251 5.4616ZM3.71051 4.5328V4.6328C4.70892 4.6328 5.61181 5.02752 6.1768 5.59251L6.24751 5.5218L6.31822 5.45109C5.71361 4.84648 4.7589 4.4328 3.71051 4.4328V4.5328ZM6.24751 5.5218L6.17256 5.4556L5.26096 6.4876L5.33591 6.5538L5.41085 6.62L6.32245 5.588L6.24751 5.5218ZM5.33591 6.5538L5.40457 6.4811C4.92175 6.02511 4.35544 5.8002 3.70191 5.8002V5.9002V6.0002C4.30397 6.0002 4.82126 6.20529 5.26724 6.6265L5.33591 6.5538ZM3.70191 5.9002V5.8002C3.11877 5.8002 2.63625 5.98975 2.25437 6.38073L2.32591 6.4506L2.39744 6.52047C2.73796 6.17185 3.16704 6.0002 3.70191 6.0002V5.9002ZM2.32591 6.4506L2.2552 6.37989C1.87385 6.76123 1.68411 7.24311 1.68411 7.8094H1.78411H1.88411C1.88411 7.29209 2.05556 6.86237 2.39662 6.52131L2.32591 6.4506ZM1.78411 7.8094H1.68411C1.68411 8.37579 1.87385 8.85662 2.24493 9.24581L2.31731 9.1768L2.38968 9.10779C2.05556 8.75738 1.88411 8.32661 1.88411 7.8094H1.78411ZM2.31731 9.1768L2.24493 9.24581C2.61821 9.6373 3.1097 9.8358 3.69331 9.8358V9.7358V9.6358C3.15892 9.6358 2.7216 9.4559 2.38968 9.10779L2.31731 9.1768ZM3.69331 9.7358V9.8358C4.33673 9.8358 4.97296 9.56887 5.34554 9.20538L5.27571 9.1338L5.20587 9.06222C4.87325 9.38673 4.28828 9.6358 3.69331 9.6358V9.7358ZM5.27571 9.1338H5.37571V8.4028H5.27571H5.17571V9.1338H5.27571ZM5.27571 8.4028V8.3028H3.65891V8.4028V8.5028H5.27571V8.4028ZM3.65891 8.4028H3.75891V7.1816H3.65891H3.55891V8.4028H3.65891ZM3.65891 7.1816V7.2816H6.56571V7.1816V7.0816H3.65891V7.1816ZM6.56571 7.1816H6.46571V9.8562H6.56571H6.66571V7.1816H6.56571ZM6.56571 9.8562L6.495 9.78549C5.68697 10.5935 4.74876 10.9946 3.66751 10.9946V11.0946V11.1946C4.80505 11.1946 5.79324 10.7701 6.63642 9.92691L6.56571 9.8562ZM8.23061 5.496L8.1599 5.42529L8.1599 5.42529L8.23061 5.496ZM12.952 5.496L12.8808 5.56624L12.8818 5.56718L12.952 5.496ZM12.9606 10.1572L13.0308 10.2284L13.0313 10.2279L12.9606 10.1572ZM8.22201 10.1572L8.1513 10.2279L8.1513 10.2279L8.22201 10.1572ZM11.9114 9.1682L11.9821 9.23892L11.983 9.23805L11.9114 9.1682ZM12.436 7.8266L12.336 7.82819L12.336 7.82821L12.436 7.8266ZM11.8942 6.4764L11.8227 6.54626L11.8235 6.54711L11.8942 6.4764ZM9.28841 6.4764L9.35997 6.54625L9.35997 6.54625L9.28841 6.4764ZM9.28841 9.1682L9.21685 9.23806L9.2177 9.23891L9.28841 9.1682ZM7.27601 7.8352H7.37601C7.37601 6.94071 7.68424 6.18379 8.30132 5.56671L8.23061 5.496L8.1599 5.42529C7.50418 6.08101 7.17601 6.88929 7.17601 7.8352H7.27601ZM8.23061 5.496L8.30132 5.56671C8.92695 4.94108 9.68385 4.6328 10.5956 4.6328V4.5328V4.4328C9.63258 4.4328 8.82427 4.76092 8.1599 5.42529L8.23061 5.496ZM10.5956 4.5328V4.6328C11.5075 4.6328 12.2641 4.94114 12.8808 5.56623L12.952 5.496L13.0232 5.42576C12.3672 4.76086 11.5585 4.4328 10.5956 4.4328V4.5328ZM12.952 5.496L12.8818 5.56718C13.5073 6.18433 13.8152 6.93248 13.8152 7.8266H13.9152H14.0152C14.0152 6.88032 13.6868 6.08047 13.0222 5.42482L12.952 5.496ZM13.9152 7.8266H13.8152C13.8152 8.7208 13.5072 9.46921 12.8899 10.0865L12.9606 10.1572L13.0313 10.2279C13.6868 9.57239 14.0152 8.7728 14.0152 7.8266H13.9152ZM12.9606 10.1572L12.8904 10.086C12.2736 10.6944 11.5081 11.0032 10.587 11.0032V11.1032V11.2032C11.5579 11.2032 12.3748 10.8756 13.0308 10.2284L12.9606 10.1572ZM10.587 11.1032V11.0032C9.66582 11.0032 8.90059 10.6944 8.29272 10.0865L8.22201 10.1572L8.1513 10.2279C8.79904 10.8756 9.61621 11.2032 10.587 11.2032V11.1032ZM8.22201 10.1572L8.29272 10.0865C7.68419 9.47795 7.37601 8.72961 7.37601 7.8352H7.27601H7.17601C7.17601 8.78119 7.50424 9.58085 8.1513 10.2279L8.22201 10.1572ZM10.5956 9.7014V9.8014C11.1458 9.8014 11.6101 9.6109 11.9821 9.23891L11.9114 9.1682L11.8407 9.09749C11.5075 9.4307 11.0946 9.6014 10.5956 9.6014V9.7014ZM11.9114 9.1682L11.983 9.23805C12.3545 8.85746 12.545 8.3844 12.536 7.82499L12.436 7.8266L12.336 7.82821C12.3442 8.3352 12.1735 8.75654 11.8399 9.09835L11.9114 9.1682ZM12.436 7.8266L12.536 7.82501C12.527 7.26021 12.3379 6.77865 11.9649 6.40569L11.8942 6.4764L11.8235 6.54711C12.1557 6.87935 12.3278 7.30939 12.336 7.82819L12.436 7.8266ZM11.8942 6.4764L11.9658 6.40655C11.5939 6.02559 11.1293 5.8346 10.5956 5.8346V5.9346V6.0346C11.0767 6.0346 11.4893 6.20481 11.8227 6.54625L11.8942 6.4764ZM10.5956 5.9346V5.8346C10.0536 5.8346 9.58891 6.02541 9.21686 6.40655L9.28841 6.4764L9.35997 6.54625C9.69311 6.20499 10.1056 6.0346 10.5956 6.0346V5.9346ZM9.28841 6.4764L9.21686 6.40655C8.84516 6.78731 8.65521 7.25995 8.65521 7.8266H8.75521H8.85521C8.85521 7.30965 9.02647 6.88789 9.35997 6.54625L9.28841 6.4764ZM8.75521 7.8266H8.65521C8.65521 8.38489 8.84532 8.85746 9.21686 9.23805L9.28841 9.1682L9.35997 9.09835C9.0263 8.75654 8.85521 8.33471 8.85521 7.8266H8.75521ZM9.28841 9.1682L9.2177 9.23891C9.58952 9.61073 10.0538 9.8014 10.5956 9.8014V9.7014V9.6014C10.1055 9.6014 9.69251 9.43087 9.35912 9.09749L9.28841 9.1682ZM14.3013 9.9594L14.2218 9.89875L14.1749 9.96015L14.2225 10.021L14.3013 9.9594ZM15.0753 8.9446L15.1516 8.88001L15.0712 8.78501L14.9958 8.88395L15.0753 8.9446ZM17.0877 8.6178L17.1282 8.52612L17.1218 8.52382L17.0877 8.6178ZM16.5201 8.4114L16.4845 8.50486L16.4859 8.50538L16.5201 8.4114ZM15.7031 8.0588L15.6553 8.14664L15.6567 8.14738L15.7031 8.0588ZM15.3075 5.0832L15.2424 5.00727L15.2424 5.00727L15.3075 5.0832ZM19.1001 5.3842L19.1833 5.43967L19.2302 5.36936L19.1686 5.31141L19.1001 5.3842ZM18.3949 6.442L18.3259 6.51437L18.412 6.59653L18.4781 6.49747L18.3949 6.442ZM16.7179 6.958L16.6768 7.04926L16.6805 7.05076L16.7179 6.958ZM17.3371 7.2074L17.2997 7.30016L17.3004 7.30042L17.3371 7.2074ZM18.0681 7.5084L18.0253 7.59879L18.0271 7.59961L18.0681 7.5084ZM18.5411 10.5528L18.4773 10.4757L18.4766 10.4763L18.5411 10.5528ZM16.7953 11.1118V11.0118C15.8162 11.0118 14.9438 10.619 14.3801 9.89782L14.3013 9.9594L14.2225 10.021C14.8284 10.7962 15.7619 11.2118 16.7953 11.2118V11.1118ZM14.3013 9.9594L14.3808 10.02L15.1548 9.00524L15.0753 8.9446L14.9958 8.88395L14.2218 9.89875L14.3013 9.9594ZM15.0753 8.9446L14.9989 9.00919C15.489 9.58831 16.0921 9.8874 16.8039 9.8874V9.7874V9.6874C16.1568 9.6874 15.6076 9.41889 15.1516 8.88001L15.0753 8.9446ZM16.8039 9.7874V9.8874C17.0587 9.8874 17.2883 9.82844 17.4575 9.71445C17.6291 9.59877 17.7381 9.4256 17.7381 9.2112H17.6381H17.5381C17.5381 9.3494 17.4707 9.46433 17.3457 9.5486C17.2181 9.63456 17.0306 9.6874 16.8039 9.6874V9.7874ZM17.6381 9.2112H17.7381C17.7381 8.91618 17.5065 8.69355 17.1281 8.52633L17.0877 8.6178L17.0473 8.70927C17.4084 8.86885 17.5381 9.04182 17.5381 9.2112H17.6381ZM17.0877 8.6178L17.1218 8.52382L16.5542 8.31742L16.5201 8.4114L16.4859 8.50538L17.0535 8.71178L17.0877 8.6178ZM16.5201 8.4114L16.5557 8.31795C16.1961 8.18098 15.9251 8.06219 15.7495 7.97022L15.7031 8.0588L15.6567 8.14738C15.8423 8.24461 16.1216 8.36662 16.4845 8.50485L16.5201 8.4114ZM15.7031 8.0588L15.7509 7.97097C15.0994 7.61637 14.7797 7.10599 14.7797 6.4506H14.6797H14.5797C14.5797 7.18841 14.9479 7.76163 15.6553 8.14663L15.7031 8.0588ZM14.6797 6.4506H14.7797C14.7797 5.9291 14.9735 5.50114 15.3726 5.15913L15.3075 5.0832L15.2424 5.00727C14.7986 5.38766 14.5797 5.8713 14.5797 6.4506H14.6797ZM15.3075 5.0832L15.3726 5.15913C15.7722 4.81654 16.2979 4.6414 16.9415 4.6414V4.5414V4.4414C16.2606 4.4414 15.6855 4.62746 15.2424 5.00727L15.3075 5.0832ZM16.9415 4.5414V4.6414C17.7595 4.6414 18.4572 4.91596 19.0315 5.45699L19.1001 5.3842L19.1686 5.31141C18.5562 4.73444 17.809 4.4414 16.9415 4.4414V4.5414ZM19.1001 5.3842L19.0169 5.32873L18.3117 6.38653L18.3949 6.442L18.4781 6.49747L19.1833 5.43967L19.1001 5.3842ZM18.3949 6.442L18.4639 6.36963C18.0742 5.99805 17.4555 5.7744 16.9587 5.7744V5.8744V5.9744C17.4078 5.9744 17.976 6.18075 18.3259 6.51437L18.3949 6.442ZM16.9587 5.8744V5.7744C16.7045 5.7744 16.4926 5.83095 16.3414 5.93932C16.1871 6.04988 16.1019 6.21084 16.1019 6.399H16.2019H16.3019C16.3019 6.27756 16.3542 6.17622 16.4579 6.10188C16.5647 6.02535 16.7313 5.9744 16.9587 5.9744V5.8744ZM16.2019 6.399H16.1019C16.1019 6.67662 16.3246 6.89068 16.6768 7.04919L16.7179 6.958L16.7589 6.86681C16.4232 6.71572 16.3019 6.55138 16.3019 6.399H16.2019ZM16.7179 6.958L16.6805 7.05076L17.2997 7.30016L17.3371 7.2074L17.3744 7.11464L16.7552 6.86524L16.7179 6.958ZM17.3371 7.2074L17.3004 7.30042C17.6288 7.43008 17.8657 7.52317 18.0253 7.59877L18.0681 7.5084L18.1109 7.41803C17.9437 7.33883 17.6989 7.24272 17.3738 7.11438L17.3371 7.2074ZM18.0681 7.5084L18.0271 7.59961C18.3977 7.76616 18.6677 7.97748 18.8453 8.2293C19.0223 8.48036 19.1119 8.77788 19.1119 9.1252H19.2119H19.3119C19.3119 8.74152 19.2122 8.40264 19.0087 8.11404C18.8058 7.82622 18.5039 7.59464 18.1091 7.41719L18.0681 7.5084ZM19.2119 9.1252H19.1119C19.1119 9.67186 18.9014 10.1251 18.4773 10.4757L18.5411 10.5528L18.6048 10.6299C19.0752 10.2409 19.3119 9.73094 19.3119 9.1252H19.2119ZM18.5411 10.5528L18.4766 10.4763C18.0601 10.8275 17.5 11.0118 16.7953 11.0118V11.1118V11.2118C17.5353 11.2118 18.1448 11.0177 18.6055 10.6293L18.5411 10.5528ZM20.1759 11H20.0759V11.1H20.1759V11ZM20.1759 4.6446V4.5446H20.0759V4.6446H20.1759ZM21.6035 4.6446H21.7035V4.5446H21.6035V4.6446ZM21.6035 11V11.1H21.7035V11H21.6035ZM20.1759 11H20.2759V4.6446H20.1759H20.0759V11H20.1759ZM20.1759 4.6446V4.7446H21.6035V4.6446V4.5446H20.1759V4.6446ZM21.6035 4.6446H21.5035V11H21.6035H21.7035V4.6446H21.6035ZM21.6035 11V10.9H20.1759V11V11.1H21.6035V11ZM24.3492 11V11.1H24.4492V11H24.3492ZM22.9474 11H22.8474V11.1H22.9474V11ZM22.9474 4.6446V4.5446H22.8474V4.6446H22.9474ZM23.945 4.6446L24.0271 4.58758L23.9973 4.5446H23.945V4.6446ZM26.3444 8.1018L26.2622 8.15882L26.3447 8.27761L26.4267 8.15854L26.3444 8.1018ZM28.7266 4.6446V4.5446H28.674L28.6442 4.58786L28.7266 4.6446ZM29.7414 4.6446H29.8414V4.5446H29.7414V4.6446ZM29.7414 11V11.1H29.8414V11H29.7414ZM28.3224 11H28.2224V11.1H28.3224V11ZM28.3224 7.6374H28.4224V7.32029L28.2405 7.58003L28.3224 7.6374ZM26.5938 10.1056V10.2056H26.6458L26.6757 10.163L26.5938 10.1056ZM26.0778 10.1056L25.9959 10.163L26.0257 10.2056H26.0778V10.1056ZM24.3492 7.6374L24.4311 7.58003L24.2492 7.32029V7.6374H24.3492ZM24.3492 11V10.9H22.9474V11V11.1H24.3492V11ZM22.9474 11H23.0474V4.6446H22.9474H22.8474V11H22.9474ZM22.9474 4.6446V4.7446H23.945V4.6446V4.5446H22.9474V4.6446ZM23.945 4.6446L23.8628 4.70162L26.2622 8.15882L26.3444 8.1018L26.4265 8.04478L24.0271 4.58758L23.945 4.6446ZM26.3444 8.1018L26.4267 8.15854L28.8089 4.70134L28.7266 4.6446L28.6442 4.58786L26.262 8.04506L26.3444 8.1018ZM28.7266 4.6446V4.7446H29.7414V4.6446V4.5446H28.7266V4.6446ZM29.7414 4.6446H29.6414V11H29.7414H29.8414V4.6446H29.7414ZM29.7414 11V10.9H28.3224V11V11.1H29.7414V11ZM28.3224 11H28.4224V7.6374H28.3224H28.2224V11H28.3224ZM28.3224 7.6374L28.2405 7.58003L26.5119 10.0482L26.5938 10.1056L26.6757 10.163L28.4043 7.69476L28.3224 7.6374ZM26.5938 10.1056V10.0056H26.0778V10.1056V10.2056H26.5938V10.1056ZM26.0778 10.1056L26.1597 10.0482L24.4311 7.58003L24.3492 7.6374L24.2673 7.69476L25.9959 10.163L26.0778 10.1056ZM24.3492 7.6374H24.2492V11H24.3492H24.4492V7.6374H24.3492ZM34.6293 11V11.1H34.7293V11H34.6293ZM33.2103 11H33.1103V11.1H33.2103V11ZM33.2103 4.6446V4.5446H33.1103V4.6446H33.2103ZM34.6293 4.6446H34.7293V4.5446H34.6293V4.6446ZM34.6293 7.13H34.5293V7.23H34.6293V7.13ZM37.1061 7.13V7.23H37.2061V7.13H37.1061ZM37.1061 4.6446V4.5446H37.0061V4.6446H37.1061ZM38.5337 4.6446H38.6337V4.5446H38.5337V4.6446ZM38.5337 11V11.1H38.6337V11H38.5337ZM37.1061 11H37.0061V11.1H37.1061V11ZM37.1061 8.4974H37.2061V8.3974H37.1061V8.4974ZM34.6293 8.4974V8.3974H34.5293V8.4974H34.6293ZM34.6293 11V10.9H33.2103V11V11.1H34.6293V11ZM33.2103 11H33.3103V4.6446H33.2103H33.1103V11H33.2103ZM33.2103 4.6446V4.7446H34.6293V4.6446V4.5446H33.2103V4.6446ZM34.6293 4.6446H34.5293V7.13H34.6293H34.7293V4.6446H34.6293ZM34.6293 7.13V7.23H37.1061V7.13V7.03H34.6293V7.13ZM37.1061 7.13H37.2061V4.6446H37.1061H37.0061V7.13H37.1061ZM37.1061 4.6446V4.7446H38.5337V4.6446V4.5446H37.1061V4.6446ZM38.5337 4.6446H38.4337V11H38.5337H38.6337V4.6446H38.5337ZM38.5337 11V10.9H37.1061V11V11.1H38.5337V11ZM37.1061 11H37.2061V8.4974H37.1061H37.0061V11H37.1061ZM37.1061 8.4974V8.3974H34.6293V8.4974V8.5974H37.1061V8.4974ZM34.6293 8.4974H34.5293V11H34.6293H34.7293V8.4974H34.6293ZM45.202 11V11.1H45.3452L45.2959 10.9656L45.202 11ZM43.7228 11L43.6278 11.0312L43.6504 11.1H43.7228V11ZM43.3014 9.7186L43.3964 9.68736L43.3738 9.6186H43.3014V9.7186ZM41.1686 9.7186V9.6186H41.0971L41.074 9.68622L41.1686 9.7186ZM40.73 11V11.1H40.8015L40.8246 11.0324L40.73 11ZM39.2508 11L39.1572 10.9649L39.1065 11.1H39.2508V11ZM41.633 4.6446V4.5446H41.5637L41.5394 4.6095L41.633 4.6446ZM42.8714 4.6446L42.9653 4.61017L42.9413 4.5446H42.8714V4.6446ZM42.923 8.4716V8.5716H43.0623L43.0178 8.43961L42.923 8.4716ZM42.2436 6.4592L42.3384 6.42721L42.2442 6.14834L42.149 6.42685L42.2436 6.4592ZM41.5556 8.4716L41.461 8.43925L41.4157 8.5716H41.5556V8.4716ZM45.202 11V10.9H43.7228V11V11.1H45.202V11ZM43.7228 11L43.8178 10.9688L43.3964 9.68736L43.3014 9.7186L43.2064 9.74984L43.6278 11.0312L43.7228 11ZM43.3014 9.7186V9.6186H41.1686V9.7186V9.8186H43.3014V9.7186ZM41.1686 9.7186L41.074 9.68622L40.6354 10.9676L40.73 11L40.8246 11.0324L41.2632 9.75098L41.1686 9.7186ZM40.73 11V10.9H39.2508V11V11.1H40.73V11ZM39.2508 11L39.3445 11.0351L41.7267 4.6797L41.633 4.6446L41.5394 4.6095L39.1572 10.9649L39.2508 11ZM41.633 4.6446V4.7446H42.8714V4.6446V4.5446H41.633V4.6446ZM42.8714 4.6446L42.7775 4.67903L45.1081 11.0344L45.202 11L45.2959 10.9656L42.9653 4.61017L42.8714 4.6446ZM42.923 8.4716L43.0178 8.43961L42.3384 6.42721L42.2436 6.4592L42.1489 6.49119L42.8283 8.50359L42.923 8.4716ZM42.2436 6.4592L42.149 6.42685L41.461 8.43925L41.5556 8.4716L41.6502 8.50395L42.3382 6.49155L42.2436 6.4592ZM41.5556 8.4716V8.5716H42.923V8.4716V8.3716H41.5556V8.4716ZM50.0705 8.3598L49.9945 8.42475L50.1705 8.63084V8.3598H50.0705ZM50.0705 4.6446V4.5446H49.9705V4.6446H50.0705ZM51.4637 4.6446H51.5637V4.5446H51.4637V4.6446ZM51.4637 11V11.1H51.5637V11H51.4637ZM50.4403 11L50.3638 11.0645L50.3938 11.1H50.4403V11ZM47.3357 7.3192L47.4121 7.25473L47.2357 7.04554V7.3192H47.3357ZM47.3357 11V11.1H47.4357V11H47.3357ZM45.9339 11H45.8339V11.1H45.9339V11ZM45.9339 4.6446V4.5446H45.8339V4.6446H45.9339ZM46.8971 4.6446L46.9731 4.57965L46.9432 4.5446H46.8971V4.6446ZM50.0705 8.3598H50.1705V4.6446H50.0705H49.9705V8.3598H50.0705ZM50.0705 4.6446V4.7446H51.4637V4.6446V4.5446H50.0705V4.6446ZM51.4637 4.6446H51.3637V11H51.4637H51.5637V4.6446H51.4637ZM51.4637 11V10.9H50.4403V11V11.1H51.4637V11ZM50.4403 11L50.5167 10.9355L47.4121 7.25473L47.3357 7.3192L47.2592 7.38367L50.3638 11.0645L50.4403 11ZM47.3357 7.3192H47.2357V11H47.3357H47.4357V7.3192H47.3357ZM47.3357 11V10.9H45.9339V11V11.1H47.3357V11ZM45.9339 11H46.0339V4.6446H45.9339H45.8339V11H45.9339ZM45.9339 4.6446V4.7446H46.8971V4.6446V4.5446H45.9339V4.6446ZM46.8971 4.6446L46.8211 4.70955L49.9945 8.42475L50.0705 8.3598L50.1465 8.29485L46.9731 4.57965L46.8971 4.6446ZM53.3972 10.1744L53.327 10.2456L53.3275 10.2461L53.3972 10.1744ZM53.4316 5.4616L53.3624 5.38946L53.3624 5.38946L53.4316 5.4616ZM58.3766 5.5218L58.4516 5.588L58.5138 5.51755L58.4473 5.45109L58.3766 5.5218ZM57.465 6.5538L57.3963 6.6265L57.4715 6.69749L57.54 6.62L57.465 6.5538ZM54.455 6.4506L54.5257 6.52131L54.5265 6.52047L54.455 6.4506ZM54.4464 9.1768L54.5188 9.10779L54.5188 9.10779L54.4464 9.1768ZM57.4048 9.1338L57.4746 9.20538L57.5048 9.17595V9.1338H57.4048ZM57.4048 8.4028H57.5048V8.3028H57.4048V8.4028ZM55.788 8.4028H55.688V8.5028H55.788V8.4028ZM55.788 7.1816V7.0816H55.688V7.1816H55.788ZM58.6948 7.1816H58.7948V7.0816H58.6948V7.1816ZM58.6948 9.8562L58.7655 9.92691L58.7948 9.89762V9.8562H58.6948ZM55.7966 11.0946V10.9946C54.8481 10.9946 54.0742 10.6933 53.4669 10.1027L53.3972 10.1744L53.3275 10.2461C53.9758 10.8767 54.8015 11.1946 55.7966 11.1946V11.0946ZM53.3972 10.1744L53.4674 10.1032C52.8604 9.50449 52.5598 8.74836 52.5598 7.8266H52.4598H52.3598C52.3598 8.79684 52.6784 9.60591 53.327 10.2456L53.3972 10.1744ZM52.4598 7.8266H52.5598C52.5598 6.89738 52.8768 6.13284 53.5009 5.53374L53.4316 5.4616L53.3624 5.38946C52.6964 6.02876 52.3598 6.84662 52.3598 7.8266H52.4598ZM53.4316 5.4616L53.5009 5.53374C54.1257 4.93388 54.9086 4.6328 55.8396 4.6328V4.5328V4.4328C54.8614 4.4328 54.0275 4.75092 53.3624 5.38946L53.4316 5.4616ZM55.8396 4.5328V4.6328C56.838 4.6328 57.7409 5.02752 58.3059 5.59251L58.3766 5.5218L58.4473 5.45109C57.8427 4.84648 56.888 4.4328 55.8396 4.4328V4.5328ZM58.3766 5.5218L58.3017 5.4556L57.3901 6.4876L57.465 6.5538L57.54 6.62L58.4516 5.588L58.3766 5.5218ZM57.465 6.5538L57.5337 6.4811C57.0509 6.02511 56.4845 5.8002 55.831 5.8002V5.9002V6.0002C56.4331 6.0002 56.9504 6.20529 57.3963 6.6265L57.465 6.5538ZM55.831 5.9002V5.8002C55.2479 5.8002 54.7654 5.98975 54.3835 6.38073L54.455 6.4506L54.5265 6.52047C54.8671 6.17185 55.2961 6.0002 55.831 6.0002V5.9002ZM54.455 6.4506L54.3843 6.37989C54.003 6.76123 53.8132 7.24311 53.8132 7.8094H53.9132H54.0132C54.0132 7.29209 54.1847 6.86237 54.5257 6.52131L54.455 6.4506ZM53.9132 7.8094H53.8132C53.8132 8.37579 54.003 8.85662 54.374 9.24581L54.4464 9.1768L54.5188 9.10779C54.1847 8.75738 54.0132 8.32661 54.0132 7.8094H53.9132ZM54.4464 9.1768L54.374 9.24581C54.7473 9.6373 55.2388 9.8358 55.8224 9.8358V9.7358V9.6358C55.288 9.6358 54.8507 9.4559 54.5188 9.10779L54.4464 9.1768ZM55.8224 9.7358V9.8358C56.4658 9.8358 57.1021 9.56887 57.4746 9.20538L57.4048 9.1338L57.335 9.06222C57.0024 9.38673 56.4174 9.6358 55.8224 9.6358V9.7358ZM57.4048 9.1338H57.5048V8.4028H57.4048H57.3048V9.1338H57.4048ZM57.4048 8.4028V8.3028H55.788V8.4028V8.5028H57.4048V8.4028ZM55.788 8.4028H55.888V7.1816H55.788H55.688V8.4028H55.788ZM55.788 7.1816V7.2816H58.6948V7.1816V7.0816H55.788V7.1816ZM58.6948 7.1816H58.5948V9.8562H58.6948H58.7948V7.1816H58.6948ZM58.6948 9.8562L58.6241 9.78549C57.8161 10.5935 56.8779 10.9946 55.7966 10.9946V11.0946V11.1946C56.9342 11.1946 57.9223 10.7701 58.7655 9.92691L58.6948 9.8562ZM64.4365 11V11.1H64.5365V11H64.4365ZM59.3797 11H59.2797V11.1H59.3797V11ZM59.3797 9.9594L59.3 9.89902L59.2797 9.9258V9.9594H59.3797ZM62.4155 5.9518L62.4952 6.01218L62.6167 5.8518H62.4155V5.9518ZM59.5001 5.9518H59.4001V6.0518H59.5001V5.9518ZM59.5001 4.6446V4.5446H59.4001V4.6446H59.5001ZM64.3419 4.6446H64.4419V4.5446H64.3419V4.6446ZM64.3419 5.7368L64.4219 5.7968L64.4419 5.77013V5.7368H64.3419ZM61.3749 9.6928L61.2949 9.6328L61.1749 9.7928H61.3749V9.6928ZM64.4365 9.6928H64.5365V9.5928H64.4365V9.6928ZM64.4365 11V10.9H59.3797V11V11.1H64.4365V11ZM59.3797 11H59.4797V9.9594H59.3797H59.2797V11H59.3797ZM59.3797 9.9594L59.4594 10.0198L62.4952 6.01218L62.4155 5.9518L62.3358 5.89142L59.3 9.89902L59.3797 9.9594ZM62.4155 5.9518V5.8518H59.5001V5.9518V6.0518H62.4155V5.9518ZM59.5001 5.9518H59.6001V4.6446H59.5001H59.4001V5.9518H59.5001ZM59.5001 4.6446V4.7446H64.3419V4.6446V4.5446H59.5001V4.6446ZM64.3419 4.6446H64.2419V5.7368H64.3419H64.4419V4.6446H64.3419ZM64.3419 5.7368L64.2619 5.6768L61.2949 9.6328L61.3749 9.6928L61.4549 9.7528L64.4219 5.7968L64.3419 5.7368ZM61.3749 9.6928V9.7928H64.4365V9.6928V9.5928H61.3749V9.6928ZM64.4365 9.6928H64.3365V11H64.4365H64.5365V9.6928H64.4365ZM66.8541 11V11.1H66.9541V11H66.8541ZM65.4351 11H65.3351V11.1H65.4351V11ZM65.4351 4.6446V4.5446H65.3351V4.6446H65.4351ZM66.8541 4.6446H66.9541V4.5446H66.8541V4.6446ZM66.8541 7.13H66.7541V7.23H66.8541V7.13ZM69.3309 7.13V7.23H69.4309V7.13H69.3309ZM69.3309 4.6446V4.5446H69.2309V4.6446H69.3309ZM70.7585 4.6446H70.8585V4.5446H70.7585V4.6446ZM70.7585 11V11.1H70.8585V11H70.7585ZM69.3309 11H69.2309V11.1H69.3309V11ZM69.3309 8.4974H69.4309V8.3974H69.3309V8.4974ZM66.8541 8.4974V8.3974H66.7541V8.4974H66.8541ZM66.8541 11V10.9H65.4351V11V11.1H66.8541V11ZM65.4351 11H65.5351V4.6446H65.4351H65.3351V11H65.4351ZM65.4351 4.6446V4.7446H66.8541V4.6446V4.5446H65.4351V4.6446ZM66.8541 4.6446H66.7541V7.13H66.8541H66.9541V4.6446H66.8541ZM66.8541 7.13V7.23H69.3309V7.13V7.03H66.8541V7.13ZM69.3309 7.13H69.4309V4.6446H69.3309H69.2309V7.13H69.3309ZM69.3309 4.6446V4.7446H70.7585V4.6446V4.5446H69.3309V4.6446ZM70.7585 4.6446H70.6585V11H70.7585H70.8585V4.6446H70.7585ZM70.7585 11V10.9H69.3309V11V11.1H70.7585V11ZM69.3309 11H69.4309V8.4974H69.3309H69.2309V11H69.3309ZM69.3309 8.4974V8.3974H66.8541V8.4974V8.5974H69.3309V8.4974ZM66.8541 8.4974H66.7541V11H66.8541H66.9541V8.4974H66.8541ZM72.7054 5.496L72.6347 5.42529L72.6347 5.42529L72.7054 5.496ZM77.4268 5.496L77.3556 5.56624L77.3566 5.56718L77.4268 5.496ZM77.4354 10.1572L77.5056 10.2284L77.5061 10.2279L77.4354 10.1572ZM72.6968 10.1572L72.6261 10.2279L72.6261 10.2279L72.6968 10.1572ZM76.3862 9.1682L76.4569 9.23892L76.4578 9.23805L76.3862 9.1682ZM76.9108 7.8266L76.8108 7.82819L76.8108 7.82821L76.9108 7.8266ZM76.369 6.4764L76.2975 6.54626L76.2983 6.54711L76.369 6.4764ZM73.7632 6.4764L73.8348 6.54625L73.8348 6.54625L73.7632 6.4764ZM73.7632 9.1682L73.6917 9.23806L73.6925 9.23891L73.7632 9.1682ZM71.7508 7.8352H71.8508C71.8508 6.94071 72.159 6.18379 72.7761 5.56671L72.7054 5.496L72.6347 5.42529C71.979 6.08101 71.6508 6.88929 71.6508 7.8352H71.7508ZM72.7054 5.496L72.7761 5.56671C73.4018 4.94108 74.1587 4.6328 75.0704 4.6328V4.5328V4.4328C74.1074 4.4328 73.2991 4.76092 72.6347 5.42529L72.7054 5.496ZM75.0704 4.5328V4.6328C75.9823 4.6328 76.7389 4.94114 77.3556 5.56623L77.4268 5.496L77.498 5.42576C76.842 4.76086 76.0333 4.4328 75.0704 4.4328V4.5328ZM77.4268 5.496L77.3566 5.56718C77.9821 6.18433 78.29 6.93248 78.29 7.8266H78.39H78.49C78.49 6.88032 78.1616 6.08047 77.4971 5.42482L77.4268 5.496ZM78.39 7.8266H78.29C78.29 8.7208 77.982 9.46921 77.3647 10.0865L77.4354 10.1572L77.5061 10.2279C78.1617 9.57239 78.49 8.7728 78.49 7.8266H78.39ZM77.4354 10.1572L77.3652 10.086C76.7484 10.6944 75.9829 11.0032 75.0618 11.0032V11.1032V11.2032C76.0328 11.2032 76.8496 10.8756 77.5056 10.2284L77.4354 10.1572ZM75.0618 11.1032V11.0032C74.1406 11.0032 73.3754 10.6944 72.7675 10.0865L72.6968 10.1572L72.6261 10.2279C73.2738 10.8756 74.091 11.2032 75.0618 11.2032V11.1032ZM72.6968 10.1572L72.7675 10.0865C72.159 9.47795 71.8508 8.72961 71.8508 7.8352H71.7508H71.6508C71.6508 8.78119 71.979 9.58085 72.6261 10.2279L72.6968 10.1572ZM75.0704 9.7014V9.8014C75.6206 9.8014 76.0849 9.6109 76.4569 9.23891L76.3862 9.1682L76.3155 9.09749C75.9823 9.4307 75.5694 9.6014 75.0704 9.6014V9.7014ZM76.3862 9.1682L76.4578 9.23805C76.8293 8.85746 77.0198 8.3844 77.0108 7.82499L76.9108 7.8266L76.8108 7.82821C76.819 8.3352 76.6483 8.75654 76.3147 9.09835L76.3862 9.1682ZM76.9108 7.8266L77.0108 7.82501C77.0018 7.26021 76.8127 6.77865 76.4397 6.40569L76.369 6.4764L76.2983 6.54711C76.6305 6.87935 76.8026 7.30939 76.8108 7.82819L76.9108 7.8266ZM76.369 6.4764L76.4406 6.40655C76.0687 6.02559 75.6041 5.8346 75.0704 5.8346V5.9346V6.0346C75.5516 6.0346 75.9641 6.20481 76.2975 6.54625L76.369 6.4764ZM75.0704 5.9346V5.8346C74.5284 5.8346 74.0637 6.02541 73.6917 6.40655L73.7632 6.4764L73.8348 6.54625C74.1679 6.20499 74.5804 6.0346 75.0704 6.0346V5.9346ZM73.7632 6.4764L73.6917 6.40655C73.32 6.78731 73.13 7.25995 73.13 7.8266H73.23H73.33C73.33 7.30965 73.5013 6.88789 73.8348 6.54625L73.7632 6.4764ZM73.23 7.8266H73.13C73.13 8.38489 73.3201 8.85746 73.6917 9.23805L73.7632 9.1682L73.8348 9.09835C73.5011 8.75654 73.33 8.33471 73.33 7.8266H73.23ZM73.7632 9.1682L73.6925 9.23891C74.0643 9.61073 74.5286 9.8014 75.0704 9.8014V9.7014V9.6014C74.5803 9.6014 74.1673 9.43087 73.8339 9.09749L73.7632 9.1682ZM80.0387 10.484L79.9735 10.5598L79.9735 10.5598L80.0387 10.484ZM79.3077 4.6446V4.5446H79.2077V4.6446H79.3077ZM80.7353 4.6446H80.8353V4.5446H80.7353V4.6446ZM82.9627 4.6446V4.5446H82.8627V4.6446H82.9627ZM84.3903 4.6446H84.4903V4.5446H84.3903V4.6446ZM83.6679 10.484L83.7337 10.5593L83.6679 10.484ZM81.8533 11.1118V11.0118C81.1515 11.0118 80.5735 10.8119 80.1039 10.4082L80.0387 10.484L79.9735 10.5598C80.4842 10.9989 81.1103 11.2118 81.8533 11.2118V11.1118ZM80.0387 10.484L80.1039 10.4082C79.6419 10.011 79.4077 9.42343 79.4077 8.6092H79.3077H79.2077C79.2077 9.46337 79.4551 10.1142 79.9735 10.5598L80.0387 10.484ZM79.3077 8.6092H79.4077V4.6446H79.3077H79.2077V8.6092H79.3077ZM79.3077 4.6446V4.7446H80.7353V4.6446V4.5446H79.3077V4.6446ZM80.7353 4.6446H80.6353V8.549H80.7353H80.8353V4.6446H80.7353ZM80.7353 8.549H80.6353C80.6353 8.9627 80.7502 9.28763 80.9682 9.50923C81.1863 9.73095 81.4944 9.8358 81.8533 9.8358V9.7358V9.6358C81.5328 9.6358 81.2818 9.54285 81.1108 9.36897C80.9396 9.19497 80.8353 8.9265 80.8353 8.549H80.7353ZM81.8533 9.7358V9.8358C82.2048 9.8358 82.5103 9.72811 82.7278 9.50581C82.9451 9.28363 83.0627 8.95919 83.0627 8.549H82.9627H82.8627C82.8627 8.92141 82.7566 9.19037 82.5848 9.36594C82.4132 9.54139 82.164 9.6358 81.8533 9.6358V9.7358ZM82.9627 8.549H83.0627V4.6446H82.9627H82.8627V8.549H82.9627ZM82.9627 4.6446V4.7446H84.3903V4.6446V4.5446H82.9627V4.6446ZM84.3903 4.6446H84.2903V8.6092H84.3903H84.4903V4.6446H84.3903ZM84.3903 8.6092H84.2903C84.2903 9.4235 84.056 10.0115 83.602 10.4087L83.6679 10.484L83.7337 10.5593C84.2429 10.1137 84.4903 9.4633 84.4903 8.6092H84.3903ZM83.6679 10.484L83.602 10.4087C83.1414 10.8117 82.564 11.0118 81.8533 11.0118V11.1118V11.2118C82.6045 11.2118 83.2311 10.9991 83.7337 10.5593L83.6679 10.484Z" fill="#F4CB69" mask="url(#path-1-outside-1_429_4340)"/>
</g>
<defs>
<clipPath id="clip0_429_4340">
<rect width="85" height="15" fill="white"/>
</clipPath>
</defs>
</svg>
