<svg width="1024" height="1024" viewBox="0 0 1024 1024" fill="none" xmlns="http://www.w3.org/2000/svg">
<g clip-path="url(#clip0_4926_4550)">
<path d="M1024 525.451C1023.65 525.451 1023.35 525.451 1023 525.451C1023.05 520.101 1023.05 514.801 1023.1 509.451C1023.4 509.401 1023.7 509.401 1024 509.501C1024 514.801 1024 520.151 1024 525.451Z" fill="black"/>
<path d="M489.05 15.5498C497.85 -1.95016 523.1 -2.35069 533.4 14.6992C539 23.9492 544.3 33.4 549.75 42.75C553.25 48.7497 561.75 49.6997 566.4 44.5498C572.85 37.3999 579.3 30.1499 585.75 23C588.45 20.05 591.1 17.0492 594.6 14.9492C607.85 7.09922 624.6 12.5998 630.3 27.0498C634.05 36.4998 637 46.1999 640.3 55.7998C640.45 56.2498 640.55 56.7501 640.75 57.25C643.75 64.9995 641.7 63.8997 650.8 66.3496C653.75 67.1496 655.85 66.2498 658.1 64.5C666.75 57.75 675.4 50.9492 684.25 44.4492C690.3 39.9994 697.15 38.2999 704.6 40.2998C715.45 43.1998 721.55 50.5495 723.25 61.3994C724.85 71.3994 726.5 81.4996 727.05 91.5996C727.4 98.2996 731.35 100.75 736.3 103.05C738.25 103.95 739.85 102.899 741.5 102.149C751.45 97.4995 761.45 92.8994 771.35 88.1494C777 85.4495 782.85 84.7499 788.85 86.0498C799.5 88.3498 806.9 97.4996 806.95 108.85C807 118.65 806.3 128.5 805.9 138.3C805.8 140.45 805.85 142.65 805.5 144.8C804.85 148.55 806.55 150.85 809.2 153.3C812.7 156.55 815.95 157 820.45 155.8C830.9 152.95 841.45 150.55 852 148.3C866.05 145.25 879 154.4 880.65 168.3C881.05 171.85 880.4 175.25 879.55 178.649C876.95 189.149 874.5 199.699 871.75 210.149C871 213.049 871.2 215.299 873.35 217.399C874.05 218.099 874.7 218.9 875.2 219.75C876.65 222.1 878.6 222.95 881.45 222.8C890.1 222.35 898.75 222.1 907.4 221.8C910.75 221.7 914.051 221.55 917.4 221.55C934.7 221.7 945.7 237.75 939.3 253.899C935 264.749 929.6 275.1 924.55 285.6C921.45 292.05 925.25 299.799 932.4 300.899C943.1 302.549 953.8 303.9 964.5 305.5C978.7 307.65 987.75 319.9 985.2 333.399C984.35 337.949 982.1 341.799 979.4 345.449C973.1 353.999 966.7 362.549 960.45 371.199C956.15 377.149 959 385.7 965.9 388C975.85 391.3 985.85 394.55 995.8 397.85C1001.65 399.8 1006.65 403.049 1010.15 408.149C1016.35 417.149 1015.3 428.549 1007.6 437.149C1002.35 442.999 996.55 448.199 990.75 453.449C987.4 456.449 984.2 459.65 980.85 462.55C978.9 464.25 978.15 466.2 978.6 468.75C978.8 469.75 978.9 470.75 978.8 471.75C978.45 474.65 979.95 476.3 982.25 477.8C991.2 483.55 1000.4 489 1009.6 494.35C1012.9 496.3 1016.1 498.4 1018.65 501.35C1020.75 503.75 1022.7 506.25 1023.25 509.5C1024.15 514.05 1023.45 518.65 1023.65 523.25V524.75C1023.55 525.5 1023.25 526.15 1023.1 526.899C1022.95 527.349 1022.8 527.8 1022.55 528.25C1022.1 529.15 1021.65 530 1021.05 530.8C1013.05 540.2 1001.7 544.749 991.65 551.199C989.25 552.699 986.7 553.95 984.35 555.55C978.9 559.2 978 565.9 982.6 570.5C989.399 577.3 996.05 584.299 1003.35 590.699C1009.55 596.149 1014.6 602.45 1014.55 611.55C1014.45 622.75 1008.75 631.849 998.35 636.199C988.85 640.199 978.75 642.6 969 646.05C959.6 649.4 957.4 656 963.25 664.05C969.65 672.8 976.75 681 982.4 690.25C991.7 705.45 985.349 722.25 968.35 727.85C961.65 730.05 954.65 730.7 947.75 731.55C942.6 732.15 937.55 733.1 932.45 733.85C926.8 734.65 923.35 740.9 925.55 746.3C929.5 756 933.95 765.55 938.95 774.75C949.9 794.9 932.9 813.799 915.2 812.949C904.75 812.449 894.3 811.6 883.8 811.75C875.35 811.85 871.45 816.899 873.5 825.199C875.9 835.049 878.6 844.85 880.8 854.75C884.1 869.65 875.7 882.65 860.95 886.05C858.3 886.65 855.7 886.55 853.05 886C841.95 883.75 831 880.949 819.95 878.399C811.45 876.399 805.85 881.2 806.75 889.8C807.8 899.7 808.4 909.7 808.45 919.649C808.55 941.349 789.65 953.549 769.9 944.449C760.85 940.249 751.65 936.3 742.85 931.55C739.5 929.75 736.35 929.6 732.9 931.449C730.15 932.949 728.85 934.9 728.5 938.1C727.4 948.85 725.8 959.55 724.25 970.25C723.15 977.9 719.2 983.999 713 988.449C705.2 994.099 696.75 995 688.05 990.55C680.45 986.65 674.3 980.649 667.45 975.649C664.1 973.199 660.9 970.5 657.5 968.1C651.25 963.7 644.5 965.8 641.95 972.949C638.65 982.199 636.1 991.7 632.25 1000.75C630.4 1005.2 628.1 1009.35 624.85 1013.1C616.7 1022.55 598.95 1023.45 589.8 1013.95C584.15 1008.1 578.65 1002.05 573.3 995.949C570.55 992.799 567.75 989.75 564.65 987C560 982.85 553.85 983.7 550.6 989C545.55 997.2 540.95 1005.7 536.15 1014.1C533.85 1018.05 531 1021.45 527.45 1024.25H495.5C491.15 1022.15 489.3 1017.85 487.05 1014.05C482.4 1006.15 478.1 998.1 473.25 990.3C469.1 983.6 462.05 983.25 456.8 989.05C449.95 996.55 443.15 1004.1 436.4 1011.65C423.65 1025.9 399.55 1023.5 392.65 1003.7C389.15 993.649 385.6 983.6 382.1 973.55C379.7 966.55 372.55 964.2 366.6 968.55C358.25 974.65 350.1 980.95 341.8 987.05C335.25 991.85 328.1 994.5 319.8 992.55C309.85 990.2 303.15 984.3 300.65 974.3C298.2 964.45 297.55 954.249 296.4 944.199C296.2 942.399 295.75 940.55 295.75 938.75C295.75 931.5 287.85 928.3 281.9 930.949C272.35 935.249 263.1 940.199 253.5 944.449C244.3 948.549 235.55 949.3 227.05 943.3C217.8 936.8 214.7 927.549 215.7 916.699C216.6 907.449 217.1 898.149 217.35 888.85C217.55 880.25 212.45 876.4 204.2 878.35C194 880.75 183.85 883.5 173.6 885.6C153.9 889.649 138.9 874.349 143.15 854.699C145.35 844.599 148.35 834.749 150.9 824.699C152.7 817.549 148.75 811.7 141.55 811.8C131.9 811.95 122.25 812.3 112.7 813.35C102.05 814.5 93.2504 811.749 86.6504 803.149C80.5004 795.099 80.2002 786.399 83.9502 777.199C87.9002 767.499 92.8504 758.2 96.9004 748.55C100.3 740.45 97.0498 734.9 88.5498 733.6C78.85 732.15 69.1002 730.95 59.4004 729.6C36.1506 726.4 31.1502 701.55 42.0498 687.5C48.0498 679.75 53.5504 671.5 60.1504 664.25C65.6503 658.25 63.1001 648.6 55.1504 646.6C45.2004 644.1 35.3996 640.649 25.8496 636.699C7.40018 629.049 2.85024 607.3 17.0996 594C24.9996 586.6 33.2004 579.599 40.6504 571.699C46.55 565.399 45.6501 559.249 38.1504 555.199C28.5004 549.949 19.05 544.35 10 538.1C5.95007 535.3 2.69978 531.85 0.0498047 527.75C-0.000195302 520.8 1.1737e-08 514.149 1.1737e-08 507.449C1.24984 507.999 1.89962 507.25 2.34961 506.3C5.09961 500.65 10.0004 497.2 15.1504 494.05C23.6503 488.8 32.2002 483.649 40.7002 478.399C47.15 474.399 47.7996 467.15 42.0498 462C33.3998 454.2 24.8002 446.299 16.7002 437.949C11.0002 432.049 8.6004 425.099 9.65039 416.949C10.5005 410.449 13.95 405.499 19.2998 401.899C22.1998 399.949 25.4 398.55 28.75 397.5C38.6 394.35 48.35 391.05 58.25 388.05C61.2999 387.1 63.1495 385.5 63.5996 382.3C63.7496 381.3 63.9496 380.299 64.3496 379.399C65.5996 376.6 64.7001 374.35 62.9502 372.05C56.4502 363.4 50.0998 354.65 43.5498 346C39.6998 340.9 37.5 335.449 37.75 328.899C38.15 317.249 45.6004 308.25 57.1504 306.3C68.1503 304.5 79.2001 303.049 90.25 301.449C92.35 301.149 94.9004 301.399 96.1504 299.399C97.8502 296.75 99.2501 293.9 100.5 291C101 289.75 99.8498 288.5 99.2998 287.3C94.4499 276.55 89.45 265.8 84.75 255C81.65 247.9 81.6999 240.7 85.5498 233.85C89.4997 226.85 95.4498 222.6 103.6 222.25C109.25 222 114.9 222.35 120.55 222.55C127.55 222.8 134.55 223.05 141.5 223.55C144.65 223.8 147 222.999 148.85 220.399C149.35 219.75 149.9 219.05 150.55 218.55C153.5 216.4 153.35 213.7 152.55 210.55C149.7 199.75 147.25 188.849 144.2 178.149C139.1 160.499 154.5 144.65 171.8 148.5C182.85 150.95 193.85 153.55 204.9 156.05C206.95 156.5 209.201 157.95 211.15 156.55C213.7 154.75 216 152.55 218.25 150.3C219.2 149.3 218.75 147.749 218.7 146.449C218.3 135.949 217.85 125.5 217.5 115C217.4 112 217.35 109 217.5 106C218.3 92.7001 232 81.8502 247.85 86.5C249.9 87.1 251.85 88.1498 253.8 89.0498C263.65 93.4998 273.55 97.95 283.35 102.5C285.7 103.6 287.8 103.749 289.85 102.1C290 102 290.15 101.9 290.3 101.85C295.65 99.8496 297.5 95.8997 297.8 90.2998C298.25 80.85 299.35 71.3999 300.8 62C302.45 51.1001 308.3 43.6996 319.05 40.5996C326.65 38.3996 333.6 40.2994 339.9 44.6494C345.1 48.1994 350.05 52.2001 355.1 56C359.1 59 363.1 61.9496 367 65.0996C369 66.7496 371.05 67.2494 373.5 66.3994C374.45 66.0994 375.45 65.7992 376.4 65.6992C379.75 65.2991 381.55 63.4991 382.6 60.1992C385.8 50.0493 389.3 39.9494 392.75 29.8994C393.5 27.6996 394.35 25.4999 395.55 23.5C402.95 11.2 419 8.05001 430.75 16.5C433.35 18.35 435.5 20.6501 437.65 23C443.95 29.8498 450.35 36.6494 456.45 43.6992C458.95 46.5992 461.55 48.3492 465.45 47.4492C465.95 47.3493 466.45 47.2996 466.95 47.3496C470.6 47.6995 472.65 45.9997 474.3 42.75C479.05 33.6001 484.4 24.7497 489.05 15.5498ZM511.05 22.999C507.5 23.0992 506.25 26.0993 504.75 28.6992C498.35 39.7992 491.9 50.8498 485.65 62.0498C484.1 64.7997 482.25 66.0998 479 66.2998C471.85 66.6998 464.7 67.2495 457.65 68.3994C453.15 69.1494 450.251 67.949 447.351 64.499C439.051 54.749 430.451 45.249 421.851 35.749C417.101 30.4991 412.85 31.4994 410.45 38.1992C410.35 38.4992 410.25 38.8494 410.15 39.1494C406.1 51.2994 402.001 63.4495 398.101 75.6494C397.101 78.6494 395.55 80.399 392.45 81.249C385.4 83.199 378.35 85.1992 371.45 87.6992C367.5 89.1492 364.6 88.3992 361.4 85.9492C351.65 78.4492 341.75 71.1496 331.8 63.8496C324 58.0997 320.3 59.8494 319.2 69.4492C317.75 81.9992 316.001 94.5496 314.601 107.1C314.301 109.999 312.95 111.55 310.55 112.8C303.3 116.6 296.15 120.449 289.05 124.499C286.8 125.799 284.9 125.849 282.55 124.699C270.85 118.999 259.1 113.499 247.351 107.999C244.551 106.649 241.7 104.549 238.5 106.749C235.45 108.799 236.2 112.099 236.5 114.999C237.85 127.399 237.751 139.95 239.101 152.35C239.55 156.349 238.2 158.899 235.05 161.199C228.9 165.749 223.05 170.7 217.55 176.05C215.4 178.149 213.35 178.649 210.4 177.949C197.95 174.899 185.45 172.05 173 169.1C164.05 166.95 161.85 169.1 164.2 178.05C167.4 190.3 170.5 202.549 173.8 214.749C174.45 217.249 174.3 219.149 172.55 221.199C167.4 227.299 162.3 233.45 157.45 239.8C155.2 242.75 152.7 243.949 148.95 243.699C136.35 242.949 123.7 242.449 111.05 241.899C102.25 241.499 100.75 243.799 104.45 251.749C110.05 263.849 115.55 275.949 121.25 287.999C122.5 290.599 122.4 292.549 120.851 294.949C116.601 301.499 112.751 308.349 109.351 315.399C108.051 318.099 106.2 319.249 103.25 319.649C90.5501 321.349 77.9001 323.25 65.2002 325.1C56.7003 326.35 55.3002 329.849 60.5 336.699C60.8 337.099 61.1502 337.45 61.4502 337.85C69.1002 347.7 76.6502 357.649 84.4502 367.399C86.4502 369.949 86.7502 372.149 85.7002 375.149C83.0502 382.699 80.5998 390.299 78.2998 397.949C77.3498 401.149 75.6002 402.949 72.4004 403.949C65.7504 405.999 59.15 408.35 52.5 410.55C46.3501 412.6 40.0999 414.399 34 416.649C29.2501 418.399 28.4506 422.25 31.8506 426.05C33.2505 427.65 34.9002 429.1 36.5 430.55C45.4 438.8 54.25 447.15 63.25 455.3C65.3499 457.2 65.9506 459.199 65.6006 461.899C64.7006 469.149 63.7504 476.399 63.1504 483.699C62.8504 487.249 61.3498 489.399 58.2998 491.149C47.4999 497.349 36.7997 503.799 26.0498 510.149C24.4499 511.099 22.8503 511.95 21.6504 513.399C19.1504 516.299 19.3506 519.25 22.3506 521.6C23.2504 522.349 24.3 522.849 25.2998 523.449C36.2497 529.749 47.1501 536.199 58.25 542.249C61.5999 544.049 63.1499 546.299 63.25 549.999C63.5 556.849 64.4002 563.6 65.4502 570.35C66.0001 574.149 65.1999 576.949 62.25 579.649C52.9001 588.199 43.7503 596.949 34.6504 605.749C28.0504 612.099 28.9004 615.799 37.6504 618.699C49.6503 622.699 61.7001 626.649 73.75 630.449C76.5999 631.349 78.2 632.749 79 635.699C81.05 643.099 83.2998 650.399 85.7998 657.649C86.9498 660.899 86.3 663.2 84.25 665.85C76.1001 676.35 67.9997 686.95 60.0498 697.6C55.5001 703.749 57.2503 707.9 64.7002 709.1C65.0502 709.15 65.3502 709.149 65.7002 709.199C78.4002 710.849 91.1006 712.549 103.851 713.999C106.85 714.299 108.6 715.599 109.95 718.249C113.4 724.899 116.9 731.499 120.65 737.999C122.3 740.949 122.45 743.349 120.95 746.399C115.25 758.099 109.851 769.899 104.351 781.649C103.651 783.149 102.9 784.7 102.55 786.3C101.9 789.5 103.601 791.899 106.9 792.249C108.9 792.499 110.9 792.299 112.9 792.199C125.2 791.499 137.5 790.849 149.8 789.999C153.15 789.799 155.35 790.799 157.45 793.449C162.05 799.349 166.85 805.1 171.95 810.6C174.3 813.15 174.9 815.399 173.95 818.649C170.75 829.849 167.8 841.149 164.8 852.399C164.2 854.799 163.5 857.249 163.3 859.699C162.95 863.499 164.75 865.149 168.65 865.149C170.9 865.149 172.9 864.4 175 863.85C186.45 860.9 197.951 858.049 209.351 854.999C213.2 853.999 216.2 854.4 219.3 857.35C224.2 862.05 229.451 866.5 234.851 870.6C238.5 873.35 239.4 876.5 239 880.899C237.95 892.799 237.2 904.799 236.55 916.749C236 926.599 238.8 928.249 247.55 923.999C259.55 918.199 271.6 912.599 283.65 906.899C285.6 905.949 287.351 905.65 289.351 906.8C296.7 911 304.1 915.149 311.55 919.249C313.3 920.249 314.15 921.55 314.4 923.6C315.35 931.7 316.35 939.75 317.45 947.85C318.25 953.95 318.9 960.1 320.15 966.1C321.2 971.249 325.05 972.599 329.55 969.8C330.85 969 332 968.049 333.2 967.149C343 959.649 352.85 952.249 362.55 944.699C365.05 942.749 367.301 942.349 370.351 943.399C377.6 945.899 384.9 948.149 392.3 950.199C395.4 951.049 396.95 952.699 397.95 955.699C401.95 967.899 406.201 980 410.351 992.1C410.751 993.2 411.1 994.35 411.65 995.35C413.9 999.649 417.45 1000.25 420.9 996.899C422.3 995.499 423.6 993.999 424.95 992.499C432.95 983.599 441.05 974.749 448.95 965.749C451.15 963.199 453.45 962.3 456.75 962.8C464.15 963.9 471.6 964.799 479.05 965.399C482.3 965.649 484.1 967.049 485.65 969.749C491.95 980.699 498.3 991.649 504.9 1002.45C509.75 1010.5 513.7 1010.2 518.45 1001.95C524.8 990.799 531.3 979.749 537.7 968.649C538.95 966.499 540.351 965.149 543.101 964.949C550.75 964.399 558.35 963.649 565.95 962.649C569.5 962.199 571.95 963.2 574.25 965.8C582.05 974.65 590.1 983.3 598.05 992.05C599.75 993.9 601.35 995.849 603.2 997.499C606.2 1000.2 609.55 999.499 611.45 995.949C612.1 994.799 612.5 993.499 612.95 992.249C617.15 979.999 621.45 967.749 625.5 955.399C626.5 952.25 628.3 950.9 631.3 950.05C638.65 947.9 645.95 945.549 653.15 942.999C656.15 941.949 658.45 942.199 660.95 944.199C667.55 949.499 674.351 954.599 681.101 959.749C685.45 963.099 689.75 966.549 694.2 969.749C698.5 972.799 702.35 971.199 703.55 966.1C703.7 965.5 703.751 964.799 703.851 964.149C705.551 950.8 707.35 937.45 708.9 924.05C709.2 921.45 710.25 919.8 712.5 918.6C719.4 914.95 726.301 911.2 733.101 907.35C735.5 905.95 737.65 905.8 740.15 907.05C752.45 913 765.001 918.35 777.15 924.6C778.45 925.25 779.85 925.899 781.3 926.199C784.55 926.799 786.5 925.3 786.75 922.05C786.9 920.05 786.8 918.05 786.7 916.05C786.05 903.75 785.451 891.449 784.601 879.149C784.351 875.649 785.35 873.199 788.05 870.949C793.45 866.499 798.8 861.95 803.8 857.1C806.55 854.45 809.1 853.799 812.75 854.749C825.45 858.099 838.25 861.2 851 864.35C852.25 864.65 853.6 864.949 854.9 864.999C858.9 865.149 860.4 863.549 860.05 859.55C859.95 857.9 859.45 856.249 859.05 854.649C855.95 842.549 852.9 830.449 849.65 818.399C848.7 815.05 849 812.5 851.5 809.8C856.1 804.75 860.55 799.499 864.55 793.999C867 790.599 869.75 789.5 873.8 789.8C885.6 790.6 897.4 791.099 909.2 791.749C911.05 791.849 912.85 791.999 914.7 791.949C920.2 791.799 922.05 788.7 919.75 783.6C919.5 783 919.151 782.449 918.851 781.85C913.151 770 907.55 758.1 901.75 746.3C900.3 743.3 900.45 740.699 902.05 737.85C905.8 731.15 909.4 724.4 912.9 717.6C914.1 715.25 915.7 714.249 918.3 713.949C926.55 712.949 934.8 711.749 943.05 710.649C948.8 709.849 954.601 709.199 960.351 708.199C965.05 707.399 966.6 703.749 964.15 699.699C963.6 698.849 962.9 698.15 962.3 697.35C954.1 687.05 946 676.75 938.25 666.1C936.35 663.5 935.801 661.05 936.9 657.8C939.4 650.6 941.601 643.25 943.601 635.85C944.451 632.75 946.051 631.199 949.101 630.249C959.3 627.149 969.4 623.799 979.55 620.499C982.7 619.499 985.95 618.7 989 617.35C993.5 615.35 994.15 611.249 990.8 607.699C989.55 606.349 988.1 605.199 986.75 603.949C977.8 595.499 968.9 586.999 959.851 578.649C957.551 576.499 956.85 574.249 957.3 571.1C958.3 564 959.201 556.899 959.601 549.749C959.801 546.049 961.4 544.099 964.45 542.399C975.65 536.099 986.75 529.649 997.8 523.199C1005.9 518.449 1005.75 514.999 997.601 510.249C986.551 503.749 975.6 497.1 964.55 490.6C961.4 488.8 959.8 486.449 959.55 482.649C959.15 476 958.501 469.35 957.351 462.8C956.701 458.9 957.55 456.249 960.55 453.649C969.7 445.649 978.7 437.45 987.7 429.3C989.3 427.85 990.95 426.399 992.3 424.699C994.5 421.999 993.85 418.8 990.851 417.05C989.301 416.15 987.45 415.699 985.7 415.199C973.4 411.599 961.3 407.399 949.15 403.249C946.7 402.449 945.3 401.15 944.55 398.6C942.3 390.75 939.95 382.949 937.25 375.249C935.95 371.499 936.75 368.699 939.15 365.699C946.25 356.899 953.15 347.899 960.05 338.949C961.55 336.999 963.201 335.05 964.351 332.85C966.251 329.15 964.9 326.299 960.95 325.199C959.7 324.799 958.35 324.649 957.05 324.449C944.5 322.699 932 320.899 919.45 319.249C916.2 318.799 914.101 317.599 912.601 314.449C909.551 307.949 906.15 301.649 902.5 295.499C900.5 292.099 900.4 289.249 902.15 285.749C907.1 275.899 911.75 265.95 916.5 256.05C917.85 253.2 919.3 250.35 920.3 247.35C921.4 244.05 919.75 241.75 916.351 241.399C914.851 241.249 913.35 241.349 911.851 241.449C905.851 241.799 899.9 242.2 893.9 242.55C893.9 242.5 893.9 242.5 893.65 242.649C886.65 242.899 879.7 243.15 872.7 243.55C869.95 243.7 867.95 242.949 866.25 240.749C861.55 234.749 856.85 228.699 851.851 222.899C849.301 219.899 848.801 217.05 849.851 213.3C853.201 201.45 856.15 189.5 859.3 177.6C859.7 176 860.1 174.399 860.05 172.699C859.9 169.349 858.35 167.8 854.95 168.1C853 168.3 851.05 168.85 849.101 169.35C836.851 172.55 824.5 175.35 812.15 178.1C810.35 178.5 808.55 178.999 806.95 177.6C800 171.65 793.1 165.649 786.15 159.699C784.8 158.499 784.4 157.049 784.5 155.249C785.15 145.299 785.751 135.299 786.351 125.35C786.601 120.85 787.101 116.399 787.101 111.899C787.101 106.899 784.25 104.999 779.5 106.499C777.95 106.999 776.45 107.799 774.95 108.499C763.35 113.999 751.8 119.449 740.2 124.949C738.5 125.749 736.9 126.4 735 125.3C727.4 120.9 719.7 116.549 712.05 112.149C710.35 111.15 709.351 109.849 709.101 107.8C708.101 99.4 707 90.9497 705.95 82.5498C705.25 77.2498 704.8 71.9492 703.95 66.6992C703.05 60.9993 699.05 59.1998 694.15 62.0498C692.4 63.0498 690.85 64.2991 689.25 65.499C679.8 72.599 670.35 79.6496 660.95 86.8496C658.65 88.5995 656.5 89.0992 653.601 88.1494C646.001 85.6494 638.35 83.349 630.65 81.249C627.701 80.4491 626.251 78.8495 625.351 76.0498C621.451 63.8498 617.4 51.649 613.4 39.499C612.85 37.9491 612.35 36.2992 611.45 34.9492C609.25 31.5493 606.05 31.0995 602.95 33.6494C601.7 34.6994 600.6 35.9991 599.5 37.249C591.05 46.649 582.6 56.0491 574.2 65.499C572.45 67.449 570.65 68.8996 567.75 68.3496C560.05 66.8996 552.2 66.7498 544.4 66.2998C540.901 66.0998 539.001 64.6994 537.351 61.8496C530.951 50.7496 524.4 39.6994 517.95 28.6494C516.35 25.9494 514.9 22.849 511.05 22.999Z" fill="black"/>
<path d="M1023 525.449C1023.35 526.449 1023.05 527.149 1022 527.449C1021.85 526.549 1022.3 525.949 1023 525.449Z" fill="black"/>
<path d="M1022 527.449C1022.2 528.449 1021.9 529.099 1020.85 529.349C1020.8 528.449 1021.15 527.799 1022 527.449Z" fill="black"/>
<path d="M440.349 130.05C473.449 124.05 506.85 122.55 540.3 124.85C616.4 130.15 685.65 154.95 747.25 200.05C806.4 243.35 851.4 298.2 880.45 365.75C893.85 396.95 902.75 429.45 907.95 463C911 482.35 912.199 501.75 912.099 518.05C912.299 579.35 900.45 634.9 877.15 688.1C868.75 707.25 857.45 724.7 844.7 741.25C824.95 766.9 803.25 790.8 778.55 811.8C756.4 830.65 732.449 846.8 706.849 860.55C665 883.1 620.549 898.1 573.599 905.5C543.9 910.15 513.95 910.849 483.95 909.149C444.95 906.949 407.15 898.7 370.55 885.2C335.05 872.1 301.899 854.45 271.349 832.1C228.3 800.6 192.7 761.95 163.8 717.2C151.35 697.95 142.199 677.1 134.599 655.5C128.349 637.9 123.5 619.95 120 601.6C116.5 583.1 113.85 564.499 113.05 545.649C112.3 527.7 112.1 509.7 113.7 491.75C116.5 459.6 122.95 428.25 133.05 397.6C141.9 370.6 153.85 344.999 168.05 320.449C190.4 281.749 218.45 247.75 252.45 218.75C281.65 193.85 313.95 173.9 349 158.25C378.35 145.15 408.75 135.75 440.349 130.05ZM629.15 813.699C550.45 794.149 472.3 793.499 393.1 814.449C396.55 816.999 399.2 818.899 401.9 820.899C423.7 837.349 441.4 856.999 451.15 882.999C451.85 884.849 452.9 885.499 454.8 885.699C464.55 886.649 474.3 888.149 484.1 888.649C511.75 890.049 539.35 889.649 566.8 885.649C569.75 885.199 571.599 884.149 572.599 881.199C574.549 875.299 577.4 869.849 580.55 864.549C591.8 845.649 606.65 830.15 624.849 817.85C626.349 816.85 628.4 816.249 629.15 813.699ZM658.599 824.349C657.1 823.799 655.75 823.899 654.3 824.649C635.4 834.299 618.55 846.499 605.7 863.699C601.9 868.749 598.65 874.099 595.15 880.499C631.9 872.499 665.75 859.649 698.65 841.949C697.35 840.999 696.899 840.499 696.349 840.149C684.099 834.049 671.399 829.049 658.599 824.349ZM369.75 825.601C367.3 824.301 365.099 824.451 362.599 825.351C351.05 829.601 339.65 834.251 328.5 839.551C327.5 840.001 326.35 840.401 325.4 842.101C357.45 859.551 390.9 872.451 426.4 880.251C426.7 878.201 425.7 877.151 425.05 876.051C411.85 853.451 392.6 837.551 369.75 825.601ZM322.55 802.35C311.8 807.85 302.15 814.4 292.1 821.3C295.6 824.25 299.051 826.15 302.35 828.3C303.5 828.999 304.5 828.549 305.55 827.899C310.6 824.699 315.7 821.599 320.8 818.449C321.95 817.749 323.3 817.15 323.25 815.6C323.15 811.35 323.7 807.05 322.55 802.35ZM705.15 803.751C702.75 802.201 702.25 802.551 702.1 805.201C702 806.851 702.1 808.551 702.1 810.201C702.1 817.351 702.1 817.351 708 821.051C709.65 822.151 711.25 823.401 713.05 824.251C715.85 825.601 717.75 829.451 721.05 828.501C723.95 827.701 726.45 825.301 729 823.451C731.7 821.551 731.75 821.001 729 819.201C721.1 814.001 713.15 808.851 705.15 803.751ZM847.05 702.049C623.75 701.999 401.75 701.999 179.8 702.049C179.35 704.049 180.25 704.749 180.75 705.549C206.2 745.299 237.45 779.849 274.65 808.949C277.85 811.499 277.9 811.449 281.45 808.899C308.8 789.199 338.5 773.949 370.15 762.549C417 745.699 465.45 737.899 515.15 737.899C530.3 737.899 545.35 739.35 560.45 740.85C584.55 743.3 608.15 748.299 631.349 755.049C648.449 759.999 665.05 766.5 681.4 773.6C683.85 774.649 685.7 775.099 688.2 773.199C718.15 750.349 751.7 735.049 788.2 725.999C802.3 722.499 816.65 720.649 831.099 719.449C832.749 719.349 834.6 719.549 835.7 717.999C839.25 713.099 842.75 708.099 847.05 702.049ZM816.3 741.75C776.75 748.1 739.8 761.3 706 785.75C708.8 787.35 710.45 788.4 712.15 789.3C722.9 794.95 733.1 801.5 742.9 808.7C746.5 811.35 746.45 811.3 750.15 808.5C774.55 789.8 795.85 767.95 815.75 744.6C816.35 743.95 817.5 743.4 816.3 741.75ZM641.7 775.949C641.7 779.849 641.85 783.149 641.65 786.399C641.55 788.799 642.5 789.949 644.7 790.799C651.2 793.299 657.7 795.899 664.1 798.699C671.1 801.749 678 804.999 686.05 808.699C686.05 804.599 685.75 801.449 686.1 798.399C686.55 794.549 684.8 792.7 681.45 791.35C671.55 787.45 661.75 783.249 651.85 779.299C648.8 778.049 645.65 777.199 641.7 775.949ZM383 778.649C382.8 776.399 382.15 775.599 379.95 776.449C375.6 778.149 371.2 779.599 366.9 781.399C359.25 784.599 351.65 788.049 344 791.249C341.15 792.449 339.85 794.149 340.099 797.349C340.349 800.449 340.15 803.599 340.15 807.049C342.65 807.199 344.05 806.149 345.5 805.499C355 801.449 364.4 797.199 373.95 793.299C383.85 789.249 383.85 789.399 383 778.649ZM584.9 760.801C582.5 760.301 581.45 761.051 581.55 763.551C581.65 765.751 581.5 767.901 581.55 770.051C581.6 773.801 581.6 773.8 585.2 774.65C593.1 776.5 601.05 778.351 608.95 780.251C614.1 781.501 619.2 782.901 624.8 784.351C625.5 780.901 625.05 777.901 625.15 774.851C625.15 770.301 625.099 770.201 620.849 769.051C614.1 767.251 607.35 765.5 600.55 763.9C595.35 762.7 590.1 761.901 584.9 760.801ZM442.599 763.949C442.599 760.549 442.499 760.449 438.899 760.999C427.749 762.649 416.799 765.349 405.899 768.299C398.3 770.349 399.4 769.3 399.45 776.85V780.299C399.55 784.549 399.55 784.499 403.599 783.399C413.499 780.699 423.5 778.15 433.5 775.85C436.5 775.15 440.5 775.799 442.25 773.199C443.95 770.699 442.599 767.099 442.599 763.949ZM499.55 754.351C487.4 754.601 475.4 755.901 463.35 757.201C460.951 757.451 459.651 758.201 459.85 760.851C460 763.151 459.85 765.501 459.9 767.801C460 771.101 460.15 771.301 463.3 770.901C475.5 769.301 487.75 769.001 500 768.151C503.85 767.901 503.85 767.901 503.95 764.201V761.701C503.9 760.551 503.95 759.401 503.9 758.251C503.75 754.251 503.75 754.301 499.55 754.351ZM523.95 754.15C520.75 754.1 520.649 754.2 520.599 757.55C520.549 759.75 520.549 761.9 520.599 764.05C520.699 767.9 520.7 767.851 524.45 768.101C534.55 768.851 544.65 769.6 554.75 770.3C557.85 770.5 560.95 771.3 564.099 770.95C565.399 767.6 564.45 764.1 564.75 760.7C565 758.05 563.55 757.4 561.2 757.15C551.45 756.2 541.75 754.851 531.4 754.601C529.25 754.451 526.6 754.25 523.95 754.15ZM750.15 228.101C608.35 113.401 395.05 113.701 255.3 244.101C116.7 373.4 109 560.8 167.849 679.3C167.849 678.15 167.85 676.95 167.75 675.75C167.7 589 167.699 502.25 167.649 415.5C167.649 413 167.699 410.5 167.649 408C167.599 406.15 168.35 405.15 170.25 405.2C171.4 405.25 172.6 405.2 173.75 405.2H241.2C248.8 405.2 248.099 404.001 248.099 412.101C248.099 456.6 248.05 501.05 248 545.5C248 546.5 248.05 547.5 248 548.5C247.9 550.4 248.85 551.101 250.7 551.101C256.05 551.001 261.35 551 266.7 551.05C268.55 551.05 269.45 550.3 269.4 548.4C269.35 547.05 269.4 545.75 269.4 544.4C269.35 524.75 269.35 505.1 269.3 485.45C269.3 484.3 269.35 483.1 269.3 481.95C269.25 480.05 270.1 479.2 272 479.3C273 479.35 274 479.351 275 479.351C312.8 479.451 350.6 479.5 388.4 479.55C396 479.55 395.099 479.351 395.099 486.351V661.2C395.099 666.9 395.149 672.55 395.099 678.2C395.049 680.3 395.75 681.25 397.95 681.15C400.6 681.05 403.3 681 405.95 681.15C408.5 681.3 409.8 680.3 410.8 677.9C415.35 667.1 418.8 656 421.55 644.65C427.75 619 429.35 593.05 426.55 566.8C426.2 563.8 425.35 561.6 423 559.55C414.05 551.8 407.9 541.95 403.15 531.15C402.8 530.4 402.5 529.6 402.95 528.55C405.85 527.7 409.05 528.2 412.15 527.95C418.3 527.4 424.4 526.85 430.099 524.05C436.649 520.85 439.9 515.95 439.5 508.5C439.35 505.7 438.5 503.851 436.15 502.351C424.95 495.201 417.6 484.85 412 473.101C411.5 472.051 410.65 471.1 411.349 469.851C412.249 469.201 413.25 469.4 414.25 469.4C420.25 469.4 426.2 469 431.95 466.95C441.4 463.6 446.449 456.8 447.099 446.8C447.349 443.25 446.549 440.5 443.849 437.9C436.499 430.95 431.2 422.5 426.65 413.55C425.35 410.9 425.6 410.35 428.55 410.25C431.9 410.15 435.25 410 438.45 409.05C442.3 407.95 446 406.45 448.25 402.7C451.7 397 450.95 385.8 446.75 380.5C441.05 373.35 435.55 366 431.15 357.95C430.4 356.6 428.899 355.35 429.849 353.3C431.799 353.1 433.8 352.8 435.75 352.65C439.6 352.3 443.35 351.35 446.9 349.95C456.05 346.45 460.05 338.45 457.55 329.05C456.95 326.75 455.699 324.8 454.349 322.9C451 318.15 447.55 313.45 444.15 308.7C441.65 305.2 441.7 305 445.5 302.7C445.65 302.6 445.8 302.55 445.95 302.45C470.2 288.2 487.25 267.7 498.4 242.05C500.35 237.5 500.45 237.8 496.8 234.5C491.05 229.3 488.9 222.8 490.15 215.101C490.95 209.951 493.45 205.7 497.3 202.3C499.8 200.05 500.999 197.5 501.599 194.2C503.349 184.35 505.399 174.6 507.349 164.8C507.649 163.3 508 161.85 508.3 160.4C508.6 159.05 509.5 158.5 510.8 158.4C513.4 158.2 514.25 158.851 515 162.101C517.7 173.6 520.4 185.101 522.9 196.65C523.4 199.1 524.4 200.8 526.2 202.5C536.1 211.9 536.099 225.151 526.099 234.601C522.7 237.85 523.2 237.551 524.75 241.351C535.6 267.55 553 288.2 577.4 302.8C580.95 304.9 581.05 305.001 578.65 308.351C575.2 313.251 571.7 318.101 568.05 322.851C565.95 325.65 564.899 328.651 564.849 332.101C564.65 341.9 569.15 348.1 578.599 351C582.449 352.15 586.35 352.9 590.349 353.25C591.299 353.35 592.349 353.101 593.099 354.101C593.349 355.35 592.45 356.25 591.9 357.25C587.55 364.95 582.849 372.45 576.849 378.95C571.3 384.95 571.7 391.651 573.25 398.601C574.25 402.9 577.15 405.8 581.2 407.65C585.1 409.45 589.2 409.8 593.349 410.2C594.399 410.3 595.75 409.8 596.4 411.15C596.55 412.3 595.95 413.1 595.5 414C591.1 423.05 585.8 431.45 578.3 438.3C575.85 440.5 575 443 575.2 446.25C575.8 455.8 580.4 462.55 589.099 466.45C593.899 468.65 599 469.3 604.2 469.45C611.3 469.7 611.349 469.8 608.099 476.4C602.899 486.9 595.65 495.65 585.8 502.15C584.45 503.05 582.6 503.801 582.4 505.601C581.85 510.6 581.9 515.6 585.65 519.7C588.75 523.15 592.6 525.3 597.099 526.4C602.799 527.8 608.6 528 614.45 528.15C616.25 528.2 618.15 527.7 620.3 528.95C619.45 531.9 618.1 534.7 616.65 537.45C612.25 545.75 606.4 553 599.65 559.5C597.8 561.25 596.25 563.051 596.15 565.851C595.95 570.5 595.4 575.15 595.2 579.8C594.2 600.75 596.75 621.35 601.8 641.65C604.85 653.95 608.4 666.05 613.25 677.8C614.3 680.3 615.6 681.6 618.45 681.3C620.95 681.05 623.45 681.25 625.95 681.2C629.6 681.1 629.65 681.05 629.7 677.65C629.8 672.3 629.8 667 629.8 661.65C629.8 580.4 629.75 499.15 629.75 417.9C629.75 412.4 629.75 412.45 635.2 412.45C666.35 412.5 697.45 412.5 728.599 412.55C737.299 412.55 736.2 411.65 736.2 420.4C736.25 475.35 736.2 530.3 736.2 585.25C736.2 586.9 736.35 588.6 736.2 590.25C736 592.75 737.2 593.401 739.45 593.351C744.3 593.251 749.1 593.35 753.95 593.3C757.8 593.25 757.8 593.2 757.9 589.45V586.95C757.9 544.3 757.849 501.7 757.849 459.05C757.849 457.55 757.949 456.05 757.849 454.55C757.65 451.85 759 450.95 761.45 451.15C762.45 451.2 763.45 451.15 764.45 451.15H856.849C863.749 451.15 863.099 450.8 863.099 457.3V663.101C863.099 664.15 862.65 665.301 863.5 666.351C918.5 538.901 900.5 349.751 750.15 228.101ZM224.5 425.801C213.5 425.851 202.55 425.9 191.55 425.9C189.65 425.9 188.8 426.701 188.9 428.601C188.95 429.751 188.9 430.951 188.9 432.101V553.951C188.95 594.551 188.95 635.151 188.9 675.851C188.9 681.55 188.35 681.201 194.3 681.201H368.05C369.4 681.201 370.7 681.151 372.05 681.201C373.75 681.251 374.45 680.401 374.4 678.751C374.35 677.751 374.4 676.751 374.4 675.751V505.451C374.4 499.651 374.25 500.301 369.2 500.301C344.4 500.251 319.6 500.2 294.8 500.15C289.85 500.1 290.3 500.051 290.3 504.801C290.35 524.751 290.35 544.751 290.35 564.701C290.35 566.201 290.25 567.701 290.3 569.201C290.35 571.351 289.25 572.201 287.25 572.201C285.75 572.201 284.25 572.251 282.75 572.251C266.25 572.301 249.8 572.301 233.3 572.301C227 572.301 227.4 572.95 227.4 566.351C227.35 522.051 227.25 477.801 227.2 433.501C227.2 431.851 227.15 430.151 227.2 428.501C227.25 426.651 226.4 425.801 224.5 425.801ZM452.75 565.301C448 565.301 448 565.351 448.3 570.251C450.45 607.401 446.3 643.701 432.8 678.601C432.6 679.201 432.25 679.851 432.75 680.601C433.65 681.451 434.85 681.101 435.95 681.101C447.45 681.101 458.9 681.151 470.399 681.101C474.949 681.101 474.899 681.051 474.899 676.351C474.799 654.901 474.799 633.401 474.599 611.951C474.599 608.751 475.55 606.801 478.349 605.101C500.149 592.051 521.95 591.551 544 604.501C547.25 606.401 548.5 608.651 548.45 612.501C548.25 633.801 548.3 655.101 548.3 676.4C548.3 681.1 548.3 681.15 552.8 681.15C564.45 681.15 576.1 681.101 587.75 681.051C589 681.051 590.4 681.501 592 680.201C586.05 666.001 582.249 651.351 579.399 636.501C575.049 614.501 573.149 592.351 575.149 569.951C575.549 565.551 575.449 565.5 571.099 565.4C570.1 565.35 569.099 565.351 568.099 565.351C529.65 565.351 491.2 565.301 452.75 565.301ZM653.95 433.5C651.45 433.5 650.1 434.15 650.4 436.85C650.5 437.699 650.45 438.5 650.45 439.35V557.25H650.65V676.15C650.65 681.15 650.65 681.15 655.4 681.15C716 681.1 776.6 681.1 837.2 681.1C838.2 681.1 839.2 681.05 840.2 681.1C842.05 681.2 843.1 680.55 842.95 678.55C842.9 677.7 842.95 676.9 842.95 676.05C842.9 610.45 842.9 544.85 842.9 479.25C842.9 477.6 842.85 475.9 842.85 474.25C842.85 472.5 841.95 471.851 840.35 471.9C839.201 471.95 838 471.9 836.85 471.9C819.85 471.9 802.9 471.85 785.9 471.85C777.7 471.85 778.65 470.75 778.65 478.85C778.6 521.45 778.6 564.1 778.6 606.7C778.6 608.35 778.55 610.05 778.55 611.7C778.55 613.35 777.75 614.15 776.15 614.2C775.15 614.25 774.15 614.25 773.15 614.25C755.35 614.25 737.5 614.3 719.7 614.35C715.4 614.35 715.4 614.35 715.4 609.85C715.35 556.55 715.35 503.3 715.35 450C715.35 445.65 715.3 441.3 715.45 437C715.55 434.35 714.4 433.6 711.9 433.6C692.55 433.65 673.25 433.6 653.95 433.5ZM522.9 617.3C515.2 615.15 507.5 615.3 499.8 617.5C495.75 618.65 495.65 618.75 495.65 622.949V649.85C495.7 649.85 495.75 649.85 495.8 649.899V677.3C495.85 681 495.85 681.1 499.25 681.1C507.35 681.15 515.5 681 523.65 681.1C526.2 681.15 527.099 680.349 527.099 677.699C526.999 659.249 527 640.799 526.95 622.35C526.95 618.55 526.7 618.35 522.9 617.3ZM465.9 503.801C459.4 503.801 460.499 504.151 460.599 509.251C460.749 519.451 457.25 528.051 450 535.251C446.65 538.551 442.65 540.85 438 543.9C446.9 545 580.042 544.701 584.349 543.501C583.65 543.051 583.249 542.801 582.849 542.601C568.45 535.251 560.649 523.9 561.599 507.351C561.749 504.651 560.8 503.7 558.25 503.9C557.25 504 556.25 503.9 555.25 503.9C525.45 503.85 495.7 503.851 465.9 503.801ZM472.05 444C468.3 444 468.25 444 468 448.15C467.35 459.65 462.7 469.3 454.35 477.15C452.301 479 450 480.55 447.1 482.8H575.2C574.45 481.1 573.1 480.65 572.05 479.9C567.85 476.85 564.35 473.15 561.45 468.8C557.05 462.3 554.8 455.05 554.55 447.25C554.5 444.9 553.699 443.9 551.349 444.1C550.5 444.2 549.699 444.1 548.849 444.1C523.25 444.05 497.649 444.05 472.05 444ZM474.25 384.1C470.65 384.1 470.65 384.25 471.05 387.699C472.5 400.049 469.849 411.15 461.399 420.6C461.099 420.95 460.949 421.45 460.55 422.199C462.499 423.149 464.199 422.85 465.899 422.75C496.499 422.75 527.1 422.749 557.7 422.699C558.7 422.699 559.7 422.7 560.7 422.6C561.5 422.55 562.4 422.599 562.849 421.699C563.299 420.749 562.5 420.199 561.95 419.649C560.25 418 558.8 416.25 557.55 414.25C552.4 406.2 550.999 397.349 551.899 387.949C552.249 384.35 552.049 384.199 548.599 384.199C523.8 384.099 499.05 384.1 474.25 384.1ZM482.3 325.049C478.25 324.999 478.2 325.05 478.7 329.149C480.15 341.149 476.6 351.499 468.35 360.249C467.6 361.049 466.351 361.549 466.35 363.499H556.599C556.899 362.199 556.05 361.799 555.5 361.249C549.75 355.599 546.45 348.649 544.9 340.749C544.1 336.599 544.2 332.399 544.65 328.299C544.95 325.749 544 324.999 541.7 325.149C541.05 325.199 540.35 325.149 539.7 325.149C520.6 325.099 501.45 325.099 482.3 325.049ZM511.65 262.65C503.25 278.75 492.4 291.65 479.15 303.95H544.4C530.65 292.05 520.25 278.7 511.65 262.65ZM511.849 210.301C507.5 210.301 503.7 214.051 503.55 218.551C503.45 223.001 507.15 226.8 511.75 226.9C516.6 227.05 520.15 223.651 520.2 219.001C520.25 214.151 516.549 210.351 511.849 210.301Z" fill="black"/>
</g>
<defs>
<clipPath id="clip0_4926_4550">
<rect width="1024" height="1024" fill="white"/>
</clipPath>
</defs>
</svg>
