<svg width="2047" height="635" viewBox="0 0 2047 635" fill="none" xmlns="http://www.w3.org/2000/svg">
<g clip-path="url(#clip0_553_1271)">
<path d="M926.195 298.719C922.295 318.219 907.095 332.019 886.795 334.819C873.595 336.619 860.695 335.919 847.995 331.819C829.195 325.719 818.995 309.219 817.495 291.419C815.095 263.019 816.695 234.519 816.495 206.119C816.295 170.019 816.495 133.919 816.295 97.7188C816.295 93.8188 817.195 92.6188 821.195 92.7188C830.295 93.0188 839.495 93.0188 848.695 92.7188C852.995 92.6188 854.495 93.4188 854.495 98.3188C854.295 157.919 854.395 217.519 854.395 277.119C854.395 281.119 854.795 285.119 855.795 288.919C858.195 297.919 868.095 303.119 877.895 301.519C886.795 300.119 892.095 295.219 894.295 286.719C895.595 285.319 894.895 283.519 894.895 282.019C894.895 221.519 894.895 160.919 894.895 100.419C894.895 92.5188 894.195 93.7188 901.895 93.6188C908.695 93.5188 915.495 93.6188 922.395 93.6188C927.795 93.6188 927.795 93.6188 927.795 98.9188C927.795 138.619 927.795 178.419 927.795 218.119C927.795 236.919 927.595 255.719 927.895 274.519C928.095 282.619 926.595 290.619 926.195 298.719Z" fill="white"/>
<path d="M968.995 260.718C973.195 260.718 977.395 261.018 981.495 260.618C985.895 260.118 986.695 261.918 986.595 265.918C986.395 272.018 986.295 278.218 987.295 284.318C989.195 296.118 994.195 300.918 1005.6 300.918C1017.4 300.918 1023.5 295.718 1025.3 284.318C1028 267.118 1023.7 252.318 1011.1 239.818C999.595 228.418 986.495 218.918 975.095 207.518C951.795 184.118 945.295 156.518 954.295 125.218C959.695 106.218 972.195 94.518 991.995 90.718C1003.8 88.418 1015.4 88.118 1027 91.018C1049.8 96.618 1060.6 112.618 1063.3 134.818C1064.1 141.718 1063.5 148.818 1063.9 155.718C1064.1 158.618 1063 159.018 1060.6 159.018C1051.3 158.918 1042 158.818 1032.6 159.018C1029.8 159.018 1028.8 158.318 1029 155.418C1029.4 149.918 1028.8 144.518 1027.4 139.118C1024.6 128.818 1016.6 122.418 1007.9 123.318C997.595 124.418 991.395 131.718 990.395 142.918C988.895 160.318 995.395 174.218 1007.7 186.018C1016.7 194.718 1026.7 202.218 1035.8 210.618C1049.4 223.218 1059.6 237.918 1062.7 256.518C1066 277.018 1065.7 297.318 1053.4 315.318C1045.9 326.318 1034.9 332.218 1022 334.518C1008.9 336.818 995.895 336.318 983.095 332.118C964.595 326.118 955.895 312.018 952.395 294.018C950.495 284.118 951.595 274.118 951.295 264.118C951.195 261.118 952.395 260.518 955.095 260.618C959.595 260.818 964.295 260.718 968.995 260.718Z" fill="white"/>
<path d="M1114.1 127.119C1101.6 127.119 1089.2 126.919 1076.7 127.019C1073.6 127.019 1072.4 126.519 1072.5 123.019C1072.8 114.019 1072.7 105.019 1072.6 96.1186C1072.6 93.5186 1073.1 92.7188 1075.9 92.7188C1112.8 92.8188 1149.8 92.8188 1186.7 92.7188C1189.4 92.7188 1190.4 93.3187 1190.4 96.3187C1190.2 105.319 1190.2 114.319 1190.4 123.219C1190.5 126.219 1189.8 127.219 1186.6 127.119C1176.5 126.919 1166.3 127.219 1156.2 126.919C1152.3 126.819 1151.3 127.819 1151.3 131.719C1151.4 195.219 1151.4 258.819 1151.4 322.319C1151.4 324.119 1151.3 325.919 1151.2 327.819C1150.8 329.819 1149.5 330.219 1147.5 330.219C1137.7 330.119 1127.9 330.119 1118 330.219C1115.6 330.219 1114.6 329.419 1114.8 327.019C1114.9 325.819 1114.8 324.719 1114.8 323.519C1114.8 259.619 1114.8 195.719 1114.8 131.819C1114.7 130.219 1115.4 128.519 1114.1 127.119Z" fill="white"/>
<path d="M682.295 435.418C682.295 421.618 682.295 407.818 682.295 394.018C682.295 389.218 682.695 384.418 683.995 379.718C687.895 365.818 696.895 357.718 711.095 355.318C720.695 353.718 729.995 354.518 738.895 358.318C750.595 363.318 755.995 373.118 757.395 385.218C758.195 392.118 757.794 399.218 758.094 406.118C758.194 409.018 756.795 409.418 754.395 409.318C748.395 409.218 742.395 409.018 736.395 409.218C733.495 409.318 733.195 408.218 733.195 405.818C733.195 399.718 733.895 393.518 732.395 387.418C730.795 381.018 727.095 377.818 720.895 377.818C714.395 377.918 709.395 382.118 708.395 388.418C707.695 392.718 707.895 397.018 707.995 401.318C708.195 427.618 708.295 453.918 708.495 480.218C708.595 487.918 713.595 493.018 720.595 493.318C729.395 493.718 734.095 489.618 734.295 480.718C734.595 471.218 734.395 461.718 734.595 452.218C734.695 449.318 733.695 448.418 730.895 448.618C727.595 448.818 722.995 449.818 721.295 448.218C718.895 445.918 720.495 441.318 720.395 437.718C720.295 426.318 720.295 426.318 731.495 426.318C738.995 426.318 746.495 426.518 753.995 426.318C756.995 426.218 758.095 426.918 757.995 430.118C757.595 448.418 758.595 466.718 757.395 485.018C756.095 504.118 743.595 516.018 724.395 516.418C718.695 516.518 713.095 516.418 707.595 515.018C691.995 511.018 682.695 498.918 682.395 481.718C682.195 466.218 682.295 450.718 682.295 435.318C682.395 435.418 682.395 435.418 682.295 435.418Z" fill="white"/>
<path d="M1128.1 435.318C1128.1 410.718 1128.2 386.018 1128 361.418C1128 357.518 1129 356.218 1132.9 356.518C1138.2 356.918 1143.6 356.818 1148.9 356.518C1152.4 356.318 1153 357.618 1153 360.718C1152.9 402.818 1153 444.918 1152.8 487.018C1152.8 490.918 1153.7 492.118 1157.6 492.018C1168.6 491.818 1179.6 492.118 1190.5 491.918C1193.3 491.818 1194.4 492.118 1194.2 495.218C1193.9 500.718 1194 506.218 1194.1 511.718C1194.1 513.818 1193.4 514.618 1191.2 514.618C1171.1 514.518 1150.9 514.518 1130.8 514.618C1127 514.618 1128.1 512.018 1128.1 510.118C1128.1 485.218 1128.1 460.218 1128.1 435.318Z" fill="white"/>
<path d="M799.495 424.32C799.495 445.32 799.595 466.22 799.395 487.22C799.395 491.32 800.695 492.02 804.395 491.92C815.895 491.62 827.395 491.92 838.795 491.72C841.495 491.72 842.795 492.12 842.695 495.22C842.595 500.82 842.595 506.52 842.895 512.22C842.995 514.42 842.195 514.72 840.395 514.72C819.595 514.72 798.795 514.62 777.995 514.72C774.695 514.72 775.195 512.82 775.195 510.82C775.195 486.32 775.095 461.92 775.095 437.42C775.095 411.52 775.095 385.52 774.995 359.62C774.995 357.22 775.195 356.52 777.695 356.52C783.695 356.72 789.695 356.82 795.695 356.52C799.395 356.32 799.595 358.02 799.595 360.92C799.495 382.02 799.495 403.12 799.495 424.32Z" fill="white"/>
<path d="M752.395 94.1186C749.095 95.7186 745.495 95.1187 742.095 94.8187C722.695 92.9187 703.195 94.6187 683.795 93.9187C680.095 93.8187 679.395 95.4186 679.495 98.6186C679.595 121.919 679.495 145.219 679.495 168.519C679.495 220.219 679.595 272.019 679.395 323.719C679.395 328.619 680.695 330.019 685.495 329.719C693.095 329.319 700.795 329.319 708.495 329.719C713.195 329.919 714.695 328.719 714.695 323.819C714.495 294.019 714.595 264.219 714.695 234.419C714.695 233.219 712.695 230.119 716.695 230.819C715.795 231.819 716.095 233.019 716.095 234.119C716.095 264.119 716.095 294.219 716.095 324.219C716.095 325.019 716.095 325.919 716.395 326.619C716.995 329.719 715.595 330.719 712.595 330.719C702.295 330.619 691.995 330.519 681.695 330.819C677.795 330.919 677.595 329.319 677.595 326.219C677.695 295.919 677.595 265.719 677.595 235.419C677.595 189.519 677.595 143.619 677.495 97.7188C677.495 93.8187 678.395 92.7188 682.395 92.7188C702.395 93.0188 722.295 92.9187 742.295 92.9187C745.695 92.9187 748.995 93.8186 752.395 94.1186Z" fill="white"/>
<path d="M926.195 298.719C924.195 294.819 926.595 291.019 926.695 287.119C926.795 284.019 927.295 280.919 927.295 277.719C927.295 218.519 927.195 159.319 927.495 100.019C927.495 94.8186 926.095 93.4187 921.095 93.7188C914.295 94.1188 907.495 94.0188 900.595 93.7188C896.395 93.5186 895.295 94.9186 895.295 99.0186C895.495 128.119 895.395 157.219 895.395 186.319C895.395 218.619 895.395 250.819 895.395 283.119C895.395 284.419 895.395 285.819 895.395 287.119C895.395 287.219 895.195 287.319 895.095 287.419C894.795 287.119 894.595 286.719 894.295 286.419C894.295 224.019 894.395 161.619 894.395 99.2188C894.395 92.7188 894.395 92.7188 900.995 92.7188C908.995 92.7188 916.995 92.8188 924.995 92.7188C927.495 92.7188 928.795 93.0186 928.795 96.1186C928.695 158.019 928.595 219.919 928.595 281.819C928.495 287.619 927.595 293.219 926.195 298.719Z" fill="white"/>
<path d="M1114.1 127.117C1116.4 128.117 1115.1 130.017 1115.1 131.417C1115.2 194.917 1115.2 258.417 1115.2 321.917C1115.2 323.417 1115.3 324.917 1115.2 326.417C1115.1 328.717 1115.9 329.717 1118.3 329.717C1127.9 329.617 1137.6 329.617 1147.2 329.717C1148.9 329.717 1150 329.017 1151 327.817C1151.4 329.817 1150.9 330.817 1148.5 330.817C1137.9 330.717 1127.2 330.717 1116.6 330.817C1113 330.817 1114.1 328.517 1114.1 326.817C1114.1 281.417 1114.1 236.017 1114.1 190.517C1114.1 169.317 1114.1 148.217 1114.1 127.117Z" fill="white"/>
<path d="M716.395 326.718C715.295 325.418 715.595 323.918 715.595 322.418C715.595 293.218 715.495 264.018 715.595 234.918C715.595 233.518 714.995 231.818 716.695 230.918C716.695 259.418 716.595 287.818 716.595 316.318C716.495 319.718 716.395 323.218 716.395 326.718Z" fill="white"/>
<path d="M298.495 10.117C305.995 -2.28295 319.695 -3.48295 328.995 7.61705C332.394 11.7169 335.295 16.2166 337.495 21.0165C344.495 36.3163 364.094 34.6169 372.495 26.117C375.495 23.017 378.595 19.9165 381.695 17.0165C392.295 7.11674 407.995 11.0169 412.495 24.7167C414.195 30.0167 415.295 35.617 416.495 41.117C419.595 54.4169 427.995 59.6166 441.095 56.2167C445.895 54.9167 450.495 53.0168 454.995 50.9169C459.495 48.7169 464.195 47.4169 469.395 47.4169C478.795 47.417 485.995 53.9168 486.395 63.2167C486.595 67.2166 486.395 71.2167 485.995 75.2167C483.795 97.4166 494.795 104.017 514.294 101.217C520.094 100.417 525.795 99.417 531.595 99.617C545.095 100.017 553.094 110.517 549.794 123.717C547.994 130.917 545.295 137.917 543.995 145.217C542.495 153.417 547.195 162.617 555.294 165.117C559.194 166.317 563.395 166.717 567.595 166.717C573.295 166.617 578.895 167.417 584.395 168.717C594.995 171.317 600.895 182.217 597.695 192.717C596.195 197.717 592.995 201.817 590.195 206.117C585.795 212.917 581.195 219.717 583.395 228.617C584.995 234.817 588.295 239.516 594.495 241.516C599.695 243.216 605.095 244.316 610.195 246.016C627.095 251.816 630.195 268.616 616.595 280.516C612.695 283.916 608.595 287.017 604.995 290.717C596.995 298.717 597.295 309.217 605.294 317.217C609.694 321.617 615.295 324.317 620.095 328.117C630.695 336.417 633.595 348.117 627.095 357.717C624.095 362.117 619.594 364.617 614.794 366.717C609.994 368.917 604.995 370.717 600.595 373.817C591.495 380.417 589.795 389.917 596.495 398.917C599.295 402.817 602.495 406.517 605.695 410.117C611.395 416.517 614.195 423.817 610.895 432.117C607.495 440.517 599.895 443.217 591.695 444.317C587.295 444.917 582.795 445.516 578.495 446.516C566.995 449.116 561.095 458.517 563.895 470.117C565.195 475.617 567.795 480.617 570.095 485.717C575.795 498.817 571.195 511.317 559.595 514.817C554.195 516.417 548.694 515.816 543.294 515.016C540.795 514.616 538.394 514.017 535.995 513.717C518.895 511.317 508.995 521.917 511.895 539.117C512.995 545.817 514.595 552.417 513.595 559.317C511.995 569.917 503.195 576.417 492.595 574.817C486.395 573.917 480.895 571.317 475.195 569.217C460.195 563.617 449.295 570.717 448.595 586.617C448.395 590.417 448.195 594.317 447.495 598.016C444.595 613.916 428.595 617.717 417.095 610.817C413.095 608.417 409.695 605.217 406.095 602.317C395.295 593.517 382.495 596.117 376.395 608.717C374.295 613.117 372.695 617.917 370.995 622.516C368.495 629.116 363.995 633.317 356.995 634.317C349.095 635.517 342.594 632.916 337.794 626.516C335.295 623.217 333.195 619.617 330.695 616.317C322.795 605.417 308.495 605.017 300.095 615.417C297.395 618.817 295.195 622.517 292.595 625.917C289.295 630.217 285.595 633.817 279.695 634.417C269.895 635.517 263.794 632.317 259.794 623.217C257.694 618.417 256.095 613.316 253.895 608.516C248.795 597.417 237.595 594.117 226.995 600.317C222.595 602.817 219.094 606.417 215.294 609.617C208.995 615.017 202.195 618.117 193.895 614.617C184.995 610.917 182.295 603.417 181.895 594.617V591.217C181.795 587.917 181.795 584.617 181.095 581.317C178.595 570.017 171.094 565.217 159.794 567.917C155.395 568.917 151.295 570.717 147.195 572.617C138.895 576.417 130.594 576.617 123.294 570.717C116.395 565.117 116.395 557.217 117.495 549.217C118.495 541.817 120.395 534.516 117.995 527.016C114.895 517.417 109.095 513.117 99.0952 513.617C92.4952 513.917 85.8944 515.217 79.2944 515.617C64.0947 516.717 55.0946 505.817 59.2944 491.117C61.0944 484.817 64.1952 478.816 66.0952 472.516C70.7949 457.417 64.2944 447.716 48.4946 445.516C44.1947 444.916 39.9947 444.316 35.6948 443.516C21.5949 440.816 15.3947 426.817 22.7944 414.617C25.1944 410.617 28.295 407.117 31.395 403.617C42.7949 390.317 39.6947 377.117 23.6948 370.117C19.1948 368.117 14.2946 366.917 9.99458 364.317C-1.00529 357.617 -3.30507 343.817 4.99458 333.817C8.89452 329.117 13.8945 325.917 18.7944 322.417C21.7944 320.317 24.5948 317.917 26.6948 314.917C32.1948 307.017 31.3948 298.516 24.1948 291.516C19.7948 287.217 14.8943 283.517 10.2944 279.417C-0.105436 270.217 0.195278 249.417 19.5952 245.317C23.795 244.417 27.8948 243.117 31.9946 241.817C45.5946 237.417 49.9944 224.517 42.2944 212.417C39.1945 207.517 35.4951 203.017 32.5952 197.917C23.9952 182.817 30.8948 166.917 51.6948 166.617C55.8948 166.517 59.9948 166.617 64.1948 166.417C79.0947 165.717 86.9952 154.916 83.0952 140.516C81.2952 134.117 78.9946 127.916 77.4946 121.516C74.6948 110.317 82.9951 100.016 94.395 99.5165C101.795 99.2165 108.895 101.117 116.195 101.717C135.295 103.017 144.494 92.7168 141.294 73.9169C140.594 69.6169 140.395 65.3165 141.495 61.0165C144.195 50.9167 151.595 46.1169 161.995 47.4169C169.195 48.3169 175.395 52.2172 182.095 54.3172C184.795 55.2172 187.495 56.2171 190.195 56.617C201.895 58.217 209.295 53.4168 212.595 41.9169C214.095 36.5169 215.095 30.9164 216.695 25.5165C221.095 10.5167 237.595 6.41732 248.995 17.3172C253.794 21.9172 257.495 27.6168 263.794 30.4169C273.994 35.0168 284.095 32.6172 290.595 23.3172C293.595 19.1173 295.895 14.517 298.495 10.117ZM281.695 112.518C277.895 108.819 273.595 105.419 267.695 106.119C263.795 106.619 259.794 107.319 255.995 108.419C186.995 128.619 135.495 169.419 106.195 236.119C101.195 247.519 92.8945 253.519 80.4946 253.919C74.4948 254.119 68.7944 255.019 63.4946 258.518C54.9948 264.018 52.895 279.919 60.1948 286.919C64.0948 290.719 66.495 293.919 61.895 298.919C59.895 301.019 60.7954 303.719 62.7954 303.919C69.0952 304.419 72.1952 308.419 74.0952 313.819C75.6952 318.319 77.8953 321.318 83.0952 323.018C93.9952 326.518 98.6952 343.419 91.5952 352.319C89.4953 355.019 88.6952 357.319 90.0952 360.419C90.6951 361.919 90.8952 363.619 91.0952 365.219C92.3952 376.119 95.3954 385.719 107.295 389.719C110.295 390.719 111.995 393.719 112.895 396.919C114.195 401.419 115.795 405.719 117.795 409.919C127.195 429.819 140.195 447.419 153.095 465.119C156.395 469.619 160.895 470.919 165.995 471.419C187.094 473.319 209.295 484.119 214.095 510.018C214.695 513.018 216.395 514.919 219.195 516.319C248.695 530.919 279.995 537.719 314.595 538.319C330.895 537.919 348.895 536.619 366.495 531.719C379.595 528.119 392.495 524.119 404.695 517.919C409.295 515.519 412.695 512.619 413.995 507.119C415.295 501.619 417.295 495.919 421.095 491.419C430.695 479.819 443.595 473.619 458.295 471.619C465.995 470.519 471.795 467.619 475.695 460.919C476.495 459.619 477.495 458.519 478.395 457.319C497.295 432.819 511.395 406.119 519.095 376.119C522.895 361.619 525.695 347.219 520.195 332.319C517.595 325.519 518.195 318.219 520.395 311.219C523.695 300.419 523.295 289.719 520.295 278.919C518.895 273.519 517.195 268.119 516.195 262.619C515.295 257.619 512.395 252.519 514.595 247.619C517.295 241.819 518.895 235.919 519.895 229.619C520.495 225.319 521.995 221.619 526.895 220.419C528.695 220.019 529.895 218.218 530.495 216.518C534.295 205.619 541.195 195.418 539.495 183.018C539.395 182.319 539.495 181.618 539.695 181.018C542.095 174.519 539.395 168.819 535.195 164.719C531.695 161.219 526.795 164.419 522.595 165.819C520.495 166.519 518.495 167.219 516.295 167.319C511.995 167.419 508.295 166.318 505.995 162.518C502.495 156.619 497.295 154.219 490.695 153.919C484.295 153.619 479.595 150.619 477.095 144.719C474.995 139.819 473.495 134.718 471.095 130.018C467.395 122.719 463.495 115.019 454.195 113.219C441.995 110.919 429.795 110.119 418.195 115.919C413.895 118.119 409.895 118.419 405.395 116.819C394.795 113.119 383.795 110.618 372.995 107.518C361.995 104.419 352.995 106.019 344.895 114.219C340.195 118.919 334.195 122.119 327.695 123.819C310.395 128.319 294.895 125.218 281.695 112.518ZM167.795 499.116C157.695 499.316 149.095 507.916 149.395 517.516C149.695 526.616 158.295 534.216 167.895 534.116C177.995 534.016 185.494 526.517 185.495 516.417C185.595 507.217 176.995 498.916 167.795 499.116ZM461.695 499.418C451.395 499.418 443.795 507.018 443.795 517.218C443.895 526.418 451.596 533.517 461.496 533.517C471.995 533.417 478.795 526.818 478.795 516.618C478.695 506.218 471.995 499.418 461.695 499.418ZM560.995 307.816C552.395 307.817 544.695 314.917 544.695 322.717C544.795 331.517 552.395 338.416 561.895 338.516C570.495 338.616 577.595 331.717 577.595 323.217C577.695 314.517 570.395 307.816 560.995 307.816ZM315.496 64.7196C305.796 64.5196 298.196 71.319 297.996 80.4188C297.696 91.0186 304.295 98.419 314.395 98.8192C324.395 99.2192 332.195 91.9192 332.395 81.8192C332.595 72.5192 325.095 64.9197 315.496 64.7196Z" fill="white"/>
<path d="M682.395 93.6203C704.795 94.1203 727.296 92.7203 749.696 94.6203C750.795 94.5203 751.695 94.5199 752.395 94.1203C768.595 96.4203 780.195 104.72 786.495 120.12C788.995 126.32 790.595 132.72 790.895 139.42C791.695 153.32 792.495 167.32 788.995 181.02C785.595 194.62 777.695 204.82 765.395 211.22C765.495 213.32 767.095 212.62 767.995 213.02C781.395 218.62 788.195 229.22 790.295 243.02C792.695 258.42 791.195 273.92 791.395 289.319C791.595 303.119 791.096 316.92 795.196 330.819H759.095C756.995 330.819 756.695 329.32 756.295 327.92C754.395 321.02 753.295 314.019 753.295 306.819C753.195 289.82 753.195 272.92 753.295 255.92C753.295 252.42 752.795 248.92 751.895 245.62C749.495 236.42 742.795 231.52 732.395 231.12C727.095 230.92 721.795 230.92 716.395 230.92C714.595 232.72 715.395 235.02 715.295 237.12C715.195 265.92 715.295 294.72 715.295 323.52C715.295 330.32 715.295 330.319 708.395 330.319C699.895 330.319 691.395 330.22 682.895 330.42C679.395 330.52 677.995 329.219 678.295 325.819C678.395 324.62 678.295 323.519 678.295 322.319V101.72C678.295 100.42 678.395 99.0199 678.295 97.7199C678.095 94.82 679.295 93.6204 682.395 93.6203ZM719.896 126.919C717.096 126.719 716.295 127.719 716.295 130.519C716.495 141.119 716.396 151.819 716.396 162.419C716.496 170.219 716.496 178.019 716.396 185.819C716.396 198.019 716.396 198.019 728.696 197.519C741.695 197.019 750.495 189.619 752.295 176.919C753.895 165.819 753.795 154.718 752.295 143.618C750.895 132.919 743.895 127.119 732.896 127.019C728.496 127.019 724.196 127.119 719.896 126.919Z" fill="white"/>
<path d="M947.895 356.419C960.995 356.619 974.195 355.819 987.295 356.719C1004.69 357.919 1018.09 366.519 1019.59 387.119C1020.09 393.319 1020.29 399.32 1019.59 405.52C1018.49 416.019 1014.29 424.619 1004.09 430.219C1017.89 435.419 1022.29 446.019 1022.39 459.119C1022.49 468.419 1023.1 477.719 1021.5 486.919C1018.4 504.119 1007.6 513.919 990.195 514.419C976.095 514.819 961.895 514.419 947.795 514.619C944.795 514.619 944.295 513.519 944.295 510.819C944.395 460.619 944.395 410.319 944.295 360.119C944.295 357.319 944.995 356.419 947.895 356.419ZM971.295 442.518C968.795 442.418 968.694 443.717 968.694 445.617C968.794 452.617 968.694 459.617 968.694 466.617C968.694 470.317 968.595 473.918 968.895 477.518C968.994 482.118 966.895 488.317 969.795 490.917C972.895 493.617 978.995 491.418 983.795 491.318C990.495 491.217 995.494 487.117 996.194 480.717C997.094 472.117 997.595 463.417 996.295 454.818C995.195 447.818 992.094 444.918 985.194 443.318C980.595 442.218 975.895 442.818 971.295 442.518ZM973.395 378.618C969.795 378.218 968.295 379.118 968.595 383.118C968.995 388.718 968.695 394.318 968.695 400.018C968.695 403.518 968.695 407.018 968.795 410.418C968.695 422.218 969.995 423.218 981.995 421.018C988.395 419.918 992.395 416.718 993.595 410.018C994.695 403.418 994.695 396.718 993.795 390.218C992.595 381.518 988.894 378.818 979.895 378.718C977.695 378.718 975.494 378.918 973.395 378.618Z" fill="white"/>
<path d="M873.895 356.221C884.395 353.621 894.895 353.82 905.294 357.32C918.694 361.82 924.994 372.02 926.294 385.32C928.294 405.52 926.995 425.921 927.095 446.221C927.195 459.221 927.995 472.221 926.495 485.121C924.295 503.821 913.295 514.821 894.495 516.421C885.195 517.221 875.795 516.921 867.195 512.621C854.895 506.421 849.895 495.52 849.395 482.52C848.895 467.021 849.395 451.52 849.395 436.02C849.395 420.721 848.895 405.421 849.495 390.121C850.195 372.721 857.895 360.121 873.895 356.221ZM888.295 377.818C880.495 377.918 875.495 382.718 875.495 391.118C875.395 420.718 875.395 450.418 875.595 480.018C875.595 485.218 877.495 490.118 883.095 492.418C892.395 496.118 901.195 490.217 901.295 480.018C901.395 465.418 901.295 450.718 901.295 436.118C901.295 421.218 901.395 406.218 901.195 391.218C901.095 383.018 895.695 377.619 888.295 377.818Z" fill="white"/>
<path d="M1087.4 356.719C1089.6 356.719 1090 357.619 1090.3 359.619C1095.5 390.419 1100.8 421.219 1106.1 452.119C1109.5 472.019 1112.6 491.919 1116 511.818C1116.5 514.618 1115.5 514.918 1113.2 514.818C1109.9 514.518 1106.6 514.619 1103.3 514.619H1097.3C1090.1 514.619 1090.2 514.619 1089.2 507.719C1088.3 501.319 1087 495.019 1086.3 488.619C1086 486.219 1085.4 485.519 1083.1 485.619C1075.8 485.719 1068.5 485.819 1061.1 485.619C1058.1 485.519 1057.6 487.019 1057.3 489.519C1056.4 496.719 1055.2 503.919 1054.3 511.219C1054 513.719 1053 514.918 1050.2 514.818C1044.4 514.618 1038.5 514.418 1032.7 514.818C1028.8 515.118 1028.8 513.119 1029.2 510.419C1031 500.119 1032.9 489.919 1034.6 479.619C1038.5 456.119 1042.3 432.619 1046.1 409.119C1048.8 392.319 1051.5 375.519 1054.1 358.619C1054.4 356.719 1055.5 356.719 1056.9 356.719H1087.4ZM1071.8 388.418C1071.6 388.718 1071.4 388.818 1071.4 389.018C1067.7 412.718 1064.1 436.418 1060.4 460.118C1060 462.518 1061.3 462.918 1063.2 462.918C1068.5 462.918 1073.8 462.718 1079.1 463.018C1083 463.218 1083.3 461.718 1082.8 458.318C1079 435.118 1075.5 411.918 1071.8 388.418Z" fill="white"/>
<path d="M308.795 466.62C305.195 465.52 301.495 464.92 298.095 466.52C294.695 468.22 291.095 469.32 287.495 470.62C285.995 471.12 285.095 471.62 283.595 470.32C281.295 468.32 279.195 470.32 276.995 471.52C273.895 473.22 277.795 474.52 276.995 475.92C276.895 476.12 277.095 476.52 277.195 476.82C278.495 479.42 280.095 482.82 277.295 484.62C275.795 485.62 272.195 484.32 270.595 481.62C269.895 480.42 268.595 480.72 267.495 480.62C259.895 479.42 256.995 475.62 259.095 468.62C260.195 465.12 258.795 463.32 256.495 462.12C251.995 459.62 249.495 454.32 243.895 453.32C242.495 453.02 243.895 451.82 244.095 451.02C245.195 446.32 247.895 441.82 245.995 436.72C248.795 434.92 250.795 437.22 252.695 438.42C265.195 446.02 278.795 450.72 293.195 453.32C293.795 453.42 294.495 453.62 295.095 453.12C294.795 444.52 293.595 443.12 285.795 441.12C275.395 438.52 265.795 434.12 256.995 427.82C249.695 420.22 242.295 412.72 235.495 404.62C232.895 401.52 228.895 402.22 225.295 402.22C219.795 398.12 216.495 392.32 212.995 386.72C206.295 375.92 200.995 364.52 197.995 352.12C196.995 348.02 193.095 345.72 188.995 346.42C185.995 346.92 187.195 349.12 187.495 350.72C189.295 360.02 192.095 369.12 196.195 377.72C200.195 385.92 204.395 394.02 210.195 401.22C211.495 402.82 213.295 404.42 211.895 406.92C211.595 413.42 204.395 414.02 201.795 418.62C201.395 419.22 199.695 418.62 198.595 418.02C191.495 414.42 184.295 412.62 177.095 417.92C175.595 419.02 175.495 418.02 174.695 417.02C172.695 414.72 170.295 413.02 166.895 414.62C166.195 414.92 165.195 415.22 164.495 414.92C157.995 412.72 150.895 413.92 144.395 409.22C140.295 406.22 136.695 402.12 131.695 399.92C130.495 399.42 130.195 396.92 129.295 395.42C126.395 390.62 121.895 387.92 116.495 387.02C112.495 386.32 109.095 384.12 104.995 383.72C103.095 383.52 100.195 381.82 101.595 378.32C101.895 377.52 101.095 376.12 100.495 375.22C97.7954 371.22 96.1954 367.02 96.9954 362.12C97.0954 361.12 97.0954 360.12 96.2954 359.32C93.6954 356.92 95.7954 355.62 97.5954 354.32C103.095 350.12 102.995 349.92 99.7954 344.02C97.4954 339.82 96.2954 334.82 95.7954 330.52C95.0954 324.02 90.5954 322.42 86.3954 320.52C83.0954 319.02 80.5954 318.42 81.6954 313.62C82.4954 310.42 80.2954 307.52 76.8954 306.42C68.2954 303.52 66.5954 300.72 71.6954 293.62C75.1954 288.82 71.7954 288.42 69.2954 287.32C62.1954 284.22 60.7954 282.22 60.9954 274.52C61.0954 269.42 68.0954 260.52 72.9954 259.32C73.8954 259.12 75.1954 259.02 75.8954 259.52C80.4954 262.82 84.7954 260.22 89.0954 259.02C97.6954 256.72 105.995 253.92 113.995 250.02C116.295 248.92 118.395 247.72 119.495 245.32C119.695 244.92 120.295 244.12 120.195 244.12C115.095 240.42 120.495 238.42 121.495 235.62C122.395 233.22 121.595 231.02 120.395 228.92C117.695 224.02 119.095 219.62 121.795 215.32C124.095 211.72 127.395 209.82 131.395 212.52C133.295 213.82 135.195 213.42 136.895 213.42C138.895 213.42 141.095 211.52 139.395 209.32C137.195 206.52 138.595 204.72 139.695 202.22C141.295 198.42 144.495 196.02 146.395 192.42C147.795 189.72 150.995 190.82 153.595 191.92C162.095 195.52 161.895 195.52 162.995 186.32C163.395 183.02 164.095 179.52 168.695 178.82C171.895 178.32 171.795 174.62 173.395 172.52C177.595 166.72 183.995 166.02 187.795 172.12C193.195 180.62 199.895 187.82 206.095 195.62C208.695 198.92 208.595 206.62 205.395 211.02C203.695 213.42 203.895 215.12 206.595 215.12C216.095 215.22 224.595 218.92 233.195 222.02C233.595 222.22 234.195 221.92 234.695 221.92C234.295 225.92 230.695 227.32 228.195 229.42C206.195 248.02 191.895 275.52 186.595 303.52C186.895 304.12 187.395 303.82 187.895 303.82C195.095 303.82 198.395 300.42 200.095 293.22C205.295 271.62 216.995 253.72 232.995 238.52C234.295 237.22 235.395 235.22 237.895 236.22C240.895 236.02 242.495 237.52 244.295 239.92C247.095 243.82 252.195 243.72 256.295 243.82C269.195 244.22 280.995 247.32 291.595 254.92C292.795 255.92 292.795 257.32 292.495 258.62C291.395 264.82 290.395 271.12 288.595 277.22C287.295 281.72 286.195 282.02 282.395 279.32C272.895 272.52 263.295 266.02 253.795 259.22C252.495 258.32 251.395 256.82 249.395 257.02C248.995 259.42 250.795 260.62 251.895 262.12C259.195 272.22 266.495 282.32 273.795 292.42C277.295 297.22 276.695 298.82 270.795 300.02C227.195 308.62 183.495 316.22 139.795 324.52C138.995 324.62 138.295 325.12 137.395 324.72C149.495 325.72 161.195 329.02 173.095 331.02C205.695 336.62 238.195 343.42 270.595 350.12C277.095 351.52 277.595 352.72 273.295 358.22C265.695 367.72 258.395 377.42 250.995 387.02C249.295 389.22 247.495 391.42 246.895 394.62C249.395 395.02 250.895 393.52 252.395 392.42C263.395 384.42 274.995 377.22 285.695 368.62C286.695 367.82 287.795 367.02 288.995 366.42C291.295 365.22 292.795 366.12 293.595 368.42C293.995 369.72 294.195 371.02 294.395 372.32C298.995 401.72 304.395 431.02 309.195 460.42C309.895 462.32 310.895 464.62 308.795 466.62Z" fill="#567B8A"/>
<path d="M308.796 466.617C307.696 453.517 304.697 440.717 302.697 427.817C299.597 407.817 296.097 387.917 292.697 367.917C292.597 367.317 292.296 366.717 291.896 365.417C282.996 372.417 273.995 378.917 264.995 385.117C259.895 388.617 254.996 392.217 249.896 395.717C248.596 396.617 247.095 398.117 245.495 396.417C244.195 395.017 245.596 393.517 246.296 392.317C252.196 382.417 259.797 373.817 266.697 364.617C269.697 360.617 272.796 356.817 276.396 352.317C229.096 342.117 181.996 333.517 134.896 323.917C181.896 315.117 228.896 306.317 276.495 297.417C268.795 286.717 261.395 276.517 253.995 266.317C252.195 263.917 250.396 261.517 248.596 259.117C247.596 257.817 246.196 256.417 247.696 254.717C249.296 252.917 250.796 254.617 252.096 255.517C263.496 263.517 274.896 271.717 286.796 280.217C289.096 271.617 290.895 263.317 291.995 254.717C295.995 234.617 299.995 214.517 303.995 194.417C307.295 177.917 310.695 161.417 313.995 144.917C314.095 144.217 314.396 143.617 315.396 143.617C322.296 177.517 328.595 211.517 333.995 245.717C337.295 253.317 336.896 261.617 338.096 269.617C338.696 273.817 339.197 278.117 339.697 282.317C341.497 283.017 342.296 281.717 343.296 280.917C355.796 271.317 368.496 261.817 381.296 252.617C382.196 251.917 383.097 251.117 384.197 250.717C386.797 249.717 388.896 251.217 388.596 254.017C388.396 255.917 387.297 257.417 386.197 258.817C378.297 269.517 370.796 280.517 362.896 291.217C360.096 294.917 360.196 295.117 364.796 296.017C378.996 298.617 393.196 301.217 407.396 304.317C409.996 304.917 412.495 305.717 414.995 306.517C439.395 311.517 463.795 316.517 488.195 321.617C491.895 322.417 495.796 322.817 499.796 324.817C474.896 328.817 450.796 334.317 426.396 337.717C424.596 338.017 422.795 338.417 420.995 338.817C418.695 341.117 415.696 341.417 412.796 341.917C396.796 344.817 380.696 347.517 364.596 350.017C358.896 350.917 358.496 351.417 362.096 355.817C370.796 366.517 378.696 377.917 387.096 388.717C388.796 390.917 392.097 393.717 389.697 396.417C387.097 399.417 383.796 396.717 381.296 395.017C370.896 387.817 360.795 380.317 350.495 372.917C345.795 369.517 345.796 369.717 344.396 375.317C336.396 408.817 329.395 442.417 322.495 476.117C322.095 478.117 320.996 479.717 320.096 481.517C319.696 488.817 317.896 495.817 316.296 503.017C312.696 491.117 310.996 478.817 308.796 466.617Z" fill="white"/>
<path d="M386.895 214.819C390.895 210.719 390.095 204.319 393.895 200.019C395.695 198.019 397.095 196.319 400.095 197.719C401.095 198.219 402.395 197.919 403.595 197.819C405.895 197.519 409.395 199.219 410.295 196.319C410.995 194.019 408.295 191.619 406.795 189.519C404.995 187.119 402.095 187.019 399.995 188.419C395.595 191.519 391.795 191.119 387.995 187.619C387.195 186.919 386.195 187.019 385.195 187.219C383.695 187.419 382.495 190.019 380.595 187.419C378.695 185.019 377.995 182.319 379.295 180.019C382.395 174.719 385.695 169.619 388.295 164.019C389.495 161.519 392.995 162.519 395.495 163.719C404.695 168.019 408.595 166.019 411.095 156.419C412.795 149.919 413.395 143.119 418.895 138.119C421.095 136.119 417.495 133.719 417.695 131.319C417.795 130.219 415.995 129.919 416.895 128.319C420.995 121.119 432.695 116.419 441.195 116.919C449.595 117.419 455.695 122.219 461.495 126.719C465.695 130.019 468.295 135.619 470.595 140.619C472.095 143.819 473.195 147.219 474.595 150.419C478.795 160.019 480.695 161.519 491.495 161.819C496.595 161.919 502.295 167.419 502.695 172.519C502.995 177.219 507.395 179.519 511.495 177.519C516.595 175.019 521.895 172.719 527.195 170.719C530.295 169.519 534.095 173.619 533.295 177.519C532.395 181.919 532.595 186.219 532.495 190.619C531.895 203.719 526.295 214.219 514.395 220.419C511.895 221.719 512.095 222.919 512.795 225.119C514.795 231.519 516.695 237.919 510.695 243.519C508.995 245.119 506.595 245.019 504.995 246.219C499.695 250.119 494.295 254.119 492.495 261.019C491.395 265.019 488.895 265.119 485.595 263.819C482.495 262.619 479.995 258.319 476.795 259.819C474.195 261.019 472.695 264.819 470.795 267.519C468.395 271.119 465.695 274.419 461.195 275.619C460.695 275.719 460.095 275.919 459.895 276.219C456.895 280.919 452.595 283.919 447.195 285.319C445.995 285.619 445.795 286.619 445.595 287.619C443.395 287.419 443.395 285.419 442.795 284.019C436.595 270.019 429.695 256.519 419.795 244.619C411.095 234.219 400.895 225.619 389.895 217.819C388.695 217.219 386.495 217.219 386.895 214.819Z" fill="#567B8A"/>
<path d="M320.096 481.617C327.596 443.617 335.696 405.717 344.896 367.417C355.996 375.417 366.896 383.217 377.696 391.017C380.096 392.717 382.596 394.417 385.096 396.017C386.396 396.817 388.096 397.417 389.196 396.017C390.296 394.717 388.796 393.517 388.096 392.517C378.796 380.117 369.496 367.917 360.196 355.517C358.896 353.817 356.196 352.017 357.196 350.217C358.096 348.417 361.296 348.817 363.496 348.417C382.696 345.417 401.896 342.617 420.796 338.617C422.796 346.417 425.196 354.217 428.896 361.417C429.096 361.917 429.896 362.017 430.496 362.317C431.896 365.117 430.296 367.517 429.196 369.817C413.396 403.117 389.196 427.417 353.896 439.717C350.896 440.717 347.796 441.317 344.696 441.817C340.396 442.517 336.796 448.217 337.896 452.217C338.496 454.517 340.296 453.517 341.596 453.317C354.796 451.417 367.096 447.017 378.596 440.417C400.196 428.117 418.196 411.917 430.896 390.317C431.696 388.917 432.396 387.217 434.496 387.417C435.996 387.517 437.496 387.217 438.896 388.017C440.296 388.817 442.496 389.317 441.896 391.217C441.396 392.917 439.896 392.417 438.396 391.317C437.096 390.417 436.096 392.417 435.696 393.417C435.096 394.917 436.296 395.717 437.796 395.817C440.696 395.917 440.196 396.617 439.696 399.317C438.496 405.717 432.896 409.417 431.296 414.817C429.596 420.617 424.296 423.117 422.296 428.217C422.096 428.817 421.096 429.517 421.296 429.817C425.396 437.817 418.196 441.817 414.696 446.617C411.696 450.817 406.996 454.017 403.396 457.717C399.196 462.017 394.896 465.817 389.796 468.817C386.196 471.017 381.996 472.117 378.596 474.817C377.796 475.517 376.496 475.517 375.896 474.617C372.496 469.917 370.996 473.417 368.796 475.917C363.496 481.817 356.396 484.217 348.896 484.117C344.696 484.117 343.996 486.817 342.896 489.217C341.696 492.017 345.096 491.917 346.296 492.817C351.696 497.117 351.796 496.917 348.196 503.517C347.996 503.817 347.796 504.117 347.796 504.417C346.396 512.017 338.596 512.617 334.096 516.917C332.496 518.417 327.496 512.717 326.896 509.017C325.996 502.717 329.196 498.417 333.396 494.417C339.396 488.717 339.596 488.217 333.396 483.817C329.696 481.317 324.896 479.917 320.096 481.617Z" fill="#567B8A"/>
<path d="M414.895 306.516C395.995 303.116 377.095 299.716 357.695 296.216C364.295 286.916 370.695 278.016 377.195 269.016C380.095 265.016 383.095 261.016 385.995 256.916C387.195 255.316 388.595 253.216 386.895 251.516C384.895 249.416 383.895 252.416 382.595 253.316C368.195 263.916 353.795 274.616 338.695 285.916C337.095 272.216 335.495 259.016 333.995 245.716C337.895 243.916 342.295 243.316 345.795 240.216C349.095 237.316 349.295 234.516 347.995 231.016C345.695 224.816 347.795 221.716 354.495 221.816C357.995 221.816 361.495 221.916 364.995 221.816C366.395 221.816 368.195 222.316 368.595 220.116C370.295 218.616 371.795 220.016 373.095 220.716C395.295 232.016 412.995 248.016 424.095 270.716C424.595 271.716 425.395 272.716 424.595 273.916C421.695 274.116 419.895 276.016 417.995 277.916C412.495 283.516 407.295 289.516 400.495 293.816C397.495 295.716 397.895 298.416 401.395 299.516C406.395 301.116 410.495 304.216 414.895 306.516Z" fill="#567B8A"/>
<path d="M434.595 387.616C429.195 395.116 424.795 403.216 418.395 410.116C398.895 431.416 376.195 447.716 347.395 453.616C332.395 456.716 335.995 457.416 338.095 444.116C338.395 442.216 339.395 441.516 341.395 441.116C383.295 432.916 409.795 406.016 428.195 369.416C429.295 367.216 429.795 364.716 430.595 362.416C431.695 358.416 433.295 354.516 433.595 350.416C433.895 345.816 435.895 343.716 440.195 342.816C448.695 340.916 448.595 340.816 447.095 349.716C444.995 363.116 440.895 375.716 434.595 387.616Z" fill="white"/>
<path d="M424.695 273.919C417.395 258.419 406.895 245.319 393.295 234.819C385.695 228.919 377.795 223.519 368.695 220.219C359.495 215.519 349.495 213.219 339.295 211.919C336.595 211.619 335.395 210.519 335.095 207.519C333.995 196.719 333.895 196.719 344.595 198.819C359.595 201.719 373.895 206.319 386.795 214.819C415.095 232.119 433.895 257.119 445.495 287.819C446.695 293.119 447.695 298.519 448.995 303.719C449.695 306.619 448.795 306.419 446.295 306.119C438.095 305.319 433.595 301.719 432.295 293.019C431.495 286.319 427.695 280.119 424.695 273.919Z" fill="white"/>
<path d="M211.995 406.617C209.795 400.817 205.095 396.517 201.995 391.217C193.495 376.617 187.996 361.917 185.396 345.017C188.896 344.217 192.295 345.517 195.695 345.317C197.695 345.217 198.295 346.617 198.595 348.117C202.995 368.317 212.695 385.817 225.695 401.717C235.095 411.817 246.696 418.917 257.896 426.717C267.196 433.317 277.395 438.117 288.495 440.117C293.395 441.017 295.295 443.217 295.995 447.517C296.395 449.917 297.095 452.317 297.695 455.017C280.895 452.517 265.495 447.717 251.495 438.717C249.895 437.617 248.395 436.217 246.095 436.417C232.695 428.817 222.095 418.117 211.995 406.617Z" fill="white"/>
<path d="M238.096 236.017C219.296 251.517 207.196 271.217 200.896 294.617C198.496 303.317 198.596 303.317 189.896 304.617C186.096 305.217 184.496 305.317 185.696 300.217C193.096 269.417 207.996 243.317 233.096 223.417C233.696 222.917 234.196 222.217 234.796 221.717C250.996 208.917 269.496 201.317 289.696 197.817C293.596 197.117 296.096 197.417 294.296 202.317C293.996 203.117 293.996 203.917 293.996 204.817C294.196 209.817 291.896 212.017 286.896 212.917C271.896 215.617 258.196 221.917 245.396 230.017C242.696 231.617 240.496 234.017 238.096 236.017Z" fill="white"/>
<path d="M441.696 444.92C438.896 451.22 440.996 459.32 435.496 465.42C434.096 466.92 432.796 468.42 431.096 469.32C429.696 470.12 428.696 470.12 427.696 468.12C425.896 464.12 424.596 460.12 424.096 455.82C423.796 452.72 426.596 450.62 427.996 448.22C428.996 446.52 430.296 444.72 430.396 442.92C430.496 438.02 434.996 437.52 437.296 437.52C440.196 437.52 441.596 441.12 441.696 444.92Z" fill="#567B8A"/>
<path d="M314.896 354.82C297.096 354.82 282.896 340.32 282.896 322.22C282.996 304.72 297.396 290.52 315.296 290.52C333.996 290.52 348.996 305.02 348.796 322.82C348.696 340.82 333.796 354.82 314.896 354.82Z" fill="#567B8A"/>
<path d="M464.495 321.718C431.095 321.718 397.695 321.718 364.295 321.718C355.395 321.718 355.495 321.718 353.295 313.518C352.595 310.918 351.595 308.518 350.695 306.018C350.195 304.818 348.795 303.518 349.595 302.418C350.495 301.018 352.295 301.818 353.795 302.018C368.695 304.618 383.495 307.118 398.295 309.818C418.495 313.518 438.995 315.518 459.095 319.718C460.995 320.118 462.895 320.618 464.795 321.018C464.595 321.118 464.595 321.418 464.495 321.718Z" fill="#567B8A"/>
<path d="M283.395 345.717C245.595 340.517 208.895 333.617 172.095 326.717C179.195 326.717 186.195 326.417 193.295 326.817C219.395 328.117 245.495 327.517 271.595 327.817C275.495 327.817 277.495 328.517 278.295 332.917C279.195 337.017 281.395 340.917 283.395 345.717Z" fill="#567B8A"/>
<path d="M336.295 355.418C331.195 389.318 326.195 422.518 321.195 455.818C319.295 455.418 319.795 454.218 319.795 453.418C319.495 423.818 319.195 394.218 318.795 364.518C318.695 361.018 319.395 359.518 323.295 359.518C327.595 359.518 331.495 357.118 336.295 355.418Z" fill="#567B8A"/>
<path d="M311.095 247.719C311.295 259.419 311.495 271.119 311.695 282.919C311.695 284.019 311.395 284.819 310.195 285.019C304.995 285.819 300.195 288.019 294.695 290.819C295.695 278.819 296.995 267.719 299.895 256.919C302.295 252.219 306.795 250.119 311.095 247.719Z" fill="#567B8A"/>
<path d="M311.095 247.719C310.795 249.319 310.595 250.519 308.295 250.919C304.895 251.619 303.095 255.319 299.995 256.819C301.595 242.919 303.995 229.119 306.395 215.319C307.995 206.219 309.595 197.219 311.095 188.719C311.095 207.919 311.095 227.819 311.095 247.719Z" fill="#567B8A"/>
</g>
<g clip-path="url(#clip1_553_1271)">
<mask id="mask0_553_1271" style="mask-type:luminance" maskUnits="userSpaceOnUse" x="1415" y="3" width="632" height="632">
<path d="M2047 3H1415V635H2047V3Z" fill="white"/>
</mask>
<g mask="url(#mask0_553_1271)">
<path d="M2047 327.302C2046.78 327.302 2046.6 327.302 2046.38 327.302C2046.41 324 2046.41 320.728 2046.44 317.427C2046.63 317.396 2046.81 317.396 2047 317.457C2047 320.728 2047 324.03 2047 327.302Z" fill="white"/>
<path d="M1716.84 12.597C1722.27 1.7962 1737.85 1.549 1744.21 12.072C1747.66 17.781 1750.94 23.6139 1754.3 29.3846C1756.46 33.0875 1761.71 33.6739 1764.58 30.4954C1768.56 26.0826 1772.54 21.608 1776.52 17.1951C1778.18 15.3744 1779.82 13.5224 1781.98 12.2263C1790.16 7.38137 1800.5 10.7763 1804.01 19.6946C1806.33 25.527 1808.15 31.5138 1810.19 37.4388C1810.28 37.7165 1810.34 38.0253 1810.46 38.3338C1812.31 43.1167 1811.05 42.4379 1816.67 43.95C1818.49 44.4437 1819.78 43.8884 1821.17 42.8084C1826.51 38.6424 1831.85 34.445 1837.31 30.4333C1841.04 27.6869 1845.27 26.638 1849.87 27.8724C1856.57 29.6622 1860.33 34.1983 1861.38 40.8948C1862.37 47.0666 1863.39 53.3004 1863.73 59.534C1863.94 63.6691 1866.38 65.1815 1869.44 66.601C1870.64 67.1565 1871.63 66.5078 1872.64 66.0449C1878.79 63.1753 1884.96 60.3362 1891.07 57.4045C1894.55 55.7382 1898.17 55.3064 1901.87 56.1087C1908.44 57.5282 1913.01 63.1754 1913.04 70.1807C1913.07 76.2291 1912.64 82.3084 1912.39 88.3569C1912.33 89.6838 1912.36 91.0416 1912.14 92.3686C1911.74 94.683 1912.79 96.1026 1914.43 97.6147C1916.59 99.6205 1918.59 99.8983 1921.37 99.1576C1927.82 97.3986 1934.33 95.9174 1940.84 94.5287C1949.52 92.6463 1957.51 98.2936 1958.53 106.872C1958.77 109.063 1958.37 111.162 1957.85 113.26C1956.24 119.74 1954.73 126.252 1953.03 132.701C1952.57 134.491 1952.69 135.88 1954.02 137.176C1954.45 137.608 1954.85 138.102 1955.16 138.627C1956.06 140.077 1957.26 140.602 1959.02 140.509C1964.36 140.231 1969.7 140.077 1975.04 139.892C1977.1 139.83 1979.14 139.738 1981.21 139.738C1991.89 139.83 1998.67 149.736 1994.72 159.703C1992.07 166.4 1988.74 172.788 1985.62 179.269C1983.71 183.249 1986.05 188.032 1990.47 188.711C1997.07 189.729 2003.67 190.563 2010.28 191.551C2019.04 192.878 2024.63 200.438 2023.05 208.77C2022.53 211.578 2021.14 213.954 2019.47 216.207C2015.59 221.484 2011.64 226.761 2007.78 232.099C2005.12 235.771 2006.88 241.049 2011.14 242.469C2017.28 244.505 2023.45 246.511 2029.6 248.548C2033.21 249.751 2036.29 251.757 2038.45 254.904C2042.28 260.459 2041.63 267.495 2036.88 272.803C2033.64 276.413 2030.06 279.623 2026.48 282.863C2024.41 284.714 2022.44 286.69 2020.37 288.48C2019.16 289.529 2018.7 290.733 2018.98 292.306C2019.1 292.924 2019.16 293.541 2019.1 294.158C2018.89 295.948 2019.81 296.966 2021.23 297.892C2026.76 301.441 2032.43 304.805 2038.11 308.106C2040.15 309.31 2042.12 310.606 2043.7 312.427C2044.99 313.908 2046.2 315.451 2046.54 317.457C2047.09 320.265 2046.66 323.104 2046.78 325.943V326.869C2046.72 327.332 2046.54 327.733 2046.44 328.195C2046.35 328.473 2046.26 328.751 2046.11 329.029C2045.83 329.585 2045.55 330.109 2045.18 330.603C2040.24 336.404 2033.24 339.212 2027.03 343.193C2025.55 344.119 2023.98 344.891 2022.53 345.878C2019.16 348.131 2018.61 352.266 2021.45 355.105C2025.64 359.302 2029.75 363.622 2034.26 367.572C2038.08 370.936 2041.2 374.824 2041.17 380.441C2041.11 387.353 2037.59 392.969 2031.17 395.654C2025.31 398.123 2019.07 399.604 2013.05 401.734C2007.25 403.801 2005.9 407.875 2009.51 412.843C2013.46 418.244 2017.84 423.305 2021.33 429.013C2027.06 438.395 2023.15 448.763 2012.65 452.22C2008.52 453.578 2004.2 453.979 1999.94 454.503C1996.76 454.874 1993.64 455.46 1990.5 455.923C1987.01 456.417 1984.88 460.274 1986.24 463.607C1988.68 469.594 1991.42 475.488 1994.51 481.166C2001.27 493.602 1990.77 505.266 1979.85 504.742C1973.4 504.433 1966.95 503.909 1960.47 504.002C1955.26 504.063 1952.85 507.18 1954.11 512.302C1955.59 518.382 1957.26 524.431 1958.62 530.541C1960.66 539.737 1955.47 547.76 1946.37 549.859C1944.73 550.229 1943.13 550.167 1941.49 549.828C1934.64 548.439 1927.88 546.711 1921.06 545.137C1915.82 543.902 1912.36 546.865 1912.92 552.173C1913.56 558.283 1913.93 564.455 1913.97 570.596C1914.03 583.989 1902.36 591.518 1890.17 585.902C1884.59 583.31 1878.91 580.872 1873.48 577.941C1871.41 576.83 1869.47 576.737 1867.34 577.878C1865.64 578.804 1864.84 580.008 1864.62 581.983C1863.94 588.618 1862.95 595.222 1862 601.826C1861.32 606.547 1858.88 610.312 1855.05 613.058C1850.24 616.545 1845.03 617.101 1839.66 614.355C1834.97 611.948 1831.17 608.244 1826.94 605.158C1824.87 603.646 1822.9 601.98 1820.8 600.499C1816.94 597.783 1812.78 599.079 1811.2 603.492C1809.17 609.201 1807.59 615.065 1805.22 620.65C1804.07 623.397 1802.66 625.958 1800.65 628.272C1795.62 634.105 1784.66 634.66 1779.02 628.797C1775.53 625.187 1772.14 621.453 1768.83 617.687C1767.14 615.743 1765.41 613.861 1763.49 612.164C1760.63 609.603 1756.83 610.127 1754.82 613.398C1751.71 618.459 1748.87 623.705 1745.91 628.89C1744.49 631.328 1742.73 633.426 1740.54 635.154H1720.82C1718.13 633.858 1716.99 631.204 1715.6 628.859C1712.73 623.983 1710.08 619.015 1707.08 614.201C1704.52 610.065 1700.17 609.849 1696.93 613.429C1692.7 618.058 1688.51 622.718 1684.34 627.378C1676.47 636.172 1661.6 634.691 1657.34 622.471C1655.18 616.268 1652.99 610.065 1650.83 603.863C1649.35 599.542 1644.93 598.092 1641.26 600.777C1636.11 604.542 1631.08 608.43 1625.95 612.195C1621.91 615.157 1617.5 616.793 1612.38 615.589C1606.24 614.139 1602.1 610.497 1600.56 604.326C1599.05 598.246 1598.64 591.95 1597.93 585.748C1597.81 584.637 1597.53 583.496 1597.53 582.385C1597.53 577.91 1592.66 575.935 1588.99 577.57C1583.09 580.224 1577.38 583.279 1571.46 585.902C1565.78 588.432 1560.38 588.896 1555.13 585.193C1549.42 581.181 1547.51 575.471 1548.13 568.775C1548.68 563.066 1548.99 557.326 1549.15 551.587C1549.27 546.279 1546.12 543.903 1541.03 545.106C1534.73 546.588 1528.47 548.285 1522.14 549.581C1509.99 552.08 1500.73 542.637 1503.35 530.509C1504.71 524.276 1506.56 518.196 1508.13 511.994C1509.24 507.581 1506.81 503.971 1502.36 504.033C1496.41 504.125 1490.45 504.341 1484.56 504.989C1477.98 505.699 1472.55 504.001 1468.48 498.693C1464.68 493.725 1464.5 488.355 1466.81 482.677C1469.25 476.691 1472.31 470.951 1474.81 464.996C1476.9 459.996 1474.9 456.571 1469.65 455.769C1463.67 454.874 1457.65 454.133 1451.66 453.3C1437.31 451.325 1434.23 435.988 1440.95 427.316C1444.66 422.533 1448.05 417.441 1452.12 412.967C1455.52 409.263 1453.94 403.308 1449.04 402.073C1442.9 400.53 1436.85 398.4 1430.95 395.962C1419.57 391.241 1416.76 377.818 1425.55 369.609C1430.43 365.042 1435.49 360.721 1440.09 355.845C1443.73 351.957 1443.17 348.161 1438.55 345.662C1432.59 342.421 1426.76 338.966 1421.17 335.108C1418.67 333.38 1416.67 331.251 1415.03 328.721C1415 324.431 1415 320.326 1415 316.191C1415.77 316.53 1416.17 316.068 1416.45 315.482C1418.15 311.995 1421.17 309.865 1424.35 307.921C1429.6 304.681 1434.87 301.502 1440.12 298.262C1444.1 295.793 1444.5 291.319 1440.95 288.14C1435.61 283.326 1430.31 278.45 1425.31 273.296C1421.79 269.655 1420.31 265.366 1420.96 260.336C1421.48 256.324 1423.61 253.269 1426.91 251.047C1428.7 249.843 1430.68 248.98 1432.74 248.332C1438.82 246.388 1444.84 244.351 1450.95 242.499C1452.83 241.913 1453.98 240.926 1454.25 238.951C1454.35 238.333 1454.47 237.716 1454.72 237.16C1455.49 235.433 1454.93 234.044 1453.85 232.624C1449.84 227.286 1445.92 221.885 1441.88 216.547C1439.5 213.399 1438.14 210.035 1438.3 205.992C1438.55 198.802 1443.14 193.248 1450.27 192.044C1457.06 190.933 1463.88 190.038 1470.7 189.05C1472 188.865 1473.57 189.02 1474.34 187.785C1475.39 186.15 1476.26 184.391 1477.03 182.601C1477.34 181.83 1476.63 181.058 1476.29 180.318C1473.29 173.683 1470.21 167.048 1467.31 160.383C1465.39 156.001 1465.42 151.557 1467.8 147.329C1470.24 143.009 1473.91 140.386 1478.94 140.17C1482.43 140.015 1485.91 140.231 1489.4 140.355C1493.72 140.509 1498.04 140.663 1502.33 140.972C1504.28 141.126 1505.73 140.632 1506.87 139.027C1507.18 138.627 1507.52 138.195 1507.92 137.886C1509.74 136.559 1509.65 134.893 1509.15 132.949C1507.39 126.283 1505.88 119.555 1504 112.951C1500.85 102.058 1510.36 92.276 1521.03 94.6522C1527.85 96.1643 1534.64 97.769 1541.46 99.3119C1542.73 99.5897 1544.12 100.485 1545.32 99.6205C1546.89 98.5096 1548.31 97.1518 1549.7 95.7631C1550.29 95.1459 1550.01 94.1887 1549.98 93.3863C1549.73 86.9058 1549.45 80.4569 1549.24 73.9764C1549.18 72.1248 1549.15 70.2733 1549.24 68.4217C1549.73 60.2132 1558.19 53.5167 1567.97 56.3865C1569.24 56.7569 1570.44 57.4048 1571.64 57.9602C1577.72 60.7067 1583.83 63.4533 1589.88 66.2615C1591.33 66.9404 1592.63 67.0324 1593.89 66.0147C1593.98 65.9529 1594.08 65.8912 1594.17 65.8604C1597.47 64.6257 1598.61 62.1879 1598.8 58.7317C1599.08 52.8994 1599.76 47.0669 1600.65 41.2654C1601.67 34.5382 1605.28 29.9707 1611.91 28.0574C1616.6 26.6996 1620.89 27.8721 1624.78 30.5569C1627.99 32.7479 1631.05 35.2171 1634.16 37.5623C1636.63 39.4139 1639.1 41.2343 1641.51 43.1785C1642.74 44.1968 1644.01 44.5053 1645.52 43.9807C1646.11 43.7955 1646.72 43.6103 1647.31 43.5485C1649.38 43.3016 1650.49 42.1907 1651.14 40.154C1653.11 33.8896 1655.27 27.6561 1657.4 21.4534C1657.86 20.0957 1658.39 18.738 1659.13 17.5037C1663.7 9.91232 1673.6 7.96818 1680.85 13.1834C1682.46 14.3252 1683.79 15.7448 1685.11 17.1951C1689 21.4227 1692.95 25.6194 1696.72 29.9704C1698.26 31.7603 1699.86 32.8403 1702.27 32.2849C1702.58 32.2232 1702.89 32.1925 1703.2 32.2234C1705.45 32.4394 1706.71 31.3903 1707.73 29.3846C1710.66 23.7374 1713.97 18.275 1716.84 12.597ZM1730.41 17.1945C1728.22 17.2564 1727.45 19.108 1726.53 20.7126C1722.58 27.5634 1718.59 34.3837 1714.74 41.2962C1713.78 42.9934 1712.64 43.7958 1710.63 43.9192C1706.22 44.1661 1701.81 44.5054 1697.46 45.2151C1694.68 45.678 1692.89 44.9371 1691.1 42.8078C1685.98 36.7902 1680.67 30.9269 1675.36 25.0637C1672.43 21.8235 1669.81 22.4409 1668.32 26.5759C1668.26 26.761 1668.2 26.9772 1668.14 27.1623C1665.64 34.6612 1663.11 42.1601 1660.7 49.6897C1660.09 51.5412 1659.13 52.6211 1657.22 53.1457C1652.86 54.3492 1648.51 55.5837 1644.25 57.1267C1641.82 58.0216 1640.03 57.5587 1638.05 56.0466C1632.03 51.4177 1625.92 46.9125 1619.78 42.407C1614.97 38.8582 1612.69 39.9381 1612.01 45.863C1611.11 53.6087 1610.03 61.3547 1609.17 69.1006C1608.98 70.8898 1608.15 71.8471 1606.67 72.6186C1602.19 74.9639 1597.78 77.3394 1593.4 79.839C1592.01 80.6414 1590.84 80.6722 1589.39 79.9625C1582.17 76.4445 1574.91 73.05 1567.66 69.6555C1565.93 68.8223 1564.17 67.5262 1562.2 68.884C1560.32 70.1492 1560.78 72.1859 1560.96 73.9758C1561.8 81.6289 1561.74 89.3752 1562.57 97.0283C1562.85 99.4965 1562.01 101.07 1560.07 102.49C1556.27 105.298 1552.66 108.354 1549.27 111.656C1547.94 112.951 1546.68 113.26 1544.86 112.828C1537.17 110.945 1529.46 109.187 1521.77 107.366C1516.25 106.039 1514.89 107.366 1516.34 112.89C1518.32 120.451 1520.23 128.011 1522.27 135.54C1522.67 137.083 1522.58 138.256 1521.5 139.521C1518.32 143.286 1515.17 147.082 1512.18 151.001C1510.79 152.822 1509.24 153.562 1506.93 153.408C1499.15 152.945 1491.35 152.636 1483.54 152.297C1478.11 152.05 1477.18 153.47 1479.47 158.376C1482.92 165.844 1486.32 173.312 1489.83 180.749C1490.61 182.354 1490.54 183.557 1489.59 185.039C1486.96 189.081 1484.59 193.309 1482.49 197.66C1481.69 199.327 1480.55 200.036 1478.72 200.283C1470.89 201.332 1463.08 202.506 1455.24 203.647C1449.99 204.419 1449.13 206.578 1452.34 210.806C1452.53 211.053 1452.74 211.27 1452.93 211.517C1457.65 217.596 1462.31 223.736 1467.12 229.754C1468.36 231.328 1468.54 232.686 1467.89 234.537C1466.26 239.197 1464.75 243.887 1463.33 248.609C1462.74 250.584 1461.66 251.695 1459.68 252.312C1455.58 253.577 1451.51 255.028 1447.4 256.386C1443.61 257.651 1439.75 258.762 1435.98 260.15C1433.05 261.23 1432.56 263.607 1434.66 265.953C1435.52 266.94 1436.54 267.835 1437.53 268.73C1443.02 273.822 1448.48 278.975 1454.04 284.005C1455.33 285.178 1455.7 286.412 1455.49 288.078C1454.93 292.553 1454.35 297.027 1453.98 301.533C1453.79 303.724 1452.86 305.051 1450.98 306.131C1444.32 309.957 1437.71 313.938 1431.08 317.857C1430.09 318.444 1429.1 318.969 1428.36 319.863C1426.82 321.653 1426.94 323.474 1428.79 324.925C1429.35 325.387 1430 325.696 1430.61 326.066C1437.37 329.954 1444.1 333.935 1450.95 337.669C1453.02 338.78 1453.98 340.169 1454.04 342.452C1454.19 346.68 1454.75 350.847 1455.4 355.013C1455.73 357.357 1455.24 359.086 1453.42 360.752C1447.65 366.029 1442 371.429 1436.39 376.861C1432.31 380.78 1432.84 383.063 1438.24 384.853C1445.64 387.322 1453.08 389.76 1460.52 392.105C1462.28 392.661 1463.26 393.525 1463.76 395.345C1465.02 399.912 1466.41 404.418 1467.95 408.893C1468.66 410.898 1468.26 412.319 1467 413.954C1461.97 420.435 1456.97 426.977 1452.06 433.55C1449.25 437.345 1450.33 439.907 1454.93 440.647C1455.15 440.678 1455.33 440.678 1455.55 440.709C1463.39 441.727 1471.23 442.776 1479.1 443.671C1480.95 443.856 1482.03 444.659 1482.86 446.294C1484.99 450.398 1487.15 454.472 1489.46 458.484C1490.48 460.304 1490.57 461.786 1489.65 463.668C1486.13 470.889 1482.8 478.172 1479.4 485.424C1478.97 486.35 1478.51 487.307 1478.29 488.294C1477.89 490.269 1478.94 491.75 1480.98 491.966C1482.21 492.12 1483.45 491.997 1484.68 491.935C1492.27 491.503 1499.86 491.102 1507.45 490.577C1509.52 490.454 1510.88 491.071 1512.18 492.707C1515.02 496.348 1517.98 499.897 1521.13 503.292C1522.58 504.866 1522.95 506.254 1522.36 508.26C1520.38 515.172 1518.56 522.146 1516.71 529.09C1516.34 530.571 1515.91 532.083 1515.79 533.595C1515.57 535.941 1516.68 536.959 1519.09 536.959C1520.48 536.959 1521.71 536.497 1523.01 536.157C1530.07 534.337 1537.17 532.577 1544.21 530.695C1546.58 530.077 1548.44 530.325 1550.35 532.146C1553.37 535.046 1556.61 537.793 1559.95 540.323C1562.2 542.021 1562.75 543.965 1562.51 546.68C1561.86 554.024 1561.4 561.43 1561 568.806C1560.66 574.885 1562.38 575.904 1567.78 573.28C1575.19 569.701 1582.63 566.245 1590.07 562.727C1591.27 562.14 1592.35 561.956 1593.58 562.665C1598.12 565.258 1602.69 567.818 1607.28 570.349C1608.36 570.966 1608.89 571.769 1609.04 573.034C1609.63 578.033 1610.25 583.002 1610.93 588.001C1611.42 591.766 1611.82 595.562 1612.59 599.265C1613.24 602.443 1615.62 603.276 1618.39 601.548C1619.2 601.054 1619.91 600.468 1620.65 599.912C1626.7 595.283 1632.77 590.716 1638.76 586.056C1640.3 584.853 1641.69 584.606 1643.58 585.254C1648.05 586.797 1652.56 588.186 1657.12 589.451C1659.04 589.975 1659.99 590.994 1660.61 592.845C1663.08 600.375 1665.7 607.844 1668.26 615.312C1668.51 615.99 1668.73 616.7 1669.07 617.317C1670.45 619.971 1672.64 620.342 1674.77 618.273C1675.64 617.409 1676.44 616.484 1677.27 615.558C1682.21 610.065 1687.21 604.603 1692.09 599.048C1693.44 597.474 1694.86 596.919 1696.9 597.228C1701.47 597.907 1706.07 598.462 1710.66 598.832C1712.67 598.986 1713.78 599.85 1714.74 601.517C1718.63 608.275 1722.54 615.033 1726.62 621.699C1729.61 626.668 1732.05 626.483 1734.98 621.391C1738.9 614.509 1742.91 607.689 1746.86 600.838C1747.63 599.511 1748.5 598.678 1750.2 598.554C1754.92 598.215 1759.61 597.752 1764.3 597.135C1766.49 596.857 1768 597.475 1769.42 599.079C1774.23 604.542 1779.2 609.88 1784.11 615.281C1785.16 616.422 1786.15 617.625 1787.29 618.644C1789.14 620.311 1791.21 619.878 1792.38 617.687C1792.78 616.977 1793.03 616.175 1793.31 615.404C1795.9 607.843 1798.55 600.282 1801.05 592.66C1801.67 590.717 1802.78 589.883 1804.63 589.359C1809.17 588.032 1813.67 586.581 1818.12 585.007C1819.97 584.359 1821.39 584.513 1822.93 585.748C1827 589.019 1831.2 592.166 1835.37 595.345C1838.05 597.412 1840.71 599.542 1843.45 601.517C1846.11 603.399 1848.48 602.412 1849.22 599.265C1849.31 598.894 1849.35 598.462 1849.41 598.061C1850.46 589.822 1851.57 581.582 1852.52 573.312C1852.71 571.707 1853.36 570.689 1854.75 569.948C1859 567.696 1863.26 565.381 1867.46 563.005C1868.94 562.141 1870.27 562.048 1871.81 562.82C1879.4 566.492 1887.15 569.794 1894.65 573.651C1895.45 574.053 1896.31 574.453 1897.21 574.638C1899.21 575.009 1900.42 574.083 1900.57 572.078C1900.66 570.843 1900.6 569.609 1900.54 568.374C1900.14 560.783 1899.77 553.191 1899.25 545.6C1899.09 543.439 1899.71 541.927 1901.37 540.539C1904.71 537.792 1908.01 534.985 1911.1 531.991C1912.79 530.356 1914.37 529.954 1916.62 530.54C1924.46 532.608 1932.36 534.522 1940.23 536.466C1941 536.651 1941.83 536.836 1942.63 536.866C1945.1 536.959 1946.03 535.971 1945.81 533.503C1945.75 532.485 1945.44 531.466 1945.19 530.478C1943.28 523.011 1941.4 515.543 1939.39 508.105C1938.81 506.038 1938.99 504.465 1940.54 502.798C1943.37 499.681 1946.12 496.441 1948.59 493.046C1950.1 490.948 1951.8 490.269 1954.3 490.454C1961.58 490.948 1968.86 491.256 1976.15 491.657C1977.29 491.719 1978.4 491.812 1979.54 491.781C1982.94 491.688 1984.08 489.776 1982.66 486.628C1982.5 486.258 1982.29 485.918 1982.1 485.548C1978.59 478.234 1975.13 470.89 1971.55 463.607C1970.65 461.755 1970.75 460.15 1971.73 458.392C1974.05 454.256 1976.27 450.09 1978.43 445.894C1979.17 444.443 1980.16 443.825 1981.76 443.64C1986.86 443.023 1991.95 442.282 1997.04 441.603C2000.59 441.11 2004.17 440.709 2007.72 440.091C2010.62 439.598 2011.57 437.345 2010.06 434.845C2009.72 434.321 2009.29 433.889 2008.92 433.396C2003.86 427.038 1998.86 420.681 1994.08 414.108C1992.9 412.504 1992.56 410.992 1993.24 408.986C1994.79 404.542 1996.14 400.006 1997.38 395.438C1997.9 393.525 1998.89 392.568 2000.77 391.982C2007.07 390.068 2013.3 388.001 2019.57 385.964C2021.51 385.347 2023.52 384.854 2025.4 384.021C2028.18 382.786 2028.58 380.255 2026.51 378.064C2025.74 377.231 2024.84 376.521 2024.01 375.75C2018.49 370.534 2012.99 365.288 2007.41 360.135C2005.99 358.808 2005.56 357.419 2005.83 355.476C2006.45 351.094 2007.01 346.711 2007.25 342.298C2007.38 340.014 2008.36 338.811 2010.25 337.762C2017.16 333.873 2024.01 329.893 2030.83 325.912C2035.83 322.98 2035.74 320.851 2030.71 317.919C2023.89 313.907 2017.13 309.804 2010.31 305.792C2008.36 304.681 2007.38 303.23 2007.22 300.885C2006.98 296.781 2006.57 292.677 2005.87 288.634C2005.46 286.227 2005.99 284.591 2007.84 282.986C2013.49 278.049 2019.04 272.988 2024.6 267.958C2025.58 267.063 2026.6 266.168 2027.44 265.119C2028.79 263.452 2028.39 261.478 2026.54 260.398C2025.58 259.842 2024.44 259.564 2023.36 259.255C2015.77 257.034 2008.3 254.441 2000.8 251.88C1999.29 251.386 1998.43 250.585 1997.96 249.011C1996.58 244.166 1995.13 239.351 1993.46 234.599C1992.66 232.284 1993.15 230.556 1994.63 228.705C1999.01 223.273 2003.27 217.719 2007.53 212.195C2008.46 210.991 2009.48 209.788 2010.19 208.431C2011.36 206.147 2010.52 204.387 2008.09 203.709C2007.31 203.462 2006.48 203.369 2005.68 203.246C1997.93 202.166 1990.22 201.055 1982.47 200.036C1980.47 199.759 1979.17 199.018 1978.25 197.074C1976.36 193.062 1974.26 189.174 1972.01 185.378C1970.78 183.28 1970.72 181.521 1971.8 179.361C1974.85 173.281 1977.72 167.141 1980.65 161.031C1981.49 159.272 1982.38 157.513 1983 155.661C1983.68 153.624 1982.66 152.205 1980.56 151.988C1979.63 151.896 1978.71 151.957 1977.78 152.019C1974.08 152.235 1970.41 152.483 1966.7 152.699C1966.7 152.668 1966.7 152.668 1966.55 152.76C1962.23 152.914 1957.94 153.069 1953.62 153.316C1951.92 153.408 1950.69 152.945 1949.64 151.587C1946.74 147.884 1943.84 144.15 1940.75 140.57C1939.18 138.719 1938.87 136.96 1939.52 134.646C1941.59 127.332 1943.41 119.957 1945.35 112.612C1945.6 111.625 1945.84 110.637 1945.81 109.587C1945.72 107.52 1944.76 106.564 1942.66 106.749C1941.46 106.872 1940.26 107.212 1939.05 107.521C1931.49 109.496 1923.87 111.224 1916.25 112.921C1915.14 113.168 1914.03 113.476 1913.04 112.612C1908.75 108.94 1904.49 105.236 1900.2 101.564C1899.37 100.823 1899.12 99.9285 1899.18 98.8176C1899.58 92.6765 1899.96 86.5047 1900.33 80.3643C1900.48 77.5869 1900.79 74.8398 1900.79 72.0625C1900.79 68.9765 1899.03 67.8039 1896.1 68.7297C1895.14 69.0383 1894.22 69.532 1893.29 69.964C1886.13 73.3586 1879 76.7222 1871.84 80.1168C1870.79 80.6105 1869.81 81.0123 1868.63 80.3334C1863.94 77.6178 1859.19 74.9324 1854.47 72.2168C1853.42 71.6002 1852.8 70.7973 1852.65 69.5326C1852.03 64.3483 1851.35 59.1328 1850.7 53.9485C1850.27 50.6774 1849.99 47.406 1849.47 44.1657C1848.91 40.6478 1846.44 39.5372 1843.42 41.2962C1842.34 41.9134 1841.38 42.6844 1840.4 43.425C1834.56 47.807 1828.73 52.1586 1822.93 56.6023C1821.51 57.6823 1820.18 57.9907 1818.39 57.4045C1813.7 55.8616 1808.98 54.4418 1804.23 53.1457C1802.41 52.652 1801.51 51.6647 1800.96 49.9368C1798.55 42.4071 1796.05 34.8769 1793.58 27.3781C1793.24 26.4215 1792.93 25.4032 1792.38 24.57C1791.02 22.4717 1789.05 22.194 1787.13 23.7678C1786.36 24.4159 1785.68 25.218 1785 25.9894C1779.79 31.791 1774.57 37.5926 1769.39 43.425C1768.31 44.6285 1767.2 45.5238 1765.41 45.1843C1760.66 44.2894 1755.81 44.197 1751 43.9192C1748.84 43.7958 1747.66 42.9315 1746.65 41.1726C1742.7 34.3218 1738.65 27.5018 1734.67 20.6819C1733.68 19.0155 1732.79 17.1019 1730.41 17.1945Z" fill="white"/>
<path d="M2046.38 327.3C2046.6 327.917 2046.41 328.35 2045.77 328.535C2045.67 327.979 2045.95 327.609 2046.38 327.3Z" fill="white"/>
<path d="M2045.77 328.535C2045.89 329.152 2045.7 329.553 2045.06 329.707C2045.02 329.152 2045.24 328.751 2045.77 328.535Z" fill="white"/>
<path d="M1686.78 83.2651C1707.21 79.562 1727.82 78.6362 1748.47 80.0557C1795.43 83.3268 1838.17 98.6331 1876.19 126.468C1912.7 153.192 1940.47 187.045 1958.4 228.736C1966.67 247.992 1972.17 268.051 1975.37 288.758C1977.26 300.7 1978 312.674 1977.94 322.734C1978.06 360.567 1970.75 394.852 1956.37 427.687C1951.18 439.506 1944.21 450.276 1936.34 460.49C1924.15 476.321 1910.76 491.072 1895.51 504.033C1881.84 515.667 1867.06 525.634 1851.26 534.121C1825.43 548.038 1797.99 557.296 1769.02 561.863C1750.69 564.733 1732.2 565.165 1713.69 564.115C1689.62 562.757 1666.29 557.666 1643.7 549.334C1621.79 541.249 1601.33 530.356 1582.47 516.562C1555.9 497.12 1533.93 473.266 1516.09 445.647C1508.41 433.766 1502.76 420.898 1498.07 407.566C1494.21 396.704 1491.22 385.625 1489.06 374.3C1486.9 362.882 1485.27 351.402 1484.77 339.768C1484.31 328.69 1484.19 317.58 1485.17 306.502C1486.9 286.659 1490.88 267.31 1497.12 248.394C1502.58 231.73 1509.95 215.929 1518.72 200.777C1532.51 176.892 1549.82 155.908 1570.81 138.01C1588.83 122.642 1608.77 110.329 1630.4 100.67C1648.51 92.5846 1667.27 86.7831 1686.78 83.2651ZM1803.3 505.205C1754.73 493.139 1706.5 492.738 1657.62 505.668C1659.74 507.241 1661.38 508.414 1663.05 509.648C1676.5 519.801 1687.43 531.929 1693.44 547.976C1693.88 549.118 1694.52 549.519 1695.7 549.642C1701.71 550.229 1707.73 551.154 1713.78 551.463C1730.84 552.327 1747.88 552.08 1764.82 549.611C1766.64 549.334 1767.78 548.686 1768.4 546.865C1769.6 543.223 1771.36 539.86 1773.31 536.589C1780.25 524.924 1789.42 515.358 1800.65 507.767C1801.57 507.149 1802.84 506.779 1803.3 505.205ZM1821.48 511.778C1820.55 511.438 1819.72 511.5 1818.82 511.963C1807.16 517.919 1796.76 525.448 1788.83 536.064C1786.48 539.181 1784.48 542.483 1782.32 546.433C1805 541.495 1825.89 533.565 1846.2 522.64C1845.39 522.054 1845.12 521.745 1844.78 521.529C1837.22 517.765 1829.38 514.679 1821.48 511.778ZM1643.2 512.551C1641.69 511.748 1640.33 511.841 1638.79 512.396C1631.66 515.019 1624.63 517.889 1617.75 521.16C1617.13 521.438 1616.42 521.685 1615.83 522.734C1635.61 533.504 1656.26 541.466 1678.17 546.28C1678.35 545.015 1677.74 544.367 1677.33 543.688C1669.19 529.739 1657.31 519.926 1643.2 512.551ZM1614.07 498.2C1607.44 501.595 1601.48 505.637 1595.28 509.896C1597.44 511.717 1599.57 512.889 1601.61 514.216C1602.32 514.648 1602.93 514.37 1603.58 513.969C1606.7 511.994 1609.85 510.081 1612.99 508.136C1613.7 507.704 1614.54 507.335 1614.51 506.378C1614.44 503.755 1614.78 501.101 1614.07 498.2ZM1850.21 499.065C1848.73 498.108 1848.42 498.324 1848.33 499.96C1848.26 500.978 1848.33 502.027 1848.33 503.046C1848.33 507.459 1848.33 507.459 1851.97 509.742C1852.99 510.421 1853.97 511.193 1855.08 511.717C1856.81 512.551 1857.99 514.927 1860.02 514.34C1861.81 513.847 1863.36 512.365 1864.93 511.224C1866.6 510.051 1866.63 509.711 1864.93 508.601C1860.05 505.391 1855.15 502.213 1850.21 499.065ZM1937.79 436.296C1799.97 436.265 1662.95 436.265 1525.97 436.296C1525.69 437.53 1526.25 437.962 1526.56 438.456C1542.26 462.989 1561.55 484.313 1584.51 502.273C1586.48 503.847 1586.52 503.816 1588.71 502.242C1605.59 490.084 1623.92 480.672 1643.45 473.636C1672.37 463.236 1702.27 458.422 1732.94 458.422C1742.29 458.422 1751.58 459.317 1760.9 460.243C1775.78 461.755 1790.34 464.841 1804.66 469.007C1815.21 472.062 1825.46 476.074 1835.55 480.456C1837.06 481.104 1838.2 481.381 1839.75 480.209C1858.23 466.106 1878.94 456.663 1901.47 451.077C1910.17 448.917 1919.03 447.775 1927.94 447.035C1928.96 446.973 1930.1 447.097 1930.78 446.14C1932.97 443.116 1935.13 440.03 1937.79 436.296ZM1918.81 460.799C1894.4 464.718 1871.59 472.865 1850.73 487.955C1852.46 488.942 1853.48 489.591 1854.53 490.146C1861.16 493.633 1867.46 497.676 1873.51 502.119C1875.73 503.755 1875.7 503.724 1877.98 501.996C1893.04 490.455 1906.19 476.969 1918.47 462.558C1918.84 462.157 1919.55 461.817 1918.81 460.799ZM1811.05 481.906C1811.05 484.313 1811.14 486.35 1811.02 488.356C1810.96 489.837 1811.54 490.547 1812.9 491.071C1816.91 492.614 1820.92 494.219 1824.87 495.947C1829.19 497.829 1833.45 499.835 1838.42 502.119C1838.42 499.588 1838.24 497.644 1838.45 495.762C1838.73 493.386 1837.65 492.244 1835.58 491.411C1829.47 489.004 1823.42 486.411 1817.31 483.974C1815.43 483.202 1813.49 482.677 1811.05 481.906ZM1651.38 483.572C1651.26 482.184 1650.86 481.69 1649.5 482.215C1646.81 483.264 1644.1 484.159 1641.45 485.27C1636.72 487.245 1632.03 489.374 1627.31 491.349C1625.55 492.09 1624.75 493.139 1624.9 495.114C1625.06 497.027 1624.94 498.971 1624.94 501.1C1626.48 501.193 1627.34 500.545 1628.24 500.144C1634.1 497.644 1639.9 495.021 1645.8 492.614C1651.91 490.115 1651.91 490.207 1651.38 483.572ZM1775.99 472.557C1774.51 472.248 1773.86 472.711 1773.92 474.254C1773.99 475.612 1773.89 476.939 1773.92 478.266C1773.96 480.58 1773.96 480.58 1776.18 481.104C1781.05 482.246 1785.96 483.388 1790.84 484.561C1794.01 485.333 1797.16 486.197 1800.62 487.092C1801.05 484.962 1800.77 483.111 1800.83 481.228C1800.83 478.42 1800.8 478.358 1798.18 477.649C1794.01 476.538 1789.85 475.457 1785.65 474.469C1782.44 473.729 1779.2 473.236 1775.99 472.557ZM1688.17 474.5C1688.17 472.401 1688.1 472.34 1685.88 472.679C1679 473.697 1672.24 475.364 1665.51 477.184C1660.82 478.45 1661.5 477.802 1661.53 482.462V484.591C1661.6 487.214 1661.6 487.183 1664.1 486.504C1670.21 484.838 1676.38 483.264 1682.55 481.845C1684.4 481.413 1686.87 481.813 1687.95 480.209C1689 478.666 1688.17 476.444 1688.17 474.5ZM1723.32 468.576C1715.82 468.73 1708.41 469.533 1700.97 470.335C1699.49 470.489 1698.69 470.952 1698.81 472.588C1698.91 474.007 1698.81 475.458 1698.84 476.877C1698.91 478.914 1699 479.037 1700.94 478.79C1708.47 477.803 1716.03 477.618 1723.59 477.093C1725.97 476.939 1725.97 476.939 1726.03 474.655V473.112C1726 472.402 1726.03 471.693 1726 470.983C1725.91 468.514 1725.91 468.545 1723.32 468.576ZM1738.37 468.452C1736.4 468.421 1736.34 468.483 1736.31 470.55C1736.28 471.908 1736.28 473.235 1736.31 474.562C1736.37 476.938 1736.37 476.908 1738.68 477.062C1744.92 477.525 1751.15 477.987 1757.38 478.419C1759.3 478.543 1761.21 479.037 1763.15 478.821C1763.96 476.753 1763.37 474.593 1763.56 472.494C1763.71 470.859 1762.82 470.458 1761.36 470.303C1755.35 469.717 1749.36 468.885 1742.97 468.73C1741.65 468.638 1740.01 468.514 1738.37 468.452ZM1877.98 143.781C1790.47 72.9896 1658.82 73.1747 1572.57 153.656C1487.02 233.458 1482.27 349.119 1518.59 422.255C1518.59 421.546 1518.59 420.805 1518.53 420.064C1518.5 366.523 1518.5 312.982 1518.47 259.441C1518.47 257.898 1518.5 256.355 1518.47 254.812C1518.44 253.671 1518.9 253.053 1520.08 253.084C1520.79 253.115 1521.53 253.084 1522.24 253.084H1563.86C1568.56 253.084 1568.12 252.344 1568.12 257.343C1568.12 284.808 1568.09 312.242 1568.06 339.676C1568.06 340.293 1568.09 340.91 1568.06 341.527C1568 342.7 1568.59 343.133 1569.73 343.133C1573.03 343.071 1576.3 343.07 1579.6 343.101C1580.74 343.101 1581.3 342.638 1581.27 341.466C1581.24 340.632 1581.27 339.83 1581.27 338.997C1581.24 326.869 1581.24 314.741 1581.21 302.614C1581.21 301.904 1581.24 301.163 1581.21 300.453C1581.18 299.281 1581.7 298.756 1582.87 298.818C1583.49 298.849 1584.11 298.849 1584.73 298.849C1608.06 298.911 1631.39 298.941 1654.71 298.972C1659.41 298.972 1658.85 298.849 1658.85 303.17V411.084C1658.85 414.602 1658.88 418.089 1658.85 421.576C1658.82 422.873 1659.25 423.459 1660.61 423.397C1662.24 423.335 1663.91 423.305 1665.55 423.397C1667.12 423.49 1667.92 422.873 1668.54 421.391C1671.35 414.726 1673.48 407.875 1675.17 400.87C1679 385.039 1679.99 369.023 1678.26 352.822C1678.04 350.97 1677.52 349.612 1676.07 348.347C1670.55 343.564 1666.75 337.485 1663.82 330.819C1663.6 330.356 1663.42 329.862 1663.69 329.214C1665.48 328.69 1667.46 328.998 1669.37 328.844C1673.17 328.505 1676.93 328.165 1680.45 326.437C1684.49 324.462 1686.5 321.438 1686.25 316.84C1686.16 315.112 1685.64 313.97 1684.19 313.045C1677.27 308.632 1672.74 302.243 1669.28 294.992C1668.97 294.344 1668.45 293.757 1668.88 292.986C1669.43 292.585 1670.05 292.708 1670.67 292.708C1674.37 292.708 1678.04 292.461 1681.59 291.196C1687.43 289.128 1690.54 284.931 1690.94 278.759C1691.1 276.568 1690.6 274.871 1688.94 273.266C1684.4 268.977 1681.13 263.762 1678.32 258.238C1677.52 256.602 1677.67 256.263 1679.49 256.201C1681.56 256.139 1683.63 256.047 1685.61 255.46C1687.98 254.782 1690.26 253.856 1691.65 251.541C1693.78 248.023 1693.32 241.111 1690.73 237.84C1687.21 233.427 1683.82 228.891 1681.1 223.922C1680.64 223.089 1679.71 222.317 1680.3 221.052C1681.5 220.929 1682.74 220.744 1683.94 220.651C1686.31 220.435 1688.63 219.849 1690.82 218.985C1696.47 216.825 1698.94 211.887 1697.39 206.085C1697.02 204.666 1696.25 203.462 1695.42 202.29C1693.35 199.358 1691.22 196.457 1689.12 193.526C1687.58 191.366 1687.61 191.242 1689.96 189.823C1690.05 189.761 1690.14 189.73 1690.23 189.668C1705.2 180.873 1715.72 168.221 1722.61 152.39C1723.81 149.582 1723.87 149.767 1721.62 147.73C1718.07 144.521 1716.74 140.509 1717.51 135.758C1718.01 132.579 1719.55 129.955 1721.93 127.857C1723.47 126.468 1724.21 124.894 1724.58 122.858C1725.66 116.778 1726.93 110.761 1728.13 104.712C1728.31 103.787 1728.53 102.892 1728.72 101.997C1728.9 101.164 1729.46 100.824 1730.26 100.762C1731.86 100.639 1732.39 101.041 1732.85 103.047C1734.52 110.144 1736.18 117.242 1737.73 124.37C1738.04 125.882 1738.65 126.931 1739.76 127.98C1745.87 133.782 1745.87 141.96 1739.7 147.793C1737.6 149.798 1737.91 149.613 1738.87 151.959C1745.56 168.128 1756.3 180.873 1771.36 189.884C1773.55 191.18 1773.62 191.243 1772.13 193.31C1770.01 196.334 1767.85 199.328 1765.59 202.259C1764.3 203.987 1763.65 205.839 1763.62 207.968C1763.49 214.016 1766.27 217.843 1772.1 219.633C1774.48 220.342 1776.89 220.805 1779.36 221.021C1779.94 221.083 1780.59 220.929 1781.05 221.547C1781.21 222.317 1780.65 222.873 1780.31 223.49C1777.63 228.242 1774.73 232.871 1771.02 236.883C1767.6 240.586 1767.85 244.722 1768.8 249.011C1769.42 251.665 1771.21 253.455 1773.71 254.596C1776.12 255.707 1778.65 255.923 1781.21 256.17C1781.85 256.232 1782.69 255.923 1783.09 256.757C1783.18 257.466 1782.81 257.96 1782.53 258.516C1779.82 264.101 1776.55 269.285 1771.92 273.513C1770.41 274.871 1769.88 276.414 1770.01 278.42C1770.38 284.314 1773.21 288.48 1778.58 290.887C1781.55 292.245 1784.69 292.646 1787.9 292.739C1792.29 292.893 1792.32 292.955 1790.31 297.028C1787.1 303.508 1782.63 308.909 1776.55 312.921C1775.71 313.476 1774.57 313.94 1774.45 315.051C1774.11 318.136 1774.14 321.222 1776.46 323.752C1778.37 325.882 1780.74 327.208 1783.52 327.887C1787.04 328.751 1790.62 328.875 1794.23 328.967C1795.34 328.998 1796.51 328.69 1797.84 329.461C1797.32 331.282 1796.48 333.01 1795.59 334.707C1792.87 339.83 1789.26 344.305 1785.1 348.316C1783.95 349.396 1783 350.508 1782.94 352.236C1782.81 355.105 1782.47 357.975 1782.35 360.845C1781.73 373.775 1783.31 386.489 1786.42 399.018C1788.31 406.61 1790.5 414.078 1793.49 421.33C1794.14 422.873 1794.94 423.675 1796.7 423.49C1798.24 423.335 1799.78 423.459 1801.33 423.428C1803.58 423.366 1803.61 423.335 1803.64 421.237C1803.7 417.935 1803.7 414.664 1803.7 411.362C1803.7 361.216 1803.67 311.069 1803.67 260.923C1803.67 257.528 1803.67 257.559 1807.04 257.559C1826.26 257.59 1845.46 257.59 1864.68 257.621C1870.05 257.621 1869.37 257.065 1869.37 262.466C1869.4 296.38 1869.37 330.294 1869.37 364.209C1869.37 365.227 1869.47 366.276 1869.37 367.295C1869.25 368.838 1869.99 369.24 1871.38 369.209C1874.37 369.147 1877.33 369.208 1880.33 369.177C1882.7 369.146 1882.7 369.116 1882.77 366.801V365.258C1882.77 338.935 1882.73 312.643 1882.73 286.32C1882.73 285.394 1882.8 284.468 1882.73 283.542C1882.61 281.876 1883.44 281.321 1884.96 281.444C1885.57 281.475 1886.19 281.444 1886.81 281.444H1943.84C1948.09 281.444 1947.69 281.228 1947.69 285.24V412.258C1947.69 412.905 1947.42 413.615 1947.94 414.263C1981.89 335.603 1970.78 218.862 1877.98 143.781ZM1553.56 265.799C1546.77 265.83 1540.01 265.86 1533.22 265.86C1532.05 265.86 1531.52 266.354 1531.59 267.527C1531.62 268.237 1531.59 268.977 1531.59 269.687V344.892C1531.62 369.949 1531.62 395.007 1531.59 420.127C1531.59 423.644 1531.25 423.429 1534.92 423.429H1642.16C1642.99 423.429 1643.79 423.398 1644.62 423.429C1645.67 423.459 1646.11 422.935 1646.07 421.917C1646.04 421.299 1646.07 420.682 1646.07 420.065V314.958C1646.07 311.378 1645.98 311.779 1642.86 311.779C1627.56 311.749 1612.25 311.717 1596.95 311.686C1593.89 311.655 1594.17 311.625 1594.17 314.557C1594.2 326.87 1594.2 339.213 1594.2 351.526C1594.2 352.452 1594.14 353.378 1594.17 354.304C1594.2 355.631 1593.52 356.155 1592.29 356.155C1591.36 356.155 1590.43 356.186 1589.51 356.186C1579.33 356.217 1569.17 356.217 1558.99 356.217C1555.1 356.217 1555.35 356.617 1555.35 352.545C1555.32 325.203 1555.26 297.893 1555.22 270.551C1555.22 269.533 1555.19 268.484 1555.22 267.465C1555.26 266.324 1554.73 265.799 1553.56 265.799ZM1694.43 351.897C1691.5 351.897 1691.5 351.927 1691.68 354.952C1693.01 377.88 1690.45 400.284 1682.12 421.824C1681.99 422.194 1681.78 422.595 1682.09 423.058C1682.64 423.583 1683.38 423.367 1684.06 423.367C1691.16 423.367 1698.23 423.398 1705.32 423.367C1708.13 423.367 1708.1 423.336 1708.1 420.435C1708.04 407.197 1708.04 393.927 1707.92 380.688C1707.92 378.713 1708.5 377.51 1710.23 376.461C1723.68 368.406 1737.14 368.098 1750.75 376.09C1752.76 377.263 1753.53 378.652 1753.5 381.028C1753.37 394.174 1753.4 407.32 1753.4 420.466C1753.4 423.366 1753.4 423.397 1756.18 423.397C1763.37 423.397 1770.56 423.367 1777.75 423.336C1778.52 423.336 1779.39 423.614 1780.37 422.811C1776.7 414.047 1774.36 405.006 1772.6 395.84C1769.91 382.262 1768.74 368.592 1769.97 354.767C1770.22 352.051 1770.16 352.019 1767.47 351.958C1766.86 351.927 1766.24 351.927 1765.62 351.927C1741.89 351.927 1718.16 351.897 1694.43 351.897ZM1818.61 270.551C1817.07 270.551 1816.23 270.952 1816.42 272.618C1816.48 273.142 1816.45 273.637 1816.45 274.161V346.928H1816.57V420.311C1816.57 423.397 1816.57 423.397 1819.5 423.397C1856.91 423.366 1894.31 423.366 1931.71 423.366C1932.33 423.366 1932.94 423.335 1933.56 423.366C1934.7 423.428 1935.35 423.027 1935.26 421.792C1935.23 421.268 1935.26 420.774 1935.26 420.25C1935.23 379.762 1935.23 339.274 1935.23 298.787C1935.23 297.769 1935.2 296.719 1935.2 295.701C1935.2 294.621 1934.64 294.22 1933.65 294.251C1932.94 294.282 1932.2 294.251 1931.49 294.251C1921 294.251 1910.54 294.22 1900.05 294.22C1894.99 294.22 1895.57 293.541 1895.57 298.54C1895.54 324.832 1895.54 351.155 1895.54 377.448C1895.54 378.466 1895.51 379.515 1895.51 380.533C1895.51 381.552 1895.02 382.046 1894.03 382.076C1893.41 382.107 1892.79 382.107 1892.18 382.107C1881.19 382.107 1870.17 382.138 1859.19 382.169C1856.54 382.169 1856.54 382.169 1856.54 379.392C1856.5 346.496 1856.5 313.63 1856.5 280.734C1856.5 278.049 1856.47 275.365 1856.57 272.711C1856.63 271.075 1855.92 270.612 1854.37 270.612C1842.43 270.643 1830.52 270.612 1818.61 270.551ZM1737.73 383.99C1732.97 382.663 1728.22 382.755 1723.47 384.113C1720.97 384.823 1720.91 384.885 1720.91 387.476V404.079C1720.94 404.079 1720.97 404.079 1721 404.109V421.021C1721.03 423.305 1721.03 423.366 1723.13 423.366C1728.13 423.397 1733.16 423.305 1738.19 423.366C1739.76 423.397 1740.32 422.903 1740.32 421.267C1740.26 409.88 1740.26 398.493 1740.23 387.107C1740.23 384.761 1740.07 384.638 1737.73 383.99ZM1702.55 313.94C1698.54 313.94 1699.21 314.156 1699.28 317.303C1699.37 323.599 1697.21 328.906 1692.73 333.35C1690.67 335.387 1688.2 336.806 1685.33 338.688C1690.82 339.367 1772.99 339.183 1775.65 338.442C1775.22 338.164 1774.97 338.01 1774.73 337.886C1765.84 333.35 1761.02 326.344 1761.61 316.131C1761.7 314.464 1761.12 313.877 1759.54 314.001C1758.93 314.062 1758.31 314.001 1757.69 314.001C1739.3 313.97 1720.94 313.97 1702.55 313.94ZM1706.34 277.031C1704.03 277.031 1704 277.031 1703.84 279.592C1703.44 286.69 1700.57 292.646 1695.42 297.491C1694.15 298.633 1692.73 299.589 1690.94 300.978H1770.01C1769.54 299.929 1768.71 299.651 1768.06 299.188C1765.47 297.306 1763.31 295.022 1761.52 292.337C1758.8 288.326 1757.41 283.851 1757.26 279.037C1757.23 277.587 1756.74 276.969 1755.28 277.093C1754.76 277.155 1754.27 277.093 1753.74 277.093C1737.94 277.062 1722.14 277.062 1706.34 277.031ZM1707.7 240.062C1705.48 240.062 1705.48 240.154 1705.73 242.283C1706.62 249.905 1704.98 256.757 1699.77 262.589C1699.58 262.805 1699.49 263.114 1699.24 263.576C1700.45 264.162 1701.5 263.978 1702.55 263.916C1721.43 263.916 1740.32 263.915 1759.2 263.884C1759.82 263.884 1760.44 263.885 1761.06 263.823C1761.55 263.792 1762.11 263.823 1762.38 263.267C1762.66 262.681 1762.17 262.341 1761.83 262.002C1760.78 260.984 1759.88 259.904 1759.11 258.67C1755.93 253.701 1755.07 248.239 1755.62 242.437C1755.84 240.216 1755.72 240.123 1753.59 240.123C1738.28 240.061 1723.01 240.062 1707.7 240.062ZM1712.67 203.616C1710.17 203.585 1710.14 203.617 1710.45 206.147C1711.34 213.553 1709.15 219.941 1704.06 225.341C1703.6 225.835 1702.83 226.143 1702.82 227.347H1758.53C1758.71 226.545 1758.19 226.298 1757.85 225.958C1754.3 222.471 1752.26 218.182 1751.3 213.306C1750.81 210.745 1750.87 208.152 1751.15 205.622C1751.34 204.048 1750.75 203.585 1749.33 203.678C1748.93 203.709 1748.5 203.678 1748.1 203.678C1736.31 203.647 1724.49 203.647 1712.67 203.616ZM1730.78 165.104C1725.6 175.041 1718.9 183.003 1710.72 190.594H1751C1742.51 183.25 1736.09 175.01 1730.78 165.104ZM1730.91 132.795C1728.22 132.795 1725.88 135.109 1725.78 137.887C1725.72 140.633 1728.01 142.978 1730.84 143.04C1733.84 143.132 1736.03 141.034 1736.06 138.165C1736.09 135.171 1733.81 132.826 1730.91 132.795Z" fill="white"/>
</g>
</g>
<path d="M1299.05 357.443V286.193H1311.14V357.443H1299.05ZM1269.47 327.864V315.773H1340.72V327.864H1269.47Z" fill="white"/>
<defs>
<clipPath id="clip0_553_1271">
<rect width="1195" height="635" fill="white"/>
</clipPath>
<clipPath id="clip1_553_1271">
<rect width="632" height="632" fill="white" transform="translate(1415 3)"/>
</clipPath>
</defs>
</svg>
