<svg width="1195" height="635" viewBox="0 0 1195 635" fill="none" xmlns="http://www.w3.org/2000/svg">
<path d="M926.195 298.719C922.295 318.219 907.095 332.019 886.795 334.819C873.595 336.619 860.695 335.919 847.995 331.819C829.195 325.719 818.995 309.219 817.495 291.419C815.095 263.019 816.695 234.519 816.495 206.119C816.295 170.019 816.495 133.919 816.295 97.7188C816.295 93.8188 817.195 92.6188 821.195 92.7188C830.295 93.0188 839.495 93.0188 848.695 92.7188C852.995 92.6188 854.495 93.4188 854.495 98.3188C854.295 157.919 854.395 217.519 854.395 277.119C854.395 281.119 854.795 285.119 855.795 288.919C858.195 297.919 868.095 303.119 877.895 301.519C886.795 300.119 892.095 295.219 894.295 286.719C895.595 285.319 894.895 283.519 894.895 282.019C894.895 221.519 894.895 160.919 894.895 100.419C894.895 92.5188 894.195 93.7188 901.895 93.6188C908.695 93.5188 915.495 93.6188 922.395 93.6188C927.795 93.6188 927.795 93.6188 927.795 98.9188C927.795 138.619 927.795 178.419 927.795 218.119C927.795 236.919 927.595 255.719 927.895 274.519C928.095 282.619 926.595 290.619 926.195 298.719Z" fill="white"/>
<path d="M968.995 260.718C973.195 260.718 977.395 261.018 981.495 260.618C985.895 260.118 986.695 261.918 986.595 265.918C986.395 272.018 986.295 278.218 987.295 284.318C989.195 296.118 994.195 300.918 1005.6 300.918C1017.4 300.918 1023.5 295.718 1025.3 284.318C1028 267.118 1023.7 252.318 1011.1 239.818C999.595 228.418 986.495 218.918 975.095 207.518C951.795 184.118 945.295 156.518 954.295 125.218C959.695 106.218 972.195 94.518 991.995 90.718C1003.8 88.418 1015.4 88.118 1027 91.018C1049.8 96.618 1060.6 112.618 1063.3 134.818C1064.1 141.718 1063.5 148.818 1063.9 155.718C1064.1 158.618 1063 159.018 1060.6 159.018C1051.3 158.918 1042 158.818 1032.6 159.018C1029.8 159.018 1028.8 158.318 1029 155.418C1029.4 149.918 1028.8 144.518 1027.4 139.118C1024.6 128.818 1016.6 122.418 1007.9 123.318C997.595 124.418 991.395 131.718 990.395 142.918C988.895 160.318 995.395 174.218 1007.7 186.018C1016.7 194.718 1026.7 202.218 1035.8 210.618C1049.4 223.218 1059.6 237.918 1062.7 256.518C1066 277.018 1065.7 297.318 1053.4 315.318C1045.9 326.318 1034.9 332.218 1022 334.518C1008.9 336.818 995.895 336.318 983.095 332.118C964.595 326.118 955.895 312.018 952.395 294.018C950.495 284.118 951.595 274.118 951.295 264.118C951.195 261.118 952.395 260.518 955.095 260.618C959.595 260.818 964.295 260.718 968.995 260.718Z" fill="white"/>
<path d="M1114.1 127.119C1101.6 127.119 1089.2 126.919 1076.7 127.019C1073.6 127.019 1072.4 126.519 1072.5 123.019C1072.8 114.019 1072.7 105.019 1072.6 96.1187C1072.6 93.5187 1073.1 92.7188 1075.9 92.7188C1112.8 92.8188 1149.8 92.8188 1186.7 92.7188C1189.4 92.7188 1190.4 93.3188 1190.4 96.3188C1190.2 105.319 1190.2 114.319 1190.4 123.219C1190.5 126.219 1189.8 127.219 1186.6 127.119C1176.5 126.919 1166.3 127.219 1156.2 126.919C1152.3 126.819 1151.3 127.819 1151.3 131.719C1151.4 195.219 1151.4 258.819 1151.4 322.319C1151.4 324.119 1151.3 325.919 1151.2 327.819C1150.8 329.819 1149.5 330.219 1147.5 330.219C1137.7 330.119 1127.9 330.119 1118 330.219C1115.6 330.219 1114.6 329.419 1114.8 327.019C1114.9 325.819 1114.8 324.719 1114.8 323.519C1114.8 259.619 1114.8 195.719 1114.8 131.819C1114.7 130.219 1115.4 128.519 1114.1 127.119Z" fill="white"/>
<path d="M682.295 435.418C682.295 421.618 682.295 407.818 682.295 394.018C682.295 389.218 682.695 384.418 683.995 379.718C687.895 365.818 696.895 357.718 711.095 355.318C720.695 353.718 729.995 354.518 738.895 358.318C750.595 363.318 755.995 373.118 757.395 385.218C758.195 392.118 757.795 399.218 758.095 406.118C758.195 409.018 756.795 409.418 754.395 409.318C748.395 409.218 742.395 409.018 736.395 409.218C733.495 409.318 733.195 408.218 733.195 405.818C733.195 399.718 733.895 393.518 732.395 387.418C730.795 381.018 727.095 377.818 720.895 377.818C714.395 377.918 709.395 382.118 708.395 388.418C707.695 392.718 707.895 397.018 707.995 401.318C708.195 427.618 708.295 453.918 708.495 480.218C708.595 487.918 713.595 493.018 720.595 493.318C729.395 493.718 734.095 489.618 734.295 480.718C734.595 471.218 734.395 461.718 734.595 452.218C734.695 449.318 733.695 448.418 730.895 448.618C727.595 448.818 722.995 449.818 721.295 448.218C718.895 445.918 720.495 441.318 720.395 437.718C720.295 426.318 720.295 426.318 731.495 426.318C738.995 426.318 746.495 426.518 753.995 426.318C756.995 426.218 758.095 426.918 757.995 430.118C757.595 448.418 758.595 466.718 757.395 485.018C756.095 504.118 743.595 516.018 724.395 516.418C718.695 516.518 713.095 516.418 707.595 515.018C691.995 511.018 682.695 498.918 682.395 481.718C682.195 466.218 682.295 450.718 682.295 435.318C682.395 435.418 682.395 435.418 682.295 435.418Z" fill="white"/>
<path d="M1128.1 435.318C1128.1 410.718 1128.2 386.018 1128 361.418C1128 357.518 1129 356.218 1132.9 356.518C1138.2 356.918 1143.6 356.818 1148.9 356.518C1152.4 356.318 1153 357.618 1153 360.718C1152.9 402.818 1153 444.918 1152.8 487.018C1152.8 490.918 1153.7 492.118 1157.6 492.018C1168.6 491.818 1179.6 492.118 1190.5 491.918C1193.3 491.818 1194.4 492.118 1194.2 495.218C1193.9 500.718 1194 506.218 1194.1 511.718C1194.1 513.818 1193.4 514.618 1191.2 514.618C1171.1 514.518 1150.9 514.518 1130.8 514.618C1127 514.618 1128.1 512.018 1128.1 510.118C1128.1 485.218 1128.1 460.218 1128.1 435.318Z" fill="white"/>
<path d="M799.495 424.32C799.495 445.32 799.595 466.22 799.395 487.22C799.395 491.32 800.695 492.02 804.395 491.92C815.895 491.62 827.395 491.92 838.795 491.72C841.495 491.72 842.795 492.12 842.695 495.22C842.595 500.82 842.595 506.52 842.895 512.22C842.995 514.42 842.195 514.72 840.395 514.72C819.595 514.72 798.795 514.62 777.995 514.72C774.695 514.72 775.195 512.82 775.195 510.82C775.195 486.32 775.095 461.92 775.095 437.42C775.095 411.52 775.095 385.52 774.995 359.62C774.995 357.22 775.195 356.52 777.695 356.52C783.695 356.72 789.695 356.82 795.695 356.52C799.395 356.32 799.595 358.02 799.595 360.92C799.495 382.02 799.495 403.12 799.495 424.32Z" fill="white"/>
<path d="M752.395 94.1187C749.095 95.7187 745.495 95.1188 742.095 94.8188C722.695 92.9188 703.195 94.6188 683.795 93.9188C680.095 93.8188 679.395 95.4187 679.495 98.6187C679.595 121.919 679.495 145.219 679.495 168.519C679.495 220.219 679.595 272.019 679.395 323.719C679.395 328.619 680.695 330.019 685.495 329.719C693.095 329.319 700.795 329.319 708.495 329.719C713.195 329.919 714.695 328.719 714.695 323.819C714.495 294.019 714.595 264.219 714.695 234.419C714.695 233.219 712.695 230.119 716.695 230.819C715.795 231.819 716.095 233.019 716.095 234.119C716.095 264.119 716.095 294.219 716.095 324.219C716.095 325.019 716.095 325.919 716.395 326.619C716.995 329.719 715.595 330.719 712.595 330.719C702.295 330.619 691.995 330.519 681.695 330.819C677.795 330.919 677.595 329.319 677.595 326.219C677.695 295.919 677.595 265.719 677.595 235.419C677.595 189.519 677.595 143.619 677.495 97.7188C677.495 93.8187 678.395 92.7188 682.395 92.7188C702.395 93.0188 722.295 92.9188 742.295 92.9188C745.695 92.9188 748.995 93.8187 752.395 94.1187Z" fill="white"/>
<path d="M926.195 298.719C924.195 294.819 926.595 291.019 926.695 287.119C926.795 284.019 927.295 280.919 927.295 277.719C927.295 218.519 927.195 159.319 927.495 100.019C927.495 94.8187 926.095 93.4187 921.095 93.7188C914.295 94.1188 907.495 94.0188 900.595 93.7188C896.395 93.5187 895.295 94.9187 895.295 99.0187C895.495 128.119 895.395 157.219 895.395 186.319C895.395 218.619 895.395 250.819 895.395 283.119C895.395 284.419 895.395 285.819 895.395 287.119C895.395 287.219 895.195 287.319 895.095 287.419C894.795 287.119 894.595 286.719 894.295 286.419C894.295 224.019 894.395 161.619 894.395 99.2188C894.395 92.7188 894.395 92.7188 900.995 92.7188C908.995 92.7188 916.995 92.8188 924.995 92.7188C927.495 92.7188 928.795 93.0187 928.795 96.1187C928.695 158.019 928.595 219.919 928.595 281.819C928.495 287.619 927.595 293.219 926.195 298.719Z" fill="white"/>
<path d="M1114.1 127.117C1116.4 128.117 1115.1 130.017 1115.1 131.417C1115.2 194.917 1115.2 258.417 1115.2 321.917C1115.2 323.417 1115.3 324.917 1115.2 326.417C1115.1 328.717 1115.9 329.717 1118.3 329.717C1127.9 329.617 1137.6 329.617 1147.2 329.717C1148.9 329.717 1150 329.017 1151 327.817C1151.4 329.817 1150.9 330.817 1148.5 330.817C1137.9 330.717 1127.2 330.717 1116.6 330.817C1113 330.817 1114.1 328.517 1114.1 326.817C1114.1 281.417 1114.1 236.017 1114.1 190.517C1114.1 169.317 1114.1 148.217 1114.1 127.117Z" fill="white"/>
<path d="M716.395 326.718C715.295 325.418 715.595 323.918 715.595 322.418C715.595 293.218 715.495 264.018 715.595 234.918C715.595 233.518 714.995 231.818 716.695 230.918C716.695 259.418 716.595 287.818 716.595 316.318C716.495 319.718 716.395 323.218 716.395 326.718Z" fill="white"/>
<path d="M298.495 10.117C305.995 -2.28295 319.695 -3.48295 328.995 7.61705C332.394 11.7169 335.295 16.2166 337.495 21.0165C344.495 36.3163 364.094 34.6169 372.495 26.117C375.495 23.017 378.595 19.9165 381.695 17.0165C392.295 7.11674 407.995 11.0169 412.495 24.7167C414.195 30.0167 415.295 35.617 416.495 41.117C419.595 54.4169 427.995 59.6166 441.095 56.2167C445.895 54.9167 450.495 53.0168 454.995 50.9169C459.495 48.7169 464.195 47.4169 469.395 47.4169C478.795 47.417 485.995 53.9168 486.395 63.2167C486.595 67.2166 486.395 71.2167 485.995 75.2167C483.795 97.4166 494.795 104.017 514.294 101.217C520.094 100.417 525.795 99.417 531.595 99.617C545.095 100.017 553.094 110.517 549.794 123.717C547.994 130.917 545.295 137.917 543.995 145.217C542.495 153.417 547.195 162.617 555.294 165.117C559.194 166.317 563.395 166.717 567.595 166.717C573.295 166.617 578.895 167.417 584.395 168.717C594.995 171.317 600.895 182.217 597.695 192.717C596.195 197.717 592.995 201.817 590.195 206.117C585.795 212.917 581.195 219.717 583.395 228.617C584.995 234.817 588.295 239.516 594.495 241.516C599.695 243.216 605.095 244.316 610.195 246.016C627.095 251.816 630.195 268.616 616.595 280.516C612.695 283.916 608.595 287.017 604.995 290.717C596.995 298.717 597.295 309.217 605.294 317.217C609.694 321.617 615.295 324.317 620.095 328.117C630.695 336.417 633.595 348.117 627.095 357.717C624.095 362.117 619.594 364.617 614.794 366.717C609.994 368.917 604.995 370.717 600.595 373.817C591.495 380.417 589.795 389.917 596.495 398.917C599.295 402.817 602.495 406.517 605.695 410.117C611.395 416.517 614.195 423.817 610.895 432.117C607.495 440.517 599.895 443.217 591.695 444.317C587.295 444.917 582.795 445.516 578.495 446.516C566.995 449.116 561.095 458.517 563.895 470.117C565.195 475.617 567.795 480.617 570.095 485.717C575.795 498.817 571.195 511.317 559.595 514.817C554.195 516.417 548.694 515.816 543.294 515.016C540.795 514.616 538.394 514.017 535.995 513.717C518.895 511.317 508.995 521.917 511.895 539.117C512.995 545.817 514.595 552.417 513.595 559.317C511.995 569.917 503.195 576.417 492.595 574.817C486.395 573.917 480.895 571.317 475.195 569.217C460.195 563.617 449.295 570.717 448.595 586.617C448.395 590.417 448.195 594.317 447.495 598.016C444.595 613.916 428.595 617.717 417.095 610.817C413.095 608.417 409.695 605.217 406.095 602.317C395.295 593.517 382.495 596.117 376.395 608.717C374.295 613.117 372.695 617.917 370.995 622.516C368.495 629.116 363.995 633.317 356.995 634.317C349.095 635.517 342.594 632.916 337.794 626.516C335.295 623.217 333.195 619.617 330.695 616.317C322.795 605.417 308.495 605.017 300.095 615.417C297.395 618.817 295.195 622.517 292.595 625.917C289.295 630.217 285.595 633.817 279.695 634.417C269.895 635.517 263.794 632.317 259.794 623.217C257.694 618.417 256.095 613.316 253.895 608.516C248.795 597.417 237.595 594.117 226.995 600.317C222.595 602.817 219.094 606.417 215.294 609.617C208.995 615.017 202.195 618.117 193.895 614.617C184.995 610.917 182.295 603.417 181.895 594.617V591.217C181.795 587.917 181.795 584.617 181.095 581.317C178.595 570.017 171.094 565.217 159.794 567.917C155.395 568.917 151.295 570.717 147.195 572.617C138.895 576.417 130.594 576.617 123.294 570.717C116.395 565.117 116.395 557.217 117.495 549.217C118.495 541.817 120.395 534.516 117.995 527.016C114.895 517.417 109.095 513.117 99.0952 513.617C92.4952 513.917 85.8944 515.217 79.2944 515.617C64.0947 516.717 55.0946 505.817 59.2944 491.117C61.0944 484.817 64.1952 478.816 66.0952 472.516C70.7949 457.417 64.2944 447.716 48.4946 445.516C44.1947 444.916 39.9947 444.316 35.6948 443.516C21.5949 440.816 15.3947 426.817 22.7944 414.617C25.1944 410.617 28.295 407.117 31.395 403.617C42.7949 390.317 39.6947 377.117 23.6948 370.117C19.1948 368.117 14.2946 366.917 9.99458 364.317C-1.00529 357.617 -3.30507 343.817 4.99458 333.817C8.89452 329.117 13.8945 325.917 18.7944 322.417C21.7944 320.317 24.5948 317.917 26.6948 314.917C32.1948 307.017 31.3948 298.516 24.1948 291.516C19.7948 287.217 14.8943 283.517 10.2944 279.417C-0.10544 270.217 0.195275 249.417 19.5952 245.317C23.795 244.417 27.8948 243.117 31.9946 241.817C45.5946 237.417 49.9944 224.517 42.2944 212.417C39.1945 207.517 35.4951 203.017 32.5952 197.917C23.9952 182.817 30.8948 166.917 51.6948 166.617C55.8948 166.517 59.9948 166.617 64.1948 166.417C79.0947 165.717 86.9952 154.916 83.0952 140.516C81.2952 134.117 78.9946 127.916 77.4946 121.516C74.6948 110.317 82.9951 100.016 94.395 99.5165C101.795 99.2165 108.895 101.117 116.195 101.717C135.295 103.017 144.494 92.7168 141.294 73.9169C140.594 69.6169 140.395 65.3165 141.495 61.0165C144.195 50.9167 151.595 46.1169 161.995 47.4169C169.195 48.3169 175.395 52.2172 182.095 54.3172C184.795 55.2172 187.495 56.2171 190.195 56.617C201.895 58.217 209.295 53.4168 212.595 41.9169C214.095 36.5169 215.095 30.9164 216.695 25.5165C221.095 10.5167 237.595 6.41732 248.995 17.3172C253.794 21.9172 257.495 27.6168 263.794 30.4169C273.994 35.0168 284.095 32.6172 290.595 23.3172C293.595 19.1173 295.895 14.517 298.495 10.117ZM281.695 112.518C277.895 108.819 273.595 105.419 267.695 106.119C263.795 106.619 259.794 107.319 255.995 108.419C186.995 128.619 135.495 169.419 106.195 236.119C101.195 247.519 92.8945 253.519 80.4946 253.919C74.4948 254.119 68.7944 255.019 63.4946 258.518C54.9948 264.018 52.895 279.919 60.1948 286.919C64.0948 290.719 66.495 293.919 61.895 298.919C59.895 301.019 60.7954 303.719 62.7954 303.919C69.0952 304.419 72.1952 308.419 74.0952 313.819C75.6952 318.319 77.8953 321.318 83.0952 323.018C93.9952 326.518 98.6952 343.419 91.5952 352.319C89.4953 355.019 88.6952 357.319 90.0952 360.419C90.6951 361.919 90.8952 363.619 91.0952 365.219C92.3952 376.119 95.3954 385.719 107.295 389.719C110.295 390.719 111.995 393.719 112.895 396.919C114.195 401.419 115.795 405.719 117.795 409.919C127.195 429.819 140.195 447.419 153.095 465.119C156.395 469.619 160.895 470.919 165.995 471.419C187.094 473.319 209.295 484.119 214.095 510.018C214.695 513.018 216.395 514.919 219.195 516.319C248.695 530.919 279.995 537.719 314.595 538.319C330.895 537.919 348.895 536.619 366.495 531.719C379.595 528.119 392.495 524.119 404.695 517.919C409.295 515.519 412.695 512.619 413.995 507.119C415.295 501.619 417.295 495.919 421.095 491.419C430.695 479.819 443.595 473.619 458.295 471.619C465.995 470.519 471.795 467.619 475.695 460.919C476.495 459.619 477.495 458.519 478.395 457.319C497.295 432.819 511.395 406.119 519.095 376.119C522.895 361.619 525.695 347.219 520.195 332.319C517.595 325.519 518.195 318.219 520.395 311.219C523.695 300.419 523.295 289.719 520.295 278.919C518.895 273.519 517.195 268.119 516.195 262.619C515.295 257.619 512.395 252.519 514.595 247.619C517.295 241.819 518.895 235.919 519.895 229.619C520.495 225.319 521.995 221.619 526.895 220.419C528.695 220.019 529.895 218.218 530.495 216.518C534.295 205.619 541.195 195.418 539.495 183.018C539.395 182.319 539.495 181.618 539.695 181.018C542.095 174.519 539.395 168.819 535.195 164.719C531.695 161.219 526.795 164.419 522.595 165.819C520.495 166.519 518.495 167.219 516.295 167.319C511.995 167.419 508.295 166.318 505.995 162.518C502.495 156.619 497.295 154.219 490.695 153.919C484.295 153.619 479.595 150.619 477.095 144.719C474.995 139.819 473.495 134.718 471.095 130.018C467.395 122.719 463.495 115.019 454.195 113.219C441.995 110.919 429.795 110.119 418.195 115.919C413.895 118.119 409.895 118.419 405.395 116.819C394.795 113.119 383.795 110.618 372.995 107.518C361.995 104.419 352.995 106.019 344.895 114.219C340.195 118.919 334.195 122.119 327.695 123.819C310.395 128.319 294.895 125.218 281.695 112.518ZM167.795 499.116C157.695 499.316 149.095 507.916 149.395 517.516C149.695 526.616 158.295 534.216 167.895 534.116C177.995 534.016 185.494 526.517 185.495 516.417C185.595 507.217 176.995 498.916 167.795 499.116ZM461.695 499.418C451.395 499.418 443.795 507.018 443.795 517.218C443.895 526.418 451.596 533.517 461.496 533.517C471.995 533.417 478.795 526.818 478.795 516.618C478.695 506.218 471.995 499.418 461.695 499.418ZM560.995 307.816C552.395 307.817 544.695 314.917 544.695 322.717C544.795 331.517 552.395 338.416 561.895 338.516C570.495 338.616 577.595 331.717 577.595 323.217C577.695 314.517 570.395 307.816 560.995 307.816ZM315.496 64.7196C305.796 64.5196 298.196 71.319 297.996 80.4188C297.696 91.0186 304.295 98.419 314.395 98.8192C324.395 99.2192 332.195 91.9192 332.395 81.8192C332.595 72.5192 325.095 64.9197 315.496 64.7196Z" fill="white"/>
<path d="M682.395 93.6203C704.795 94.1203 727.296 92.7203 749.696 94.6203C750.795 94.5203 751.695 94.5199 752.395 94.1203C768.595 96.4203 780.195 104.72 786.495 120.12C788.995 126.32 790.595 132.72 790.895 139.42C791.695 153.32 792.495 167.32 788.995 181.02C785.595 194.62 777.695 204.82 765.395 211.22C765.495 213.32 767.095 212.62 767.995 213.02C781.395 218.62 788.195 229.22 790.295 243.02C792.695 258.42 791.195 273.92 791.395 289.319C791.595 303.119 791.096 316.92 795.196 330.819H759.095C756.995 330.819 756.695 329.32 756.295 327.92C754.395 321.02 753.295 314.019 753.295 306.819C753.195 289.82 753.195 272.92 753.295 255.92C753.295 252.42 752.795 248.92 751.895 245.62C749.495 236.42 742.795 231.52 732.395 231.12C727.095 230.92 721.795 230.92 716.395 230.92C714.595 232.72 715.395 235.02 715.295 237.12C715.195 265.92 715.295 294.72 715.295 323.52C715.295 330.32 715.295 330.319 708.395 330.319C699.895 330.319 691.395 330.22 682.895 330.42C679.395 330.52 677.995 329.219 678.295 325.819C678.395 324.62 678.295 323.519 678.295 322.319V101.72C678.295 100.42 678.395 99.0199 678.295 97.7199C678.095 94.82 679.295 93.6204 682.395 93.6203ZM719.896 126.919C717.096 126.719 716.295 127.719 716.295 130.519C716.495 141.119 716.396 151.819 716.396 162.419C716.496 170.219 716.496 178.019 716.396 185.819C716.396 198.019 716.396 198.019 728.696 197.519C741.695 197.019 750.495 189.619 752.295 176.919C753.895 165.819 753.795 154.718 752.295 143.618C750.895 132.919 743.895 127.119 732.896 127.019C728.496 127.019 724.196 127.119 719.896 126.919Z" fill="white"/>
<path d="M947.895 356.419C960.995 356.619 974.195 355.819 987.295 356.719C1004.69 357.919 1018.09 366.519 1019.59 387.119C1020.09 393.319 1020.29 399.32 1019.59 405.52C1018.49 416.019 1014.29 424.619 1004.09 430.219C1017.89 435.419 1022.29 446.019 1022.39 459.119C1022.49 468.419 1023.1 477.719 1021.5 486.919C1018.4 504.119 1007.6 513.919 990.195 514.419C976.095 514.819 961.895 514.419 947.795 514.619C944.795 514.619 944.295 513.519 944.295 510.819C944.395 460.619 944.395 410.319 944.295 360.119C944.295 357.319 944.995 356.419 947.895 356.419ZM971.295 442.518C968.795 442.418 968.694 443.717 968.694 445.617C968.794 452.617 968.694 459.617 968.694 466.617C968.694 470.317 968.595 473.918 968.895 477.518C968.994 482.118 966.895 488.317 969.795 490.917C972.895 493.617 978.995 491.418 983.795 491.318C990.495 491.217 995.494 487.117 996.194 480.717C997.094 472.117 997.595 463.417 996.295 454.818C995.195 447.818 992.094 444.918 985.194 443.318C980.595 442.218 975.895 442.818 971.295 442.518ZM973.395 378.618C969.795 378.218 968.295 379.118 968.595 383.118C968.995 388.718 968.695 394.318 968.695 400.018C968.695 403.518 968.695 407.018 968.795 410.418C968.695 422.218 969.995 423.218 981.995 421.018C988.395 419.918 992.395 416.718 993.595 410.018C994.695 403.418 994.695 396.718 993.795 390.218C992.595 381.518 988.894 378.818 979.895 378.718C977.695 378.718 975.494 378.918 973.395 378.618Z" fill="white"/>
<path d="M873.895 356.221C884.395 353.621 894.895 353.82 905.294 357.32C918.694 361.82 924.994 372.02 926.294 385.32C928.294 405.52 926.995 425.921 927.095 446.221C927.195 459.221 927.995 472.221 926.495 485.121C924.295 503.821 913.295 514.821 894.495 516.421C885.195 517.221 875.795 516.921 867.195 512.621C854.895 506.421 849.895 495.52 849.395 482.52C848.895 467.021 849.395 451.52 849.395 436.02C849.395 420.721 848.895 405.421 849.495 390.121C850.195 372.721 857.895 360.121 873.895 356.221ZM888.295 377.818C880.495 377.918 875.495 382.718 875.495 391.118C875.395 420.718 875.395 450.418 875.595 480.018C875.595 485.218 877.495 490.118 883.095 492.418C892.395 496.118 901.195 490.217 901.295 480.018C901.395 465.418 901.295 450.718 901.295 436.118C901.295 421.218 901.395 406.218 901.195 391.218C901.095 383.018 895.695 377.619 888.295 377.818Z" fill="white"/>
<path d="M1087.4 356.719C1089.6 356.719 1090 357.619 1090.3 359.619C1095.5 390.419 1100.8 421.219 1106.1 452.119C1109.5 472.019 1112.6 491.919 1116 511.818C1116.5 514.618 1115.5 514.918 1113.2 514.818C1109.9 514.518 1106.6 514.619 1103.3 514.619H1097.3C1090.1 514.619 1090.2 514.619 1089.2 507.719C1088.3 501.319 1087 495.019 1086.3 488.619C1086 486.219 1085.4 485.519 1083.1 485.619C1075.8 485.719 1068.5 485.819 1061.1 485.619C1058.1 485.519 1057.6 487.019 1057.3 489.519C1056.4 496.719 1055.2 503.919 1054.3 511.219C1054 513.719 1053 514.918 1050.2 514.818C1044.4 514.618 1038.5 514.418 1032.7 514.818C1028.8 515.118 1028.8 513.119 1029.2 510.419C1031 500.119 1032.9 489.919 1034.6 479.619C1038.5 456.119 1042.3 432.619 1046.1 409.119C1048.8 392.319 1051.5 375.519 1054.1 358.619C1054.4 356.719 1055.5 356.719 1056.9 356.719H1087.4ZM1071.8 388.418C1071.6 388.718 1071.4 388.818 1071.4 389.018C1067.7 412.718 1064.1 436.418 1060.4 460.118C1060 462.518 1061.3 462.918 1063.2 462.918C1068.5 462.918 1073.8 462.718 1079.1 463.018C1083 463.218 1083.3 461.718 1082.8 458.318C1079 435.118 1075.5 411.918 1071.8 388.418Z" fill="white"/>
<path d="M308.795 466.62C305.195 465.52 301.495 464.92 298.095 466.52C294.695 468.22 291.095 469.32 287.495 470.62C285.995 471.12 285.095 471.62 283.595 470.32C281.295 468.32 279.195 470.32 276.995 471.52C273.895 473.22 277.795 474.52 276.995 475.92C276.895 476.12 277.095 476.52 277.195 476.82C278.495 479.42 280.095 482.82 277.295 484.62C275.795 485.62 272.195 484.32 270.595 481.62C269.895 480.42 268.595 480.72 267.495 480.62C259.895 479.42 256.995 475.62 259.095 468.62C260.195 465.12 258.795 463.32 256.495 462.12C251.995 459.62 249.495 454.32 243.895 453.32C242.495 453.02 243.895 451.82 244.095 451.02C245.195 446.32 247.895 441.82 245.995 436.72C248.795 434.92 250.795 437.22 252.695 438.42C265.195 446.02 278.795 450.72 293.195 453.32C293.795 453.42 294.495 453.62 295.095 453.12C294.795 444.52 293.595 443.12 285.795 441.12C275.395 438.52 265.795 434.12 256.995 427.82C249.695 420.22 242.295 412.72 235.495 404.62C232.895 401.52 228.895 402.22 225.295 402.22C219.795 398.12 216.495 392.32 212.995 386.72C206.295 375.92 200.995 364.52 197.995 352.12C196.995 348.02 193.095 345.72 188.995 346.42C185.995 346.92 187.195 349.12 187.495 350.72C189.295 360.02 192.095 369.12 196.195 377.72C200.195 385.92 204.395 394.02 210.195 401.22C211.495 402.82 213.295 404.42 211.895 406.92C211.595 413.42 204.395 414.02 201.795 418.62C201.395 419.22 199.695 418.62 198.595 418.02C191.495 414.42 184.295 412.62 177.095 417.92C175.595 419.02 175.495 418.02 174.695 417.02C172.695 414.72 170.295 413.02 166.895 414.62C166.195 414.92 165.195 415.22 164.495 414.92C157.995 412.72 150.895 413.92 144.395 409.22C140.295 406.22 136.695 402.12 131.695 399.92C130.495 399.42 130.195 396.92 129.295 395.42C126.395 390.62 121.895 387.92 116.495 387.02C112.495 386.32 109.095 384.12 104.995 383.72C103.095 383.52 100.195 381.82 101.595 378.32C101.895 377.52 101.095 376.12 100.495 375.22C97.7954 371.22 96.1954 367.02 96.9954 362.12C97.0954 361.12 97.0954 360.12 96.2954 359.32C93.6954 356.92 95.7954 355.62 97.5954 354.32C103.095 350.12 102.995 349.92 99.7954 344.02C97.4954 339.82 96.2954 334.82 95.7954 330.52C95.0954 324.02 90.5954 322.42 86.3954 320.52C83.0954 319.02 80.5954 318.42 81.6954 313.62C82.4954 310.42 80.2954 307.52 76.8954 306.42C68.2954 303.52 66.5954 300.72 71.6954 293.62C75.1954 288.82 71.7954 288.42 69.2954 287.32C62.1954 284.22 60.7954 282.22 60.9954 274.52C61.0954 269.42 68.0954 260.52 72.9954 259.32C73.8954 259.12 75.1954 259.02 75.8954 259.52C80.4954 262.82 84.7954 260.22 89.0954 259.02C97.6954 256.72 105.995 253.92 113.995 250.02C116.295 248.92 118.395 247.72 119.495 245.32C119.695 244.92 120.295 244.12 120.195 244.12C115.095 240.42 120.495 238.42 121.495 235.62C122.395 233.22 121.595 231.02 120.395 228.92C117.695 224.02 119.095 219.62 121.795 215.32C124.095 211.72 127.395 209.82 131.395 212.52C133.295 213.82 135.195 213.42 136.895 213.42C138.895 213.42 141.095 211.52 139.395 209.32C137.195 206.52 138.595 204.72 139.695 202.22C141.295 198.42 144.495 196.02 146.395 192.42C147.795 189.72 150.995 190.82 153.595 191.92C162.095 195.52 161.895 195.52 162.995 186.32C163.395 183.02 164.095 179.52 168.695 178.82C171.895 178.32 171.795 174.62 173.395 172.52C177.595 166.72 183.995 166.02 187.795 172.12C193.195 180.62 199.895 187.82 206.095 195.62C208.695 198.92 208.595 206.62 205.395 211.02C203.695 213.42 203.895 215.12 206.595 215.12C216.095 215.22 224.595 218.92 233.195 222.02C233.595 222.22 234.195 221.92 234.695 221.92C234.295 225.92 230.695 227.32 228.195 229.42C206.195 248.02 191.895 275.52 186.595 303.52C186.895 304.12 187.395 303.82 187.895 303.82C195.095 303.82 198.395 300.42 200.095 293.22C205.295 271.62 216.995 253.72 232.995 238.52C234.295 237.22 235.395 235.22 237.895 236.22C240.895 236.02 242.495 237.52 244.295 239.92C247.095 243.82 252.195 243.72 256.295 243.82C269.195 244.22 280.995 247.32 291.595 254.92C292.795 255.92 292.795 257.32 292.495 258.62C291.395 264.82 290.395 271.12 288.595 277.22C287.295 281.72 286.195 282.02 282.395 279.32C272.895 272.52 263.295 266.02 253.795 259.22C252.495 258.32 251.395 256.82 249.395 257.02C248.995 259.42 250.795 260.62 251.895 262.12C259.195 272.22 266.495 282.32 273.795 292.42C277.295 297.22 276.695 298.82 270.795 300.02C227.195 308.62 183.495 316.22 139.795 324.52C138.995 324.62 138.295 325.12 137.395 324.72C149.495 325.72 161.195 329.02 173.095 331.02C205.695 336.62 238.195 343.42 270.595 350.12C277.095 351.52 277.595 352.72 273.295 358.22C265.695 367.72 258.395 377.42 250.995 387.02C249.295 389.22 247.495 391.42 246.895 394.62C249.395 395.02 250.895 393.52 252.395 392.42C263.395 384.42 274.995 377.22 285.695 368.62C286.695 367.82 287.795 367.02 288.995 366.42C291.295 365.22 292.795 366.12 293.595 368.42C293.995 369.72 294.195 371.02 294.395 372.32C298.995 401.72 304.395 431.02 309.195 460.42C309.895 462.32 310.895 464.62 308.795 466.62Z" fill="#8EB3CD"/>
<path d="M308.796 466.617C307.696 453.517 304.696 440.717 302.696 427.817C299.596 407.817 296.096 387.917 292.696 367.917C292.596 367.317 292.296 366.717 291.896 365.417C282.996 372.417 273.995 378.917 264.995 385.117C259.895 388.617 254.996 392.217 249.896 395.717C248.596 396.617 247.095 398.117 245.495 396.417C244.195 395.017 245.596 393.517 246.296 392.317C252.196 382.417 259.796 373.817 266.696 364.617C269.696 360.617 272.796 356.817 276.396 352.317C229.096 342.117 181.996 333.517 134.896 323.917C181.896 315.117 228.896 306.317 276.495 297.417C268.795 286.717 261.395 276.517 253.995 266.317C252.195 263.917 250.396 261.517 248.596 259.117C247.596 257.817 246.196 256.417 247.696 254.717C249.296 252.917 250.796 254.617 252.096 255.517C263.496 263.517 274.896 271.717 286.796 280.217C289.096 271.617 290.895 263.317 291.995 254.717C295.995 234.617 299.995 214.517 303.995 194.417C307.295 177.917 310.695 161.417 313.995 144.917C314.095 144.217 314.396 143.617 315.396 143.617C322.296 177.517 328.595 211.517 333.995 245.717C337.295 253.317 336.896 261.617 338.096 269.617C338.696 273.817 339.196 278.117 339.696 282.317C341.496 283.017 342.296 281.717 343.296 280.917C355.796 271.317 368.496 261.817 381.296 252.617C382.196 251.917 383.096 251.117 384.196 250.717C386.796 249.717 388.896 251.217 388.596 254.017C388.396 255.917 387.296 257.417 386.196 258.817C378.296 269.517 370.796 280.517 362.896 291.217C360.096 294.917 360.196 295.117 364.796 296.017C378.996 298.617 393.196 301.217 407.396 304.317C409.996 304.917 412.495 305.717 414.995 306.517C439.395 311.517 463.795 316.517 488.195 321.617C491.895 322.417 495.795 322.817 499.795 324.817C474.895 328.817 450.796 334.317 426.396 337.717C424.596 338.017 422.795 338.417 420.995 338.817C418.695 341.117 415.695 341.417 412.795 341.917C396.795 344.817 380.696 347.517 364.596 350.017C358.896 350.917 358.496 351.417 362.096 355.817C370.796 366.517 378.696 377.917 387.096 388.717C388.796 390.917 392.096 393.717 389.696 396.417C387.096 399.417 383.796 396.717 381.296 395.017C370.896 387.817 360.795 380.317 350.495 372.917C345.795 369.517 345.796 369.717 344.396 375.317C336.396 408.817 329.395 442.417 322.495 476.117C322.095 478.117 320.996 479.717 320.096 481.517C319.696 488.817 317.896 495.817 316.296 503.017C312.696 491.117 310.996 478.817 308.796 466.617Z" fill="white"/>
<path d="M386.895 214.819C390.895 210.719 390.095 204.319 393.895 200.019C395.695 198.019 397.095 196.319 400.095 197.719C401.095 198.219 402.395 197.919 403.595 197.819C405.895 197.519 409.395 199.219 410.295 196.319C410.995 194.019 408.295 191.619 406.795 189.519C404.995 187.119 402.095 187.019 399.995 188.419C395.595 191.519 391.795 191.119 387.995 187.619C387.195 186.919 386.195 187.019 385.195 187.219C383.695 187.419 382.495 190.019 380.595 187.419C378.695 185.019 377.995 182.319 379.295 180.019C382.395 174.719 385.695 169.619 388.295 164.019C389.495 161.519 392.995 162.519 395.495 163.719C404.695 168.019 408.595 166.019 411.095 156.419C412.795 149.919 413.395 143.119 418.895 138.119C421.095 136.119 417.495 133.719 417.695 131.319C417.795 130.219 415.995 129.919 416.895 128.319C420.995 121.119 432.695 116.419 441.195 116.919C449.595 117.419 455.695 122.219 461.495 126.719C465.695 130.019 468.295 135.619 470.595 140.619C472.095 143.819 473.195 147.219 474.595 150.419C478.795 160.019 480.695 161.519 491.495 161.819C496.595 161.919 502.295 167.419 502.695 172.519C502.995 177.219 507.395 179.519 511.495 177.519C516.595 175.019 521.895 172.719 527.195 170.719C530.295 169.519 534.095 173.619 533.295 177.519C532.395 181.919 532.595 186.219 532.495 190.619C531.895 203.719 526.295 214.219 514.395 220.419C511.895 221.719 512.095 222.919 512.795 225.119C514.795 231.519 516.695 237.919 510.695 243.519C508.995 245.119 506.595 245.019 504.995 246.219C499.695 250.119 494.295 254.119 492.495 261.019C491.395 265.019 488.895 265.119 485.595 263.819C482.495 262.619 479.995 258.319 476.795 259.819C474.195 261.019 472.695 264.819 470.795 267.519C468.395 271.119 465.695 274.419 461.195 275.619C460.695 275.719 460.095 275.919 459.895 276.219C456.895 280.919 452.595 283.919 447.195 285.319C445.995 285.619 445.795 286.619 445.595 287.619C443.395 287.419 443.395 285.419 442.795 284.019C436.595 270.019 429.695 256.519 419.795 244.619C411.095 234.219 400.895 225.619 389.895 217.819C388.695 217.219 386.495 217.219 386.895 214.819Z" fill="#8EB3CD"/>
<path d="M320.096 481.617C327.596 443.617 335.696 405.717 344.896 367.417C355.996 375.417 366.896 383.217 377.696 391.017C380.096 392.717 382.596 394.417 385.096 396.017C386.396 396.817 388.096 397.417 389.196 396.017C390.296 394.717 388.796 393.517 388.096 392.517C378.796 380.117 369.496 367.917 360.196 355.517C358.896 353.817 356.196 352.017 357.196 350.217C358.096 348.417 361.296 348.817 363.496 348.417C382.696 345.417 401.896 342.617 420.796 338.617C422.796 346.417 425.196 354.217 428.896 361.417C429.096 361.917 429.896 362.017 430.496 362.317C431.896 365.117 430.296 367.517 429.196 369.817C413.396 403.117 389.196 427.417 353.896 439.717C350.896 440.717 347.796 441.317 344.696 441.817C340.396 442.517 336.796 448.217 337.896 452.217C338.496 454.517 340.296 453.517 341.596 453.317C354.796 451.417 367.096 447.017 378.596 440.417C400.196 428.117 418.196 411.917 430.896 390.317C431.696 388.917 432.396 387.217 434.496 387.417C435.996 387.517 437.496 387.217 438.896 388.017C440.296 388.817 442.496 389.317 441.896 391.217C441.396 392.917 439.896 392.417 438.396 391.317C437.096 390.417 436.096 392.417 435.696 393.417C435.096 394.917 436.296 395.717 437.796 395.817C440.696 395.917 440.196 396.617 439.696 399.317C438.496 405.717 432.896 409.417 431.296 414.817C429.596 420.617 424.296 423.117 422.296 428.217C422.096 428.817 421.096 429.517 421.296 429.817C425.396 437.817 418.196 441.817 414.696 446.617C411.696 450.817 406.996 454.017 403.396 457.717C399.196 462.017 394.896 465.817 389.796 468.817C386.196 471.017 381.996 472.117 378.596 474.817C377.796 475.517 376.496 475.517 375.896 474.617C372.496 469.917 370.996 473.417 368.796 475.917C363.496 481.817 356.396 484.217 348.896 484.117C344.696 484.117 343.996 486.817 342.896 489.217C341.696 492.017 345.096 491.917 346.296 492.817C351.696 497.117 351.796 496.917 348.196 503.517C347.996 503.817 347.796 504.117 347.796 504.417C346.396 512.017 338.596 512.617 334.096 516.917C332.496 518.417 327.496 512.717 326.896 509.017C325.996 502.717 329.196 498.417 333.396 494.417C339.396 488.717 339.596 488.217 333.396 483.817C329.696 481.317 324.896 479.917 320.096 481.617Z" fill="#8EB3CD"/>
<path d="M414.895 306.516C395.995 303.116 377.095 299.716 357.695 296.216C364.295 286.916 370.695 278.016 377.195 269.016C380.095 265.016 383.095 261.016 385.995 256.916C387.195 255.316 388.595 253.216 386.895 251.516C384.895 249.416 383.895 252.416 382.595 253.316C368.195 263.916 353.795 274.616 338.695 285.916C337.095 272.216 335.495 259.016 333.995 245.716C337.895 243.916 342.295 243.316 345.795 240.216C349.095 237.316 349.295 234.516 347.995 231.016C345.695 224.816 347.795 221.716 354.495 221.816C357.995 221.816 361.495 221.916 364.995 221.816C366.395 221.816 368.195 222.316 368.595 220.116C370.295 218.616 371.795 220.016 373.095 220.716C395.295 232.016 412.995 248.016 424.095 270.716C424.595 271.716 425.395 272.716 424.595 273.916C421.695 274.116 419.895 276.016 417.995 277.916C412.495 283.516 407.295 289.516 400.495 293.816C397.495 295.716 397.895 298.416 401.395 299.516C406.395 301.116 410.495 304.216 414.895 306.516Z" fill="#8EB3CD"/>
<path d="M434.595 387.616C429.195 395.116 424.795 403.216 418.395 410.116C398.895 431.416 376.195 447.716 347.395 453.616C332.395 456.716 335.995 457.416 338.095 444.116C338.395 442.216 339.395 441.516 341.395 441.116C383.295 432.916 409.795 406.016 428.195 369.416C429.295 367.216 429.795 364.716 430.595 362.416C431.695 358.416 433.295 354.516 433.595 350.416C433.895 345.816 435.895 343.716 440.195 342.816C448.695 340.916 448.595 340.816 447.095 349.716C444.995 363.116 440.895 375.716 434.595 387.616Z" fill="white"/>
<path d="M424.695 273.919C417.395 258.419 406.895 245.319 393.295 234.819C385.695 228.919 377.795 223.519 368.695 220.219C359.495 215.519 349.495 213.219 339.295 211.919C336.595 211.619 335.395 210.519 335.095 207.519C333.995 196.719 333.895 196.719 344.595 198.819C359.595 201.719 373.895 206.319 386.795 214.819C415.095 232.119 433.895 257.119 445.495 287.819C446.695 293.119 447.695 298.519 448.995 303.719C449.695 306.619 448.795 306.419 446.295 306.119C438.095 305.319 433.595 301.719 432.295 293.019C431.495 286.319 427.695 280.119 424.695 273.919Z" fill="white"/>
<path d="M211.995 406.617C209.795 400.817 205.095 396.517 201.995 391.217C193.495 376.617 187.996 361.917 185.396 345.017C188.896 344.217 192.295 345.517 195.695 345.317C197.695 345.217 198.295 346.617 198.595 348.117C202.995 368.317 212.695 385.817 225.695 401.717C235.095 411.817 246.696 418.917 257.896 426.717C267.196 433.317 277.395 438.117 288.495 440.117C293.395 441.017 295.295 443.217 295.995 447.517C296.395 449.917 297.095 452.317 297.695 455.017C280.895 452.517 265.495 447.717 251.495 438.717C249.895 437.617 248.395 436.217 246.095 436.417C232.695 428.817 222.095 418.117 211.995 406.617Z" fill="white"/>
<path d="M238.096 236.017C219.296 251.517 207.196 271.217 200.896 294.617C198.496 303.317 198.596 303.317 189.896 304.617C186.096 305.217 184.496 305.317 185.696 300.217C193.096 269.417 207.996 243.317 233.096 223.417C233.696 222.917 234.196 222.217 234.796 221.717C250.996 208.917 269.496 201.317 289.696 197.817C293.596 197.117 296.096 197.417 294.296 202.317C293.996 203.117 293.996 203.917 293.996 204.817C294.196 209.817 291.896 212.017 286.896 212.917C271.896 215.617 258.196 221.917 245.396 230.017C242.696 231.617 240.496 234.017 238.096 236.017Z" fill="white"/>
<path d="M441.696 444.92C438.896 451.22 440.996 459.32 435.496 465.42C434.096 466.92 432.796 468.42 431.096 469.32C429.696 470.12 428.696 470.12 427.696 468.12C425.896 464.12 424.596 460.12 424.096 455.82C423.796 452.72 426.596 450.62 427.996 448.22C428.996 446.52 430.296 444.72 430.396 442.92C430.496 438.02 434.996 437.52 437.296 437.52C440.196 437.52 441.596 441.12 441.696 444.92Z" fill="#8EB3CD"/>
<path d="M314.896 354.82C297.096 354.82 282.896 340.32 282.896 322.22C282.996 304.72 297.396 290.52 315.296 290.52C333.996 290.52 348.996 305.02 348.796 322.82C348.696 340.82 333.796 354.82 314.896 354.82Z" fill="#8EB3CD"/>
<path d="M464.495 321.718C431.095 321.718 397.695 321.718 364.295 321.718C355.395 321.718 355.495 321.718 353.295 313.518C352.595 310.918 351.595 308.518 350.695 306.018C350.195 304.818 348.795 303.518 349.595 302.418C350.495 301.018 352.295 301.818 353.795 302.018C368.695 304.618 383.495 307.118 398.295 309.818C418.495 313.518 438.995 315.518 459.095 319.718C460.995 320.118 462.895 320.618 464.795 321.018C464.595 321.118 464.595 321.418 464.495 321.718Z" fill="#8EB3CD"/>
<path d="M283.395 345.717C245.595 340.517 208.895 333.617 172.095 326.717C179.195 326.717 186.195 326.417 193.295 326.817C219.395 328.117 245.495 327.517 271.595 327.817C275.495 327.817 277.495 328.517 278.295 332.917C279.195 337.017 281.395 340.917 283.395 345.717Z" fill="#8EB3CD"/>
<path d="M336.295 355.418C331.195 389.318 326.195 422.518 321.195 455.818C319.295 455.418 319.795 454.218 319.795 453.418C319.495 423.818 319.195 394.218 318.795 364.518C318.695 361.018 319.395 359.518 323.295 359.518C327.595 359.518 331.495 357.118 336.295 355.418Z" fill="#8EB3CD"/>
<path d="M311.095 247.719C311.295 259.419 311.495 271.119 311.695 282.919C311.695 284.019 311.395 284.819 310.195 285.019C304.995 285.819 300.195 288.019 294.695 290.819C295.695 278.819 296.995 267.719 299.895 256.919C302.295 252.219 306.795 250.119 311.095 247.719Z" fill="#8EB3CD"/>
<path d="M311.095 247.719C310.795 249.319 310.595 250.519 308.295 250.919C304.895 251.619 303.095 255.319 299.995 256.819C301.595 242.919 303.995 229.119 306.395 215.319C307.995 206.219 309.595 197.219 311.095 188.719C311.095 207.919 311.095 227.819 311.095 247.719Z" fill="#8EB3CD"/>
</svg>
