<svg width="1098" height="538" viewBox="0 0 1098 538" fill="none" xmlns="http://www.w3.org/2000/svg">
<path d="M1017.55 98.2008C1005.05 98.2008 992.655 98.0008 980.155 98.1008C977.055 98.1008 975.855 97.6008 975.955 94.1008C976.255 85.1008 976.155 76.1008 976.055 67.2008C976.055 64.6008 976.555 63.8008 979.355 63.8008C1016.25 63.9008 1053.25 63.9008 1090.15 63.8008C1092.85 63.8008 1093.85 64.4008 1093.85 67.4008C1093.65 76.4008 1093.65 85.4008 1093.85 94.3008C1093.95 97.3008 1093.25 98.3008 1090.05 98.2008C1079.95 98.0008 1069.75 98.3008 1059.65 98.0008C1055.75 97.9008 1054.75 98.9008 1054.75 102.801C1054.85 166.301 1054.85 229.901 1054.85 293.401C1054.85 295.201 1054.75 297.001 1054.65 298.901C1054.25 300.901 1052.95 301.301 1050.95 301.301C1041.15 301.201 1031.35 301.201 1021.45 301.301C1019.05 301.301 1018.05 300.501 1018.25 298.101C1018.35 296.901 1018.25 295.801 1018.25 294.601C1018.25 230.701 1018.25 166.801 1018.25 102.901C1018.15 101.301 1018.85 99.6008 1017.55 98.2008Z" fill="#266680"/>
<path d="M1031.56 406.4C1031.56 381.8 1031.66 357.1 1031.46 332.5C1031.46 328.6 1032.46 327.3 1036.36 327.6C1041.66 328 1047.06 327.9 1052.36 327.6C1055.86 327.4 1056.46 328.7 1056.46 331.8C1056.36 373.9 1056.46 416 1056.26 458.1C1056.26 462 1057.16 463.2 1061.06 463.1C1072.06 462.9 1083.06 463.2 1093.96 463C1096.76 462.9 1097.86 463.2 1097.66 466.3C1097.36 471.8 1097.46 477.3 1097.56 482.8C1097.56 484.9 1096.86 485.7 1094.66 485.7C1074.56 485.6 1054.36 485.6 1034.26 485.7C1030.46 485.7 1031.56 483.1 1031.56 481.2C1031.56 456.3 1031.56 431.3 1031.56 406.4Z" fill="#266680"/>
<path d="M1017.55 98.1992C1019.85 99.1992 1018.55 101.099 1018.55 102.499C1018.65 165.999 1018.65 229.499 1018.65 292.999C1018.65 294.499 1018.75 295.999 1018.65 297.499C1018.55 299.799 1019.35 300.799 1021.75 300.799C1031.35 300.699 1041.05 300.699 1050.65 300.799C1052.35 300.799 1053.45 300.099 1054.45 298.899C1054.85 300.899 1054.35 301.899 1051.95 301.899C1041.35 301.799 1030.65 301.799 1020.05 301.899C1016.45 301.899 1017.55 299.599 1017.55 297.899C1017.55 252.499 1017.55 207.099 1017.55 161.599C1017.55 140.399 1017.55 119.299 1017.55 98.1992Z" fill="#266680"/>
<path d="M829.653 269.801C825.753 289.301 810.553 303.101 790.253 305.901C777.053 307.701 764.153 307.001 751.453 302.901C732.653 296.801 722.453 280.301 720.953 262.501C718.553 234.101 720.153 205.601 719.953 177.201C719.753 141.101 719.953 105.001 719.753 68.8008C719.753 64.9008 720.653 63.7008 724.653 63.8008C733.753 64.1008 742.953 64.1008 752.153 63.8008C756.453 63.7008 757.953 64.5008 757.953 69.4008C757.753 129.001 757.853 188.601 757.853 248.201C757.853 252.201 758.253 256.201 759.253 260.001C761.653 269.001 771.553 274.201 781.353 272.601C790.253 271.201 795.553 266.301 797.753 257.801C799.053 256.401 798.353 254.601 798.353 253.101C798.353 192.601 798.353 132.001 798.353 71.5008C798.353 63.6008 797.653 64.8008 805.353 64.7008C812.153 64.6008 818.953 64.7008 825.853 64.7008C831.253 64.7008 831.253 64.7008 831.253 70.0008C831.253 109.701 831.253 149.501 831.253 189.201C831.253 208.001 831.053 226.801 831.353 245.601C831.553 253.701 830.053 261.701 829.653 269.801Z" fill="#266680"/>
<path d="M872.453 231.8C876.653 231.8 880.853 232.1 884.953 231.7C889.353 231.2 890.153 233 890.053 237C889.853 243.1 889.753 249.3 890.753 255.4C892.653 267.2 897.653 272 909.053 272C920.853 272 926.953 266.8 928.753 255.4C931.453 238.2 927.153 223.4 914.553 210.9C903.053 199.5 889.953 190 878.553 178.6C855.253 155.2 848.753 127.6 857.753 96.3C863.153 77.3 875.653 65.6 895.453 61.8C907.253 59.5 918.853 59.2 930.453 62.1C953.253 67.7 964.053 83.7 966.753 105.9C967.553 112.8 966.953 119.9 967.353 126.8C967.553 129.7 966.453 130.1 964.053 130.1C954.753 130 945.453 129.9 936.053 130.1C933.253 130.1 932.253 129.4 932.453 126.5C932.853 121 932.253 115.6 930.853 110.2C928.053 99.9 920.053 93.5 911.353 94.4C901.053 95.5 894.853 102.8 893.853 114C892.353 131.4 898.853 145.3 911.153 157.1C920.153 165.8 930.153 173.3 939.253 181.7C952.853 194.3 963.053 209 966.153 227.6C969.453 248.1 969.153 268.4 956.853 286.4C949.353 297.4 938.353 303.3 925.453 305.6C912.353 307.9 899.353 307.4 886.553 303.2C868.053 297.2 859.353 283.1 855.853 265.1C853.953 255.2 855.053 245.2 854.753 235.2C854.653 232.2 855.853 231.6 858.553 231.7C863.053 231.9 867.753 231.8 872.453 231.8Z" fill="#266680"/>
<path d="M585.753 406.5C585.753 392.7 585.753 378.9 585.753 365.1C585.753 360.3 586.154 355.5 587.454 350.8C591.354 336.9 600.354 328.8 614.554 326.4C624.154 324.8 633.454 325.6 642.354 329.4C654.054 334.4 659.454 344.2 660.854 356.3C661.654 363.2 661.254 370.3 661.554 377.2C661.654 380.1 660.254 380.5 657.854 380.4C651.854 380.3 645.854 380.1 639.854 380.3C636.954 380.4 636.654 379.3 636.654 376.9C636.654 370.8 637.354 364.6 635.854 358.5C634.254 352.1 630.554 348.9 624.354 348.9C617.854 349 612.854 353.2 611.854 359.5C611.154 363.8 611.354 368.1 611.454 372.4C611.654 398.7 611.754 425 611.954 451.3C612.054 459 617.054 464.1 624.054 464.4C632.854 464.8 637.553 460.7 637.753 451.8C638.053 442.3 637.854 432.8 638.054 423.3C638.154 420.4 637.154 419.5 634.354 419.7C631.054 419.9 626.453 420.9 624.753 419.3C622.353 417 623.954 412.4 623.854 408.8C623.754 397.4 623.754 397.4 634.954 397.4C642.454 397.4 649.954 397.6 657.454 397.4C660.454 397.3 661.554 398 661.454 401.2C661.054 419.5 662.054 437.8 660.854 456.1C659.554 475.2 647.054 487.1 627.854 487.5C622.154 487.6 616.554 487.5 611.054 486.1C595.454 482.1 586.154 470 585.854 452.8C585.654 437.3 585.753 421.8 585.753 406.4C585.853 406.5 585.853 406.5 585.753 406.5Z" fill="#266680"/>
<path d="M702.953 395.402C702.953 416.402 703.053 437.302 702.853 458.302C702.853 462.402 704.153 463.102 707.853 463.002C719.353 462.702 730.853 463.002 742.253 462.802C744.953 462.802 746.253 463.202 746.153 466.302C746.053 471.902 746.053 477.602 746.353 483.302C746.453 485.502 745.653 485.802 743.853 485.802C723.053 485.802 702.253 485.702 681.453 485.802C678.153 485.802 678.653 483.902 678.653 481.902C678.653 457.402 678.553 433.002 678.553 408.502C678.553 382.602 678.553 356.602 678.453 330.702C678.453 328.302 678.653 327.602 681.153 327.602C687.153 327.802 693.153 327.902 699.153 327.602C702.853 327.402 703.053 329.102 703.053 332.002C702.953 353.102 702.953 374.202 702.953 395.402Z" fill="#266680"/>
<path d="M655.853 65.2008C652.553 66.8008 648.953 66.2008 645.553 65.9008C626.153 64.0008 606.653 65.7008 587.253 65.0008C583.553 64.9008 582.853 66.5008 582.953 69.7008C583.053 93.0008 582.953 116.301 582.953 139.601C582.953 191.301 583.053 243.101 582.853 294.801C582.853 299.701 584.153 301.101 588.953 300.801C596.553 300.401 604.253 300.401 611.953 300.801C616.653 301.001 618.153 299.801 618.153 294.901C617.953 265.101 618.053 235.301 618.153 205.501C618.153 204.301 616.153 201.201 620.153 201.901C619.253 202.901 619.553 204.101 619.553 205.201C619.553 235.201 619.553 265.301 619.553 295.301C619.553 296.101 619.553 297.001 619.853 297.701C620.453 300.801 619.053 301.801 616.053 301.801C605.753 301.701 595.453 301.601 585.153 301.901C581.253 302.001 581.053 300.401 581.053 297.301C581.153 267.001 581.053 236.801 581.053 206.501C581.053 160.601 581.053 114.701 580.953 68.8008C580.953 64.9008 581.853 63.8008 585.853 63.8008C605.853 64.1008 625.753 64.0008 645.753 64.0008C649.153 64.0008 652.453 64.9008 655.853 65.2008Z" fill="#266680"/>
<path d="M829.653 269.801C827.653 265.901 830.053 262.101 830.153 258.201C830.253 255.101 830.753 252.001 830.753 248.801C830.753 189.601 830.653 130.401 830.953 71.1008C830.953 65.9008 829.553 64.5008 824.553 64.8008C817.753 65.2008 810.953 65.1008 804.053 64.8008C799.853 64.6008 798.753 66.0008 798.753 70.1008C798.953 99.2008 798.853 128.301 798.853 157.401C798.853 189.701 798.853 221.901 798.853 254.201C798.853 255.501 798.853 256.901 798.853 258.201C798.853 258.301 798.653 258.401 798.553 258.501C798.253 258.201 798.053 257.801 797.753 257.501C797.753 195.101 797.853 132.701 797.853 70.3008C797.853 63.8008 797.853 63.8008 804.453 63.8008C812.453 63.8008 820.453 63.9008 828.453 63.8008C830.953 63.8008 832.253 64.1008 832.253 67.2008C832.153 129.101 832.053 191.001 832.053 252.901C831.953 258.701 831.053 264.301 829.653 269.801Z" fill="#266680"/>
<path d="M619.853 297.8C618.753 296.5 619.053 295 619.053 293.5C619.053 264.3 618.953 235.1 619.053 206C619.053 204.6 618.453 202.9 620.153 202C620.153 230.5 620.053 258.9 620.053 287.4C619.953 290.8 619.853 294.3 619.853 297.8Z" fill="#266680"/>
<path d="M585.853 64.7023C608.253 65.2023 630.754 63.8023 653.154 65.7023C654.253 65.6023 655.153 65.6021 655.853 65.2023C672.053 67.5023 683.653 75.8023 689.953 91.2023C692.453 97.4022 694.053 103.802 694.353 110.502C695.153 124.402 695.953 138.403 692.453 152.103C689.053 165.703 681.153 175.903 668.853 182.303C668.953 184.402 670.554 183.703 671.453 184.103C684.853 189.703 691.653 200.303 693.753 214.103C696.153 229.503 694.653 245.003 694.853 260.402C695.053 274.202 694.554 288.003 698.654 301.902H662.553C660.453 301.902 660.153 300.402 659.753 299.002C657.853 292.102 656.753 285.102 656.753 277.902C656.653 260.902 656.653 244.002 656.753 227.002C656.753 223.502 656.253 220.002 655.353 216.702C652.953 207.502 646.253 202.602 635.853 202.202C630.553 202.002 625.253 202.002 619.853 202.002C618.053 203.802 618.853 206.102 618.753 208.202C618.653 237.002 618.753 265.803 618.753 294.603C618.753 301.402 618.753 301.402 611.853 301.402C603.353 301.402 594.853 301.302 586.353 301.502C582.853 301.602 581.453 300.302 581.753 296.902C581.853 295.703 581.753 294.602 581.753 293.402V72.8029C581.753 71.503 581.853 70.1027 581.753 68.8029C581.553 65.903 582.753 64.7024 585.853 64.7023ZM623.354 98.0011C620.554 97.8011 619.753 98.8017 619.753 101.602C619.953 112.202 619.854 122.901 619.854 133.501C619.954 141.301 619.954 149.102 619.854 156.902C619.854 169.101 619.854 169.102 632.154 168.602C645.154 168.102 653.953 160.701 655.753 148.001C657.353 136.901 657.253 125.801 655.753 114.701C654.353 104.001 647.354 98.2019 636.354 98.1017C631.954 98.1017 627.654 98.2011 623.354 98.0011Z" fill="#266680"/>
<path d="M851.353 327.501C864.453 327.701 877.653 326.901 890.753 327.801C908.153 329.001 921.553 337.601 923.053 358.201C923.553 364.401 923.753 370.402 923.053 376.602C921.953 387.102 917.753 395.701 907.553 401.301C921.353 406.501 925.753 417.101 925.853 430.201C925.953 439.501 926.553 448.801 924.953 458.001C921.853 475.201 911.053 485.001 893.653 485.501C879.553 485.901 865.353 485.501 851.253 485.701C848.253 485.701 847.753 484.601 847.753 481.902C847.853 431.702 847.853 381.401 847.753 331.201C847.753 328.401 848.453 327.501 851.353 327.501ZM874.753 413.6C872.253 413.5 872.152 414.799 872.152 416.699C872.252 423.699 872.152 430.699 872.152 437.699C872.152 441.399 872.053 445 872.353 448.6C872.452 453.2 870.353 459.399 873.253 461.999C876.353 464.699 882.453 462.5 887.253 462.4C893.953 462.299 898.952 458.199 899.652 451.799C900.552 443.199 901.053 434.499 899.753 425.9C898.653 418.9 895.552 416 888.652 414.4C884.053 413.3 879.353 413.9 874.753 413.6ZM876.853 349.7C873.253 349.3 871.753 350.2 872.053 354.2C872.453 359.8 872.153 365.4 872.153 371.1C872.153 374.6 872.153 378.1 872.253 381.5C872.153 393.3 873.453 394.3 885.453 392.1C891.853 391 895.853 387.8 897.053 381.1C898.153 374.5 898.153 367.8 897.253 361.3C896.053 352.6 892.352 349.9 883.353 349.8C881.153 349.8 878.952 350 876.853 349.7Z" fill="#266680"/>
<path d="M777.353 327.303C787.853 324.703 798.353 324.902 808.752 328.402C822.152 332.902 828.452 343.102 829.752 356.402C831.752 376.602 830.452 397.003 830.552 417.303C830.652 430.303 831.453 443.303 829.953 456.203C827.753 474.903 816.753 485.903 797.953 487.503C788.653 488.303 779.253 488.003 770.653 483.703C758.353 477.503 753.353 466.602 752.853 453.602C752.353 438.103 752.853 422.602 752.853 407.102C752.853 391.803 752.353 376.503 752.953 361.203C753.653 343.803 761.353 331.203 777.353 327.303ZM791.752 348.9C783.953 349.001 778.953 353.8 778.953 362.2C778.853 391.8 778.853 421.5 779.053 451.1C779.053 456.3 780.953 461.2 786.553 463.5C795.853 467.2 804.652 461.299 804.752 451.1C804.852 436.5 804.752 421.8 804.752 407.2C804.752 392.3 804.853 377.3 804.653 362.3C804.553 354.1 799.152 348.7 791.752 348.9Z" fill="#266680"/>
<path d="M990.853 327.801C993.053 327.801 993.453 328.701 993.753 330.701C998.953 361.501 1004.25 392.301 1009.55 423.201C1012.95 443.101 1016.05 463.001 1019.45 482.9C1019.95 485.7 1018.95 486 1016.65 485.9C1013.35 485.6 1010.05 485.701 1006.75 485.701H1000.75C993.553 485.701 993.653 485.701 992.653 478.801C991.753 472.401 990.453 466.101 989.753 459.701C989.453 457.301 988.853 456.601 986.553 456.701C979.253 456.801 971.953 456.901 964.553 456.701C961.553 456.601 961.053 458.101 960.753 460.601C959.853 467.801 958.653 475.001 957.753 482.301C957.453 484.801 956.453 486 953.653 485.9C947.853 485.7 941.953 485.5 936.153 485.9C932.253 486.2 932.253 484.201 932.653 481.501C934.453 471.201 936.353 461.001 938.053 450.701C941.953 427.201 945.753 403.701 949.553 380.201C952.253 363.401 954.953 346.601 957.553 329.701C957.853 327.801 958.953 327.801 960.353 327.801H990.853ZM975.253 359.5C975.054 359.8 974.853 359.9 974.853 360.1C971.153 383.8 967.553 407.5 963.853 431.2C963.453 433.6 964.753 434 966.653 434C971.953 434 977.253 433.8 982.553 434.1C986.453 434.3 986.753 432.8 986.253 429.4C982.453 406.2 978.953 383 975.253 359.5Z" fill="#266680"/>
<path d="M269.119 25.6836C135.2 25.6836 26.2041 134.731 26.2041 268.599C26.2041 402.467 135.251 511.514 269.119 511.514C402.987 511.514 512.035 402.467 512.035 268.599C512.035 134.731 402.987 25.6836 269.119 25.6836ZM268.76 47.2669C272.913 47.3745 276.86 49.1057 279.759 52.0913C282.659 55.0769 284.28 59.0807 284.279 63.2489C284.279 67.4875 282.595 71.5526 279.598 74.5498C276.601 77.547 272.536 79.2308 268.297 79.2308C264.058 79.2308 259.993 77.547 256.996 74.5498C253.999 71.5526 252.315 67.4875 252.315 63.2489C252.314 61.1106 252.743 58.9939 253.574 57.0241C254.406 55.0543 255.625 53.2715 257.159 51.7812C258.692 50.291 260.509 49.1235 262.502 48.3481C264.494 47.5727 266.622 47.205 268.76 47.2669ZM305.349 73.578C333.405 78.8331 359.981 90.1326 383.232 106.692C406.482 123.251 425.849 144.673 439.987 169.47L421.128 212.02C417.89 219.368 421.23 228.002 428.528 231.291L464.808 247.375C465.934 258.716 466.071 270.133 465.219 281.497H445.024C443.019 281.497 442.197 282.834 442.197 284.786V294.036C442.197 315.825 429.915 320.604 419.124 321.786C408.846 322.968 397.489 317.47 396.05 311.2C389.986 277.129 379.914 269.884 363.983 257.293C383.768 244.754 404.324 226.203 404.324 201.434C404.324 174.66 385.978 157.804 373.49 149.531C355.915 137.968 336.49 135.656 331.249 135.656H122.61C151.459 103.427 190.13 81.6081 232.633 73.578L257.249 99.3753C262.799 105.182 271.997 105.439 277.804 99.8378L305.349 73.578ZM78.2097 191.875C82.3677 191.996 86.3149 193.732 89.2128 196.717C92.1107 199.701 93.7308 203.697 93.7291 207.857C93.7291 212.096 92.0453 216.161 89.0481 219.158C86.0509 222.155 81.9858 223.839 77.7472 223.839C73.5085 223.839 69.4434 222.155 66.4462 219.158C63.449 216.161 61.7652 212.096 61.7652 207.857C61.7643 205.719 62.1925 203.602 63.0245 201.632C63.8564 199.663 65.0751 197.88 66.6085 196.39C68.1419 194.899 69.9588 193.732 71.9515 192.956C73.9442 192.181 76.0723 191.813 78.2097 191.875ZM459.258 192.595C463.416 192.715 467.363 194.452 470.261 197.436C473.159 200.42 474.779 204.417 474.778 208.577C474.778 212.815 473.094 216.88 470.097 219.878C467.1 222.875 463.034 224.559 458.796 224.559C454.557 224.559 450.492 222.875 447.495 219.878C444.498 216.88 442.814 212.815 442.814 208.577C442.813 206.438 443.241 204.322 444.073 202.352C444.905 200.382 446.124 198.599 447.657 197.109C449.191 195.619 451.007 194.451 453 193.676C454.993 192.9 457.121 192.533 459.258 192.595ZM108.324 195.164H136.176V320.759H79.9569C73.0136 296.377 70.8498 270.883 73.5847 245.679L108.015 230.366C115.364 227.077 118.704 218.495 115.415 211.146L108.324 195.164ZM224.565 196.5H290.908C294.351 196.5 315.112 200.457 315.112 216.028C315.112 228.927 299.182 233.552 286.078 233.552H224.514L224.565 196.5ZM224.565 286.739H275.389C280.014 286.739 300.21 288.075 306.633 313.872C308.637 321.786 313.108 347.584 316.14 355.857C319.172 365.107 331.454 383.607 344.558 383.607H427.5C421.941 391.051 415.862 398.092 409.308 404.677L375.546 397.431C367.683 395.735 359.924 400.771 358.228 408.634L350.211 446.045C324.432 457.723 296.436 463.699 268.136 463.566C239.836 463.433 211.897 457.194 186.229 445.274L178.212 407.863C176.517 400 168.808 394.964 160.946 396.66L127.903 403.752C121.771 397.427 116.071 390.697 110.842 383.607H271.535C273.333 383.607 274.567 383.299 274.567 381.603V324.767C274.567 323.122 273.333 322.763 271.535 322.763H224.514L224.565 286.739ZM150.411 416.907C154.569 417.028 158.516 418.764 161.414 421.749C164.312 424.733 165.932 428.729 165.93 432.889C165.93 437.128 164.247 441.193 161.249 444.19C158.252 447.187 154.187 448.871 149.949 448.871C145.71 448.871 141.645 447.187 138.648 444.19C135.65 441.193 133.967 437.128 133.967 432.889C133.966 430.751 134.394 428.634 135.226 426.664C136.058 424.695 137.277 422.912 138.81 421.421C140.343 419.931 142.16 418.764 144.153 417.988C146.146 417.213 148.274 416.845 150.411 416.907ZM387.057 417.627C391.215 417.747 395.162 419.484 398.06 422.468C400.958 425.452 402.578 429.449 402.576 433.609C402.576 437.847 400.893 441.912 397.895 444.91C394.898 447.907 390.833 449.591 386.594 449.591C382.356 449.591 378.291 447.907 375.293 444.91C372.296 441.912 370.612 437.847 370.612 433.609C370.612 431.47 371.04 429.354 371.872 427.384C372.704 425.414 373.922 423.631 375.456 422.141C376.989 420.651 378.806 419.483 380.799 418.708C382.791 417.932 384.92 417.565 387.057 417.627Z" fill="#266680"/>
<path fill-rule="evenodd" clip-rule="evenodd" d="M498.466 268.599C498.466 329.426 474.302 387.762 431.291 430.773C388.28 473.785 329.944 497.948 269.117 497.948C208.29 497.948 149.954 473.785 106.943 430.773C63.9318 387.762 39.7684 329.426 39.7684 268.599C39.7684 207.772 63.9318 149.437 106.943 106.425C149.954 63.4142 208.29 39.2508 269.117 39.2508C329.944 39.2508 388.28 63.4142 431.291 106.425C474.302 149.437 498.466 207.772 498.466 268.599ZM494.149 246.451L529.916 268.599L494.149 290.748L524.879 319.474L485.516 334.223L510.079 368.397L468.506 375.18L485.978 413.516L443.891 412.026L453.552 453.034L412.543 443.373L414.034 485.46L375.698 467.988L368.914 509.562L334.741 484.998L319.992 524.362L291.266 493.631L269.117 529.398L246.968 493.631L218.242 524.362L203.493 484.998L169.32 509.562L162.536 467.988L124.2 485.46L125.691 443.373L84.6822 453.034L94.3434 412.026L52.2559 413.516L69.7281 375.18L28.1545 368.397L52.7184 334.223L13.3545 319.474L44.085 290.748L8.31836 268.599L44.085 246.451L13.3545 217.724L52.7184 202.976L28.1545 168.802L69.7281 162.019L52.2559 123.683L94.3434 125.173L84.6822 84.1647L125.691 93.8258L124.2 51.7383L162.536 69.2105L169.32 27.6369L203.493 52.2008L218.242 12.8369L246.968 43.5674L269.117 7.80078L291.266 43.5674L319.992 12.8369L334.741 52.2008L368.914 27.6369L375.698 69.2105L414.034 51.7383L412.543 93.8258L453.552 84.1647L443.891 125.173L485.978 123.683L468.506 162.019L510.079 168.802L485.516 202.976L524.879 217.724L494.149 246.451Z" fill="#266680"/>
<path d="M269.117 0.09375C271.786 0.0938274 274.266 1.474 275.671 3.74316L292.515 30.9434L314.36 7.57422C316.182 5.62563 318.882 4.75726 321.498 5.27832C324.114 5.79948 326.274 7.63611 327.21 10.1338L338.423 40.0605L364.415 21.3789L364.62 21.2363C366.758 19.8022 369.477 19.527 371.865 20.5166C374.33 21.5383 376.092 23.7628 376.521 26.3965L381.681 58.0127L410.837 44.7246C413.267 43.6172 416.097 43.8469 418.317 45.3311C420.538 46.8153 421.832 49.3428 421.737 52.0117L420.604 84.0078L451.784 76.6631C454.383 76.0508 457.114 76.8269 459.002 78.7148C460.89 80.603 461.667 83.3345 461.055 85.9336L453.708 117.113L485.705 115.98C488.374 115.886 490.902 117.179 492.387 119.399C493.871 121.62 494.1 124.451 492.992 126.881L479.703 156.036L511.32 161.195C513.954 161.625 516.178 163.386 517.2 165.852C518.222 168.317 517.896 171.135 516.339 173.302L497.655 199.293L527.584 210.507C530.082 211.443 531.918 213.604 532.439 216.22C532.96 218.836 532.092 221.535 530.144 223.356L506.772 245.202L533.974 262.047C536.243 263.452 537.624 265.931 537.624 268.601C537.624 271.27 536.243 273.749 533.974 275.154L506.772 291.998L530.144 313.844C532.092 315.665 532.961 318.365 532.439 320.981C531.918 323.597 530.082 325.758 527.584 326.693L497.655 337.906L516.339 363.898C517.896 366.065 518.222 368.883 517.2 371.349C516.178 373.814 513.954 375.575 511.32 376.005L479.703 381.164L492.992 410.32C494.1 412.75 493.871 415.581 492.387 417.801C490.902 420.021 488.374 421.315 485.705 421.221L453.709 420.087L461.055 451.268C461.667 453.867 460.89 456.597 459.002 458.485C457.114 460.373 454.383 461.15 451.784 460.538L420.604 453.192L421.737 485.188C421.832 487.857 420.538 490.386 418.317 491.87C416.097 493.354 413.267 493.583 410.837 492.476L381.681 479.187L376.521 510.804C376.092 513.437 374.33 515.662 371.865 516.684C369.4 517.705 366.582 517.38 364.415 515.822L338.423 497.139L327.21 527.067C326.274 529.565 324.114 531.402 321.498 531.923C318.882 532.444 316.182 531.576 314.36 529.627L292.515 506.256L275.671 533.457C274.266 535.726 271.786 537.107 269.117 537.107C266.448 537.107 263.969 535.726 262.563 533.457L245.719 506.256L223.873 529.627C222.052 531.575 219.352 532.444 216.736 531.923C214.12 531.402 211.959 529.565 211.023 527.067L199.81 497.139L173.818 515.822C171.652 517.38 168.833 517.705 166.368 516.684C163.903 515.662 162.142 513.437 161.712 510.804L156.553 479.187L127.397 492.476C124.967 493.583 122.136 493.354 119.916 491.87C117.696 490.386 116.403 487.857 116.497 485.188L117.63 453.191L86.4502 460.538C83.8511 461.15 81.1196 460.374 79.2314 458.485C77.3435 456.597 76.5674 453.867 77.1797 451.268L84.5244 420.087L52.5283 421.221C49.8594 421.315 47.3319 420.021 45.8477 417.801C44.3635 415.581 44.1338 412.75 45.2412 410.32L58.5293 381.164L26.9131 376.005C24.2794 375.575 22.0549 373.814 21.0332 371.349C20.0116 368.883 20.338 366.065 21.8955 363.898L40.5771 337.906L10.6504 326.693C8.15271 325.758 6.31608 323.597 5.79492 320.981C5.27387 318.365 6.14224 315.665 8.09082 313.844L31.46 291.998L4.25977 275.154C1.9906 273.749 0.610442 271.27 0.610352 268.601C0.610353 265.932 1.99067 263.452 4.25977 262.047L31.46 245.202L8.09082 223.356C6.14226 221.535 5.27391 218.836 5.79492 216.22C6.31598 213.604 8.15259 211.443 10.6504 210.507L40.5781 199.293L21.8955 173.302C20.3381 171.135 20.0115 168.317 21.0332 165.852C22.055 163.386 24.2794 161.625 26.9131 161.195L58.5293 156.036L45.2412 126.881C44.1336 124.451 44.3634 121.62 45.8477 119.399C47.3319 117.179 49.8595 115.886 52.5283 115.98L84.5254 117.113L77.1797 85.9336C76.5674 83.3345 77.3433 80.603 79.2314 78.7148C81.1196 76.8267 83.8511 76.0508 86.4502 76.6631L117.63 84.0088L116.497 52.0117C116.403 49.3429 117.696 46.8153 119.916 45.3311C122.136 43.8468 124.967 43.617 127.397 44.7246L156.553 58.0127L161.712 26.3965C162.142 23.7628 163.903 21.5384 166.368 20.5166C168.833 19.4949 171.652 19.8215 173.818 21.3789L199.81 40.0615L211.023 10.1338L211.115 9.90137C212.095 7.52223 214.202 5.7831 216.736 5.27832C219.352 4.7573 222.052 5.62566 223.873 7.57422L245.719 30.9434L262.563 3.74316L262.698 3.5332C264.124 1.38917 266.532 0.093749 269.117 0.09375ZM274.795 505.588C272.905 505.633 271.012 505.657 269.117 505.657C267.222 505.657 265.329 505.633 263.438 505.588L269.116 514.757L274.795 505.588ZM221.099 510.018L228.457 502.146C224.723 501.495 221.009 500.755 217.318 499.929L221.099 510.018ZM320.914 499.929C317.224 500.755 313.51 501.495 309.775 502.146L317.134 510.018L320.914 499.929ZM174.924 496.041L183.699 489.733C180.16 488.366 176.654 486.913 173.184 485.378L174.924 496.041ZM365.05 485.378C361.58 486.914 358.073 488.366 354.533 489.733L363.31 496.041L365.05 485.378ZM32.0596 268.601C32.0596 266.705 32.0827 264.812 32.1279 262.922L22.96 268.6L32.1279 274.277C32.0827 272.388 32.0596 270.495 32.0596 268.601ZM132.344 473.278L142.169 468.8C138.975 466.775 135.826 464.673 132.727 462.492L132.344 473.278ZM405.507 462.492C402.407 464.673 399.258 466.775 396.064 468.8L405.889 473.277L405.507 462.492ZM95.042 442.675L105.561 440.196C104.19 438.89 102.834 437.566 101.492 436.225C100.15 434.883 98.8268 433.526 97.5205 432.155L95.042 442.675ZM440.713 432.155C439.407 433.526 438.083 434.883 436.741 436.225C435.399 437.567 434.042 438.89 432.672 440.196L443.191 442.675L440.713 432.155ZM64.4385 405.372L75.2246 404.99C73.044 401.89 70.941 398.742 68.916 395.548L64.4385 405.372ZM469.316 395.548C467.291 398.741 465.189 401.89 463.009 404.99L473.794 405.372L469.316 395.548ZM41.6748 362.793L52.3389 364.533C50.8033 361.063 49.3507 357.557 47.9834 354.018L41.6748 362.793ZM490.25 354.017C488.883 357.557 487.43 361.063 485.895 364.533L496.558 362.793L490.25 354.017ZM27.6982 316.617L37.7871 320.397C36.9606 316.707 36.2215 312.992 35.5713 309.258L27.6982 316.617ZM502.662 309.259C502.012 312.993 501.272 316.707 500.445 320.397L510.534 316.617L502.662 309.259ZM27.6982 220.582L35.5713 227.941C36.2215 224.207 36.9606 220.493 37.7871 216.802L27.6982 220.582ZM500.445 216.802C501.272 220.492 502.012 224.206 502.662 227.94L510.534 220.582L500.445 216.802ZM485.895 172.667C487.43 176.137 488.883 179.643 490.25 183.183L496.558 174.407L485.895 172.667ZM41.6758 174.407L47.9834 183.182C49.3506 179.642 50.8034 176.137 52.3389 172.667L41.6758 174.407ZM68.916 141.652C70.941 138.459 73.044 135.31 75.2246 132.21L64.4385 131.827L68.916 141.652ZM463.009 132.21C465.189 135.31 467.291 138.459 469.316 141.652L473.795 131.827L463.009 132.21ZM97.5205 105.044C98.8266 103.674 100.15 102.317 101.492 100.976C102.834 99.6338 104.19 98.31 105.561 97.0039L95.042 94.5254L97.5205 105.044ZM432.672 97.0039C434.042 98.3102 435.399 99.6337 436.741 100.976C438.083 102.317 439.407 103.674 440.713 105.044L443.191 94.5254L432.672 97.0039ZM132.727 74.708C135.827 72.5274 138.975 70.4244 142.169 68.3994L132.344 63.9219L132.727 74.708ZM396.064 68.3994C399.258 70.4244 402.407 72.5274 405.507 74.708L405.889 63.9219L396.064 68.3994ZM173.184 51.8223C176.653 50.2868 180.159 48.834 183.698 47.4668L174.924 41.1592L173.184 51.8223ZM354.534 47.4668C358.074 48.8341 361.58 50.2867 365.05 51.8223L363.31 41.1582L354.534 47.4668ZM217.318 37.2705C221.009 36.444 224.723 35.7049 228.458 35.0547L221.099 27.1816L217.318 37.2705ZM309.774 35.0547C313.509 35.7049 317.223 36.444 320.914 37.2705L317.134 27.1816L309.774 35.0547ZM263.438 31.6113C265.329 31.5661 267.222 31.543 269.117 31.543C271.012 31.543 272.904 31.5661 274.794 31.6113L269.116 22.4434L263.438 31.6113ZM47.4766 268.601C47.4766 273.795 47.6593 278.971 48.0205 284.119L48.1436 284.195C50.1842 285.459 51.5195 287.602 51.7559 289.99C51.9921 292.379 51.102 294.741 49.3486 296.38L49.2373 296.483C50.5461 306.806 52.5761 316.988 55.2979 326.959L55.4229 327.006C57.6707 327.848 59.3979 329.689 60.0947 331.986C60.7915 334.283 60.3784 336.774 58.9775 338.723L58.8984 338.831C62.185 348.668 66.1584 358.262 70.7881 367.543L70.9697 367.573C73.3402 367.96 75.3945 369.43 76.5264 371.549C77.6582 373.667 77.7383 376.192 76.7422 378.378L76.666 378.543C81.7829 387.5 87.5366 396.119 93.8965 404.329L94.0703 404.323C96.472 404.238 98.7759 405.278 100.301 407.136C101.826 408.993 102.398 411.455 101.847 413.794L101.806 413.966C105.191 417.861 108.721 421.65 112.394 425.323C116.066 428.996 119.855 432.526 123.751 435.911L123.923 435.871C126.262 435.32 128.725 435.891 130.582 437.416C132.439 438.941 133.48 441.245 133.395 443.646L133.388 443.819C141.598 450.179 150.216 455.933 159.174 461.05L159.34 460.975L159.753 460.801C161.839 459.993 164.183 460.129 166.169 461.19C168.287 462.322 169.758 464.377 170.145 466.748L170.174 466.929C179.454 471.558 189.048 475.531 198.885 478.817L198.994 478.74L199.366 478.488C201.254 477.291 203.578 476.969 205.731 477.622C208.028 478.319 209.87 480.046 210.712 482.294L210.759 482.419C220.729 485.14 230.91 487.171 241.232 488.479L241.337 488.368C242.976 486.615 245.339 485.725 247.728 485.961C250.116 486.197 252.258 487.534 253.521 489.574L253.597 489.695C258.746 490.057 263.922 490.24 269.117 490.24C274.312 490.24 279.487 490.056 284.636 489.695L284.712 489.574L284.959 489.199C286.244 487.37 288.268 486.182 290.507 485.961C292.895 485.725 295.257 486.615 296.896 488.368L297 488.479C307.322 487.171 317.504 485.141 327.475 482.419L327.522 482.294L327.691 481.879C328.596 479.834 330.349 478.275 332.503 477.622C334.8 476.925 337.29 477.339 339.239 478.74L339.348 478.818C349.185 475.532 358.779 471.558 368.06 466.929L368.09 466.748L368.175 466.308C368.663 464.124 370.079 462.252 372.065 461.19C374.184 460.059 376.709 459.979 378.895 460.975L379.06 461.05C388.017 455.933 396.636 450.179 404.846 443.819L404.84 443.646C404.755 441.245 405.795 438.941 407.652 437.416C409.51 435.891 411.972 435.32 414.311 435.871L414.481 435.911C418.377 432.526 422.167 428.996 425.84 425.323C429.513 421.65 433.043 417.861 436.428 413.965L436.388 413.794C435.837 411.455 436.408 408.993 437.933 407.136C439.457 405.278 441.761 404.238 444.163 404.323L444.336 404.329C450.696 396.119 456.449 387.501 461.566 378.543L461.491 378.378C460.495 376.192 460.575 373.667 461.707 371.549C462.839 369.43 464.894 367.96 467.265 367.573L467.445 367.543C472.075 358.262 476.048 348.668 479.335 338.831L479.257 338.723C477.856 336.774 477.442 334.283 478.139 331.986C478.835 329.689 480.563 327.848 482.811 327.006L482.936 326.958C485.657 316.987 487.687 306.806 488.996 296.483L488.885 296.38C487.131 294.741 486.241 292.379 486.478 289.99C486.714 287.602 488.05 285.459 490.091 284.195L490.212 284.119C490.573 278.971 490.757 273.795 490.757 268.601C490.757 263.405 490.573 258.229 490.212 253.08L490.091 253.005C488.05 251.741 486.714 249.599 486.478 247.211C486.241 244.822 487.131 242.459 488.885 240.82L488.996 240.716C487.687 230.394 485.657 220.212 482.936 210.242L482.811 210.195C480.563 209.353 478.836 207.512 478.139 205.215C477.442 202.918 477.856 200.427 479.257 198.478L479.334 198.368C476.047 188.532 472.075 178.937 467.445 169.657L467.265 169.628C464.894 169.241 462.839 167.771 461.707 165.652C460.575 163.534 460.495 161.009 461.491 158.823L461.566 158.657C456.449 149.7 450.696 141.081 444.336 132.871L444.163 132.878C441.762 132.963 439.457 131.923 437.933 130.065C436.408 128.208 435.837 125.745 436.388 123.406L436.428 123.234C433.043 119.339 429.513 115.55 425.84 111.877C422.167 108.204 418.378 104.674 414.482 101.289L414.311 101.33C411.972 101.881 409.51 101.309 407.652 99.7842C405.795 98.2593 404.755 95.9554 404.84 93.5537L404.846 93.3799C396.636 87.02 388.017 81.2663 379.06 76.1494L378.895 76.2256C376.709 77.2217 374.184 77.1416 372.065 76.0098C369.947 74.8779 368.477 72.8236 368.09 70.4531L368.06 70.2715C358.779 65.6418 349.184 61.6684 339.348 58.3818L339.239 58.4609C337.29 59.8618 334.8 60.2749 332.503 59.5781C330.206 58.8813 328.365 57.1541 327.522 54.9062L327.476 54.7812C317.505 52.0595 307.323 50.0295 297 48.7207L296.896 48.832C295.257 50.5854 292.895 51.4755 290.507 51.2393C288.118 51.0029 285.976 49.6676 284.712 47.627L284.636 47.5039C279.487 47.1427 274.312 46.96 269.117 46.96C263.922 46.96 258.746 47.1427 253.597 47.5039L253.521 47.627C252.258 49.6674 250.116 51.0029 247.728 51.2393C245.339 51.4756 242.976 50.5855 241.337 48.832L241.232 48.7207C230.911 50.0295 220.729 52.0588 210.759 54.7803L210.712 54.9062C209.87 57.154 208.028 58.8812 205.731 59.5781C203.434 60.275 200.943 59.862 198.994 58.4609L198.885 58.3828C189.048 61.6693 179.454 65.642 170.174 70.2715L170.145 70.4531C169.758 72.8236 168.287 74.8778 166.169 76.0098C164.05 77.1417 161.525 77.2217 159.34 76.2256L159.174 76.1494C150.216 81.2663 141.598 87.02 133.388 93.3799L133.395 93.5537C133.48 95.9553 132.439 98.2593 130.582 99.7842C128.725 101.309 126.262 101.881 123.923 101.33L123.75 101.289C119.855 104.674 116.066 108.204 112.394 111.877C108.721 115.55 105.19 119.338 101.806 123.233L101.847 123.406C102.398 125.745 101.826 128.208 100.301 130.065C98.7759 131.923 96.4719 132.963 94.0703 132.878L93.8965 132.871C87.5366 141.081 81.7829 149.7 76.666 158.657L76.7422 158.823C77.7383 161.009 77.6583 163.534 76.5264 165.652C75.3944 167.771 73.3402 169.241 70.9697 169.628L70.7881 169.657C66.1586 178.937 62.1859 188.532 58.8994 198.368L58.9775 198.478C60.3786 200.427 60.7916 202.918 60.0947 205.215C59.3978 207.512 57.6706 209.353 55.4229 210.195L55.2969 210.242C52.5754 220.212 50.5461 230.394 49.2373 240.716L49.3486 240.82C51.1021 242.459 51.9922 244.822 51.7559 247.211C51.5195 249.599 50.184 251.741 48.1436 253.005L48.0205 253.08C47.6593 258.229 47.4766 263.406 47.4766 268.601ZM506.174 268.601C506.174 270.496 506.15 272.388 506.104 274.278L515.273 268.6L506.104 262.922C506.15 264.812 506.174 266.705 506.174 268.601Z" fill="#266680"/>
</svg>
